<?xml version="1.0" standalone="no"?>
<!DOCTYPE svg PUBLIC "-//W3C//DTD SVG 1.1//EN" "http://www.w3.org/Graphics/SVG/1.1/DTD/svg11.dtd" >
<svg xmlns="http://www.w3.org/2000/svg" xmlns:xlink="http://www.w3.org/1999/xlink" version="1.1">
<metadata>
Created by FontForge 20190801 at Tue Apr 17 03:24:30 2018
 By Jimmy Wärting
Copyright \(c\) 2018 by Colophon Foundry. All rights reserved.
</metadata>
<defs>
<font id="MabryPro-LightItalic" horiz-adv-x="0" >
  <font-face 
    font-family="Mabry Pro"
    font-weight="300"
    font-style="italic"
    font-stretch="normal"
    units-per-em="1000"
    panose-1="2 13 3 3 4 0 2 11 3 3"
    ascent="792"
    descent="-208"
    x-height="474"
    cap-height="700"
    bbox="-757 -240 1800 1050"
    underline-thickness="62"
    underline-position="-160"
    slope="-18"
    unicode-range="U+000D-1F610"
  />
<missing-glyph horiz-adv-x="817" 
d="M195 0v700h500v-700h-500zM445 416l135 219h-270zM260 585v-470l144 235zM630 115v470l-145 -235zM310 65h270l-135 219z" />
    <glyph glyph-name="f_f" unicode="ff" horiz-adv-x="624" 
d="M42 0l137 422h-106l17 52h106l25 77c35 105 88 159 195 159c49 0 87 -20 104 -53c33 35 79 53 138 53c71 0 120 -35 120 -94c0 -19 -5 -38 -16 -57h-58c8 17 12 32 12 44c0 33 -26 55 -70 55c-59 0 -94 -37 -119 -118l-21 -66h136l-17 -52h-136l-137 -422h-68l137 422
h-174l-137 -422h-68zM264 474h174l25 77c7 23 11 40 11 52c0 33 -26 55 -70 55c-59 0 -94 -37 -119 -118z" />
    <glyph glyph-name="f_f_i" unicode="ffi" horiz-adv-x="729" 
d="M42 0l137 422h-106l17 52h106l25 77c35 105 88 159 195 159c49 0 87 -20 104 -53c33 35 79 53 138 53c71 0 120 -35 120 -94c0 -19 -5 -38 -16 -57h-58c8 17 12 32 12 44c0 33 -26 55 -70 55c-59 0 -94 -37 -119 -118l-21 -66h235l-154 -474h-68l137 422h-167l-137 -422
h-68l137 422h-174l-137 -422h-68zM264 474h174l25 77c7 23 11 40 11 52c0 33 -26 55 -70 55c-59 0 -94 -37 -119 -118z" />
    <glyph glyph-name="f_f_l" unicode="ffl" horiz-adv-x="739" 
d="M42 0l137 422h-106l17 52h106l25 77c35 105 88 159 195 159c49 0 87 -20 104 -53c33 35 76 53 127 53c87 0 129 -45 129 -116c0 -15 -2 -31 -7 -47l-177 -547h-68l180 556c4 13 6 25 6 35c0 41 -22 67 -66 67c-55 0 -89 -31 -112 -102l-26 -82h114l-17 -52h-114
l-137 -422h-68l137 422h-174l-137 -422h-68zM264 474h174l25 77c7 23 11 40 11 52c0 33 -26 55 -70 55c-59 0 -94 -37 -119 -118z" />
    <glyph glyph-name="fi" unicode="fi" horiz-adv-x="492" 
d="M520 559h-58c8 17 12 32 12 44c0 33 -26 55 -70 55c-59 0 -94 -37 -119 -118l-21 -66h240l-154 -474h-68l137 422h-172l-137 -422h-68l137 422h-106l17 52h106l25 77c35 105 88 159 195 159c71 0 120 -35 120 -94c0 -19 -5 -38 -16 -57z" />
    <glyph glyph-name="fl" unicode="fl" horiz-adv-x="497" 
d="M42 0l137 422h-106l17 52h106l26 82c33 103 94 154 183 154c87 0 129 -45 129 -116c0 -15 -2 -31 -7 -47l-177 -547h-68l180 556c4 13 6 25 6 35c0 41 -22 67 -66 67c-56 0 -89 -31 -112 -102l-26 -82h114l-17 -52h-114l-137 -422h-68z" />
    <glyph glyph-name=".notdef" horiz-adv-x="817" 
d="M195 0v700h500v-700h-500zM445 416l135 219h-270zM260 585v-470l144 235zM630 115v470l-145 -235zM310 65h270l-135 219z" />
    <glyph glyph-name="CR" unicode="&#xd;" horiz-adv-x="250" 
 />
    <glyph glyph-name="space" unicode=" " horiz-adv-x="250" 
 />
    <glyph glyph-name="A" unicode="A" horiz-adv-x="724" 
d="M563 0l-18 188h-384l-140 -188h-84l527 700h98l71 -700h-70zM208 252h331l-38 394z" />
    <glyph glyph-name="Aacute" unicode="&#xc1;" horiz-adv-x="724" 
d="M563 0l-18 188h-384l-140 -188h-84l527 700h98l71 -700h-70zM208 252h331l-38 394zM497 782l103 133h100l-4 -12l-134 -121h-65z" />
    <glyph glyph-name="Abreve" unicode="&#x102;" horiz-adv-x="724" 
d="M563 0l-18 188h-384l-140 -188h-84l527 700h98l71 -700h-70zM208 252h331l-38 394zM438 859c0 15 3 29 10 42h59c-5 -11 -8 -21 -8 -31c0 -21 19 -36 47 -36c45 0 74 23 75 67h61c0 -76 -53 -119 -144 -119c-61 0 -99 28 -100 77z" />
    <glyph glyph-name="Acircumflex" unicode="&#xc2;" horiz-adv-x="724" 
d="M563 0l-18 188h-384l-140 -188h-84l527 700h98l71 -700h-70zM208 252h331l-38 394zM384 781l4 12l147 103h58l81 -103l-4 -12h-73l-42 76l-87 -76h-84z" />
    <glyph glyph-name="Adieresis" unicode="&#xc4;" horiz-adv-x="724" 
d="M563 0l-18 188h-384l-140 -188h-84l527 700h98l71 -700h-70zM208 252h331l-38 394zM426 797l28 84h84l-28 -84h-84zM574 797l28 84h84l-28 -84h-84z" />
    <glyph glyph-name="Agrave" unicode="&#xc0;" horiz-adv-x="724" 
d="M563 0l-18 188h-384l-140 -188h-84l527 700h98l71 -700h-70zM208 252h331l-38 394zM500 781l-78 121l4 12h91l41 -133h-58z" />
    <glyph glyph-name="Amacron" unicode="&#x100;" horiz-adv-x="724" 
d="M563 0l-18 188h-384l-140 -188h-84l527 700h98l71 -700h-70zM208 252h331l-38 394zM424 812l18 58h248l-18 -58h-248z" />
    <glyph glyph-name="Aogonek" unicode="&#x104;" horiz-adv-x="724" 
d="M563 0l-18 188h-384l-140 -188h-84l527 700h98l71 -700h-70zM208 252h331l-38 394zM546 -185c-45 0 -72 30 -72 69c0 45 41 92 106 116h53c-55 -25 -96 -65 -96 -97c0 -20 11 -30 32 -30c12 0 25 4 38 11l14 -51c-24 -13 -43 -18 -75 -18z" />
    <glyph glyph-name="Aring" unicode="&#xc5;" horiz-adv-x="724" 
d="M563 0l-18 188h-384l-140 -188h-84l527 700h98l71 -700h-70zM208 252h331l-38 394zM467 853c0 47 36 83 83 83s83 -36 83 -83c0 -45 -36 -83 -83 -83s-83 38 -83 83zM593 853c0 24 -19 43 -43 43s-43 -19 -43 -43s19 -43 43 -43s43 19 43 43z" />
    <glyph glyph-name="Aringacute" unicode="&#x1fa;" horiz-adv-x="724" 
d="M563 0l-18 188h-384l-140 -188h-84l527 700h98l71 -700h-70zM208 252h331l-38 394zM467 853c0 47 36 83 83 83s83 -36 83 -83c0 -45 -36 -83 -83 -83s-83 38 -83 83zM593 853c0 24 -19 43 -43 43s-43 -19 -43 -43s19 -43 43 -43s43 19 43 43zM524 917l103 133h100l-4 -12
l-134 -121h-65z" />
    <glyph glyph-name="Atilde" unicode="&#xc3;" horiz-adv-x="724" 
d="M563 0l-18 188h-384l-140 -188h-84l527 700h98l71 -700h-70zM208 252h331l-38 394zM445 789l-49 6c3 55 48 98 105 98c31 0 47 -11 70 -31c20 -16 31 -23 48 -23c28 0 47 23 52 54l49 -6c-7 -56 -49 -98 -105 -98c-31 0 -47 11 -70 31c-20 16 -31 23 -48 23
c-28 0 -49 -23 -52 -54z" />
    <glyph glyph-name="AE" unicode="&#xc6;" horiz-adv-x="918" 
d="M978 636h-367l-79 -242h337l-20 -64h-337l-87 -266h377l-21 -64h-447l61 188h-220l-153 -188h-85l568 700h494zM416 252l126 386l-315 -386h189z" />
    <glyph glyph-name="AEacute" unicode="&#x1fc;" horiz-adv-x="918" 
d="M978 636h-367l-79 -242h337l-20 -64h-337l-87 -266h377l-21 -64h-447l61 188h-220l-153 -188h-85l568 700h494zM416 252l126 386l-315 -386h189zM744 782l103 133h100l-4 -12l-134 -121h-65z" />
    <glyph glyph-name="B" unicode="B" horiz-adv-x="682" 
d="M3 0l228 700h293c108 0 178 -63 178 -159c0 -93 -68 -156 -160 -184c49 -21 78 -65 78 -128c0 -132 -119 -229 -290 -229h-327zM204 390h242c53 0 97 13 131 40c35 27 52 64 52 109c0 59 -43 97 -120 97h-225zM98 64h249c109 0 198 60 198 161c0 65 -40 105 -115 105
h-245z" />
    <glyph glyph-name="C" unicode="C" horiz-adv-x="794" 
d="M88 292c-4 226 171 422 435 418c163 0 261 -99 271 -231l-64 -18c-15 119 -87 185 -214 185c-212 3 -357 -158 -354 -348c0 -148 98 -244 228 -244c164 0 263 76 315 231l63 -24c-56 -172 -187 -271 -387 -271c-166 0 -293 121 -293 302z" />
    <glyph glyph-name="Cacute" unicode="&#x106;" horiz-adv-x="794" 
d="M88 292c-4 226 171 422 435 418c163 0 261 -99 271 -231l-64 -18c-15 119 -87 185 -214 185c-212 3 -357 -158 -354 -348c0 -148 98 -244 228 -244c164 0 263 76 315 231l63 -24c-56 -172 -187 -271 -387 -271c-166 0 -293 121 -293 302zM520 782l103 133h100l-4 -12
l-134 -121h-65z" />
    <glyph glyph-name="Ccaron" unicode="&#x10c;" horiz-adv-x="794" 
d="M88 292c-4 226 171 422 435 418c163 0 261 -99 271 -231l-64 -18c-15 119 -87 185 -214 185c-212 3 -357 -158 -354 -348c0 -148 98 -244 228 -244c164 0 263 76 315 231l63 -24c-56 -172 -187 -271 -387 -271c-166 0 -293 121 -293 302zM523 781l-81 103l4 12h71l44 -76
l84 76h87l-4 -12l-144 -103h-61z" />
    <glyph glyph-name="Ccedilla" unicode="&#xc7;" horiz-adv-x="794" 
d="M88 292c-4 226 171 422 435 418c163 0 261 -99 271 -231l-64 -18c-15 119 -87 185 -214 185c-212 3 -357 -158 -354 -348c0 -148 98 -244 228 -244c164 0 263 76 315 231l63 -24c-56 -172 -187 -271 -387 -271c-166 0 -293 121 -293 302zM284 -120l40 9
c3 -23 21 -39 46 -39c35 0 53 20 53 49c0 21 -13 38 -36 38c-19 0 -35 -9 -47 -27l-39 18c14 19 30 48 49 88h45l-15 -24c-12 -20 -23 -36 -33 -47c16 17 34 25 55 25c33 0 61 -25 61 -65c0 -55 -36 -93 -99 -93c-41 0 -76 28 -80 68z" />
    <glyph glyph-name="Ccircumflex" unicode="&#x108;" horiz-adv-x="794" 
d="M88 292c-4 226 171 422 435 418c163 0 261 -99 271 -231l-64 -18c-15 119 -87 185 -214 185c-212 3 -357 -158 -354 -348c0 -148 98 -244 228 -244c164 0 263 76 315 231l63 -24c-56 -172 -187 -271 -387 -271c-166 0 -293 121 -293 302zM407 781l4 12l147 103h58
l81 -103l-4 -12h-73l-42 76l-87 -76h-84z" />
    <glyph glyph-name="Cdotaccent" unicode="&#x10a;" horiz-adv-x="794" 
d="M88 292c-4 226 171 422 435 418c163 0 261 -99 271 -231l-64 -18c-15 119 -87 185 -214 185c-212 3 -357 -158 -354 -348c0 -148 98 -244 228 -244c164 0 263 76 315 231l63 -24c-56 -172 -187 -271 -387 -271c-166 0 -293 121 -293 302zM534 818l26 83h78l-26 -83h-78z
" />
    <glyph glyph-name="D" unicode="D" horiz-adv-x="740" 
d="M3 0l228 700h230c163 0 269 -119 269 -276c2 -229 -168 -427 -463 -424h-264zM98 64h181c247 -3 379 163 377 350c0 144 -78 222 -218 222h-154z" />
    <glyph glyph-name="Eth" unicode="&#xd0;" horiz-adv-x="740" 
d="M3 0l228 700h230c163 0 269 -119 269 -276c2 -229 -168 -427 -463 -424h-264zM98 64h181c247 -3 379 163 377 350c0 144 -78 222 -218 222h-154zM45 379h354l-18 -58h-354z" />
    <glyph glyph-name="Dcaron" unicode="&#x10e;" horiz-adv-x="740" 
d="M3 0l228 700h230c163 0 269 -119 269 -276c2 -229 -168 -427 -463 -424h-264zM98 64h181c247 -3 379 163 377 350c0 144 -78 222 -218 222h-154zM424 781l-81 103l4 12h71l44 -76l84 76h87l-4 -12l-144 -103h-61z" />
    <glyph glyph-name="Dcroat" unicode="&#x110;" horiz-adv-x="740" 
d="M3 0l228 700h230c163 0 269 -119 269 -276c2 -229 -168 -427 -463 -424h-264zM98 64h181c247 -3 379 163 377 350c0 144 -78 222 -218 222h-154zM45 379h354l-18 -58h-354z" />
    <glyph glyph-name="E" unicode="E" horiz-adv-x="622" 
d="M231 700h472l-21 -64h-398l-79 -242h368l-20 -64h-368l-87 -266h408l-21 -64h-482z" />
    <glyph glyph-name="Eacute" unicode="&#xc9;" horiz-adv-x="622" 
d="M231 700h472l-21 -64h-398l-79 -242h368l-20 -64h-368l-87 -266h408l-21 -64h-482zM452 782l103 133h100l-4 -12l-134 -121h-65z" />
    <glyph glyph-name="Ebreve" unicode="&#x114;" horiz-adv-x="622" 
d="M231 700h472l-21 -64h-398l-79 -242h368l-20 -64h-368l-87 -266h408l-21 -64h-482zM393 859c0 15 3 29 10 42h59c-5 -11 -8 -21 -8 -31c0 -21 19 -36 47 -36c45 0 74 23 75 67h61c0 -76 -53 -119 -144 -119c-61 0 -99 28 -100 77z" />
    <glyph glyph-name="Ecaron" unicode="&#x11a;" horiz-adv-x="622" 
d="M231 700h472l-21 -64h-398l-79 -242h368l-20 -64h-368l-87 -266h408l-21 -64h-482zM455 781l-81 103l4 12h71l44 -76l84 76h87l-4 -12l-144 -103h-61z" />
    <glyph glyph-name="Ecircumflex" unicode="&#xca;" horiz-adv-x="622" 
d="M231 700h472l-21 -64h-398l-79 -242h368l-20 -64h-368l-87 -266h408l-21 -64h-482zM339 781l4 12l147 103h58l81 -103l-4 -12h-73l-42 76l-87 -76h-84z" />
    <glyph glyph-name="Edieresis" unicode="&#xcb;" horiz-adv-x="622" 
d="M231 700h472l-21 -64h-398l-79 -242h368l-20 -64h-368l-87 -266h408l-21 -64h-482zM380 797l28 84h84l-28 -84h-84zM528 797l28 84h84l-28 -84h-84z" />
    <glyph glyph-name="Edotaccent" unicode="&#x116;" horiz-adv-x="622" 
d="M231 700h472l-21 -64h-398l-79 -242h368l-20 -64h-368l-87 -266h408l-21 -64h-482zM466 818l26 83h78l-26 -83h-78z" />
    <glyph glyph-name="Egrave" unicode="&#xc8;" horiz-adv-x="622" 
d="M231 700h472l-21 -64h-398l-79 -242h368l-20 -64h-368l-87 -266h408l-21 -64h-482zM455 781l-78 121l4 12h91l41 -133h-58z" />
    <glyph glyph-name="Emacron" unicode="&#x112;" horiz-adv-x="622" 
d="M231 700h472l-21 -64h-398l-79 -242h368l-20 -64h-368l-87 -266h408l-21 -64h-482zM379 812l18 58h248l-18 -58h-248z" />
    <glyph glyph-name="Eogonek" unicode="&#x118;" horiz-adv-x="622" 
d="M231 700h472l-21 -64h-398l-79 -242h368l-20 -64h-368l-87 -266h408l-21 -64h-482zM398 -185c-45 0 -72 30 -72 69c0 45 41 92 106 116h53c-55 -25 -96 -65 -96 -97c0 -20 11 -30 32 -30c12 0 25 4 38 11l14 -51c-24 -13 -43 -18 -75 -18z" />
    <glyph glyph-name="F" unicode="F" horiz-adv-x="606" 
d="M231 700h471l-21 -64h-397l-86 -264h367l-21 -64h-367l-100 -308h-74z" />
    <glyph glyph-name="G" unicode="G" horiz-adv-x="808" 
d="M358 -10c-150 0 -272 118 -272 295c-4 243 191 429 440 425c173 0 273 -96 290 -236l-69 -21c-19 132 -95 193 -234 193c-192 3 -356 -147 -353 -356c0 -149 87 -236 216 -236c74 0 138 22 191 67s91 101 113 168h-333l21 64h418l-115 -353h-61l52 158
c-65 -115 -167 -168 -304 -168z" />
    <glyph glyph-name="Gbreve" unicode="&#x11e;" horiz-adv-x="808" 
d="M358 -10c-150 0 -272 118 -272 295c-4 243 191 429 440 425c173 0 273 -96 290 -236l-69 -21c-19 132 -95 193 -234 193c-192 3 -356 -147 -353 -356c0 -149 87 -236 216 -236c74 0 138 22 191 67s91 101 113 168h-333l21 64h418l-115 -353h-61l52 158
c-65 -115 -167 -168 -304 -168zM469 859c0 15 3 29 10 42h59c-5 -11 -8 -21 -8 -31c0 -21 19 -36 47 -36c45 0 74 23 75 67h61c0 -76 -53 -119 -144 -119c-61 0 -99 28 -100 77z" />
    <glyph glyph-name="Gcircumflex" unicode="&#x11c;" horiz-adv-x="808" 
d="M358 -10c-150 0 -272 118 -272 295c-4 243 191 429 440 425c173 0 273 -96 290 -236l-69 -21c-19 132 -95 193 -234 193c-192 3 -356 -147 -353 -356c0 -149 87 -236 216 -236c74 0 138 22 191 67s91 101 113 168h-333l21 64h418l-115 -353h-61l52 158
c-65 -115 -167 -168 -304 -168zM415 781l4 12l147 103h58l81 -103l-4 -12h-73l-42 76l-87 -76h-84z" />
    <glyph glyph-name="Gcommaaccent" unicode="&#x122;" horiz-adv-x="808" 
d="M358 -10c-150 0 -272 118 -272 295c-4 243 191 429 440 425c173 0 273 -96 290 -236l-69 -21c-19 132 -95 193 -234 193c-192 3 -356 -147 -353 -356c0 -149 87 -236 216 -236c74 0 138 22 191 67s91 101 113 168h-333l21 64h418l-115 -353h-61l52 158
c-65 -115 -167 -168 -304 -168zM198 -225l18 30c12 -5 24 -8 35 -8c27 0 47 13 47 37c0 19 -11 28 -32 28h-8l28 86h86l-38 -116c-15 -47 -44 -68 -93 -68c-15 0 -34 4 -43 11z" />
    <glyph glyph-name="Gdotaccent" unicode="&#x120;" horiz-adv-x="808" 
d="M358 -10c-150 0 -272 118 -272 295c-4 243 191 429 440 425c173 0 273 -96 290 -236l-69 -21c-19 132 -95 193 -234 193c-192 3 -356 -147 -353 -356c0 -149 87 -236 216 -236c74 0 138 22 191 67s91 101 113 168h-333l21 64h418l-115 -353h-61l52 158
c-65 -115 -167 -168 -304 -168zM542 818l26 83h78l-26 -83h-78z" />
    <glyph glyph-name="H" unicode="H" horiz-adv-x="728" 
d="M598 313h-419l-102 -313h-74l228 700h74l-105 -323h419l105 323h74l-228 -700h-74z" />
    <glyph glyph-name="Hbar" unicode="&#x126;" horiz-adv-x="728" 
d="M598 313h-419l-102 -313h-74l228 700h74l-105 -323h419l105 323h74l-228 -700h-74zM113 577h724l-19 -58h-724z" />
    <glyph glyph-name="Hcircumflex" unicode="&#x124;" horiz-adv-x="728" 
d="M598 313h-419l-102 -313h-74l228 700h74l-105 -323h419l105 323h74l-228 -700h-74zM387 781l4 12l147 103h58l81 -103l-4 -12h-73l-42 76l-87 -76h-84z" />
    <glyph glyph-name="I" unicode="I" horiz-adv-x="235" 
d="M3 0l228 700h74l-228 -700h-74z" />
    <glyph glyph-name="IJ" unicode="&#x132;" horiz-adv-x="835" 
d="M3 0l228 700h74l-228 -700h-74zM272 168c0 60 26 120 69 163l50 -38c-32 -40 -46 -72 -46 -123c0 -65 49 -116 133 -116c108 0 173 61 218 201l144 445h70l-153 -475c-51 -156 -135 -235 -288 -235c-122 0 -197 81 -197 178z" />
    <glyph glyph-name="Iacute" unicode="&#xcd;" horiz-adv-x="235" 
d="M3 0l228 700h74l-228 -700h-74zM253 782l103 133h100l-4 -12l-134 -121h-65z" />
    <glyph glyph-name="Ibreve" unicode="&#x12c;" horiz-adv-x="235" 
d="M3 0l228 700h74l-228 -700h-74zM194 859c0 15 3 29 10 42h59c-5 -11 -8 -21 -8 -31c0 -21 19 -36 47 -36c45 0 74 23 75 67h61c0 -76 -53 -119 -144 -119c-61 0 -99 28 -100 77z" />
    <glyph glyph-name="Icircumflex" unicode="&#xce;" horiz-adv-x="235" 
d="M3 0l228 700h74l-228 -700h-74zM140 781l4 12l147 103h58l81 -103l-4 -12h-73l-42 76l-87 -76h-84z" />
    <glyph glyph-name="Idieresis" unicode="&#xcf;" horiz-adv-x="235" 
d="M3 0l228 700h74l-228 -700h-74zM181 797l28 84h84l-28 -84h-84zM329 797l28 84h84l-28 -84h-84z" />
    <glyph glyph-name="Idot" unicode="&#x130;" horiz-adv-x="235" 
d="M3 0l228 700h74l-228 -700h-74zM267 818l26 83h78l-26 -83h-78z" />
    <glyph glyph-name="Igrave" unicode="&#xcc;" horiz-adv-x="235" 
d="M3 0l228 700h74l-228 -700h-74zM256 781l-78 121l4 12h91l41 -133h-58z" />
    <glyph glyph-name="Imacron" unicode="&#x12a;" horiz-adv-x="235" 
d="M3 0l228 700h74l-228 -700h-74zM180 812l18 58h248l-18 -58h-248z" />
    <glyph glyph-name="Iogonek" unicode="&#x12e;" horiz-adv-x="235" 
d="M3 0l228 700h74l-228 -700h-74zM-12 -185c-45 0 -72 30 -72 69c0 45 41 92 106 116h53c-55 -25 -96 -65 -96 -97c0 -20 11 -30 32 -30c12 0 25 4 38 11l14 -51c-24 -13 -43 -18 -75 -18z" />
    <glyph glyph-name="Itilde" unicode="&#x128;" horiz-adv-x="235" 
d="M3 0l228 700h74l-228 -700h-74zM201 789l-49 6c3 55 48 98 105 98c31 0 47 -11 70 -31c20 -16 31 -23 48 -23c28 0 47 23 52 54l49 -6c-7 -56 -49 -98 -105 -98c-31 0 -47 11 -70 31c-20 16 -31 23 -48 23c-28 0 -49 -23 -52 -54z" />
    <glyph glyph-name="J" unicode="J" horiz-adv-x="600" 
d="M37 168c0 60 26 120 69 163l50 -38c-32 -40 -46 -72 -46 -123c0 -65 49 -116 133 -116c108 0 173 61 218 201l144 445h70l-153 -475c-51 -156 -135 -235 -288 -235c-122 0 -197 81 -197 178z" />
    <glyph glyph-name="Jcircumflex" unicode="&#x134;" horiz-adv-x="600" 
d="M37 168c0 60 26 120 69 163l50 -38c-32 -40 -46 -72 -46 -123c0 -65 49 -116 133 -116c108 0 173 61 218 201l144 445h70l-153 -475c-51 -156 -135 -235 -288 -235c-122 0 -197 81 -197 178zM512 781l4 12l147 103h58l81 -103l-4 -12h-73l-42 76l-87 -76h-84z" />
    <glyph glyph-name="K" unicode="K" horiz-adv-x="651" 
d="M420 427l128 -427h-75l-114 377l-219 -172l-67 -205h-70l228 700h70l-127 -392l489 392h102z" />
    <glyph glyph-name="Kcommaaccent" unicode="&#x136;" horiz-adv-x="651" 
d="M420 427l128 -427h-75l-114 377l-219 -172l-67 -205h-70l228 700h70l-127 -392l489 392h102zM122 -225l18 30c12 -5 24 -8 35 -8c27 0 47 13 47 37c0 19 -11 28 -32 28h-8l28 86h86l-38 -116c-15 -47 -44 -68 -93 -68c-15 0 -34 4 -43 11z" />
    <glyph glyph-name="L" unicode="L" horiz-adv-x="630" 
d="M231 700h74l-207 -636h434l-21 -64h-508z" />
    <glyph glyph-name="Lacute" unicode="&#x139;" horiz-adv-x="630" 
d="M231 700h74l-207 -636h434l-21 -64h-508zM251 782l103 133h100l-4 -12l-134 -121h-65z" />
    <glyph glyph-name="Lcaron" unicode="&#x13d;" horiz-adv-x="630" 
d="M231 700h74l-207 -636h434l-21 -64h-508zM574 512l14 43h27c28 0 44 12 44 33c0 17 -9 26 -28 26h-6l28 86h86l-37 -111c-20 -60 -48 -77 -99 -77h-29z" />
    <glyph glyph-name="Lcommaaccent" unicode="&#x13b;" horiz-adv-x="630" 
d="M231 700h74l-207 -636h434l-21 -64h-508zM99 -225l18 30c12 -5 24 -8 35 -8c27 0 47 13 47 37c0 19 -11 28 -32 28h-8l28 86h86l-38 -116c-15 -47 -44 -68 -93 -68c-15 0 -34 4 -43 11z" />
    <glyph glyph-name="Ldot" unicode="&#x13f;" horiz-adv-x="630" 
d="M231 700h74l-207 -636h434l-21 -64h-508zM421 393h86l-28 -86h-86z" />
    <glyph glyph-name="Lslash" unicode="&#x141;" horiz-adv-x="630" 
d="M231 700h74l-207 -636h434l-21 -64h-508zM37 265l-22 50l332 151l21 -48z" />
    <glyph glyph-name="M" unicode="M" horiz-adv-x="940" 
d="M782 0h-70l217 666l-485 -666h-103l-51 666l-217 -666h-70l228 700h126l47 -651l469 651h137z" />
    <glyph glyph-name="N" unicode="N" horiz-adv-x="759" 
d="M290 655l-213 -655h-74l228 700h113l198 -655l213 655h74l-228 -700h-113z" />
    <glyph glyph-name="Nacute" unicode="&#x143;" horiz-adv-x="759" 
d="M290 655l-213 -655h-74l228 700h113l198 -655l213 655h74l-228 -700h-113zM515 782l103 133h100l-4 -12l-134 -121h-65z" />
    <glyph glyph-name="Ncaron" unicode="&#x147;" horiz-adv-x="759" 
d="M290 655l-213 -655h-74l228 700h113l198 -655l213 655h74l-228 -700h-113zM518 781l-81 103l4 12h71l44 -76l84 76h87l-4 -12l-144 -103h-61z" />
    <glyph glyph-name="Ncommaaccent" unicode="&#x145;" horiz-adv-x="759" 
d="M290 655l-213 -655h-74l228 700h113l198 -655l213 655h74l-228 -700h-113zM155 -225l18 30c12 -5 24 -8 35 -8c27 0 47 13 47 37c0 19 -11 28 -32 28h-8l28 86h86l-38 -116c-15 -47 -44 -68 -93 -68c-15 0 -34 4 -43 11z" />
    <glyph glyph-name="Eng" unicode="&#x14a;" horiz-adv-x="759" 
d="M256 -92l66 23c3 -50 27 -75 72 -75c55 0 99 35 119 100l14 44h-39l-198 655l-213 -655h-74l228 700h113l198 -655l213 655h74l-244 -749c-35 -109 -100 -159 -208 -159c-68 0 -120 48 -121 116z" />
    <glyph glyph-name="Ntilde" unicode="&#xd1;" horiz-adv-x="759" 
d="M290 655l-213 -655h-74l228 700h113l198 -655l213 655h74l-228 -700h-113zM463 789l-49 6c3 55 48 98 105 98c31 0 47 -11 70 -31c20 -16 31 -23 48 -23c28 0 47 23 52 54l49 -6c-7 -56 -49 -98 -105 -98c-31 0 -47 11 -70 31c-20 16 -31 23 -48 23
c-28 0 -49 -23 -52 -54z" />
    <glyph glyph-name="O" unicode="O" horiz-adv-x="850" 
d="M86 291c-4 219 186 423 456 419c181 0 296 -122 296 -299c4 -219 -186 -425 -456 -421c-176 0 -296 123 -296 301zM764 407c0 151 -91 239 -239 239c-209 4 -369 -170 -365 -351c0 -152 94 -241 239 -241c207 -5 369 173 365 353z" />
    <glyph glyph-name="Oacute" unicode="&#xd3;" horiz-adv-x="850" 
d="M86 291c-4 219 186 423 456 419c181 0 296 -122 296 -299c4 -219 -186 -425 -456 -421c-176 0 -296 123 -296 301zM764 407c0 151 -91 239 -239 239c-209 4 -369 -170 -365 -351c0 -152 94 -241 239 -241c207 -5 369 173 365 353zM529 782l103 133h100l-4 -12l-134 -121
h-65z" />
    <glyph glyph-name="Obreve" unicode="&#x14e;" horiz-adv-x="850" 
d="M86 291c-4 219 186 423 456 419c181 0 296 -122 296 -299c4 -219 -186 -425 -456 -421c-176 0 -296 123 -296 301zM764 407c0 151 -91 239 -239 239c-209 4 -369 -170 -365 -351c0 -152 94 -241 239 -241c207 -5 369 173 365 353zM470 859c0 15 3 29 10 42h59
c-5 -11 -8 -21 -8 -31c0 -21 19 -36 47 -36c45 0 74 23 75 67h61c0 -76 -53 -119 -144 -119c-61 0 -99 28 -100 77z" />
    <glyph glyph-name="Ocircumflex" unicode="&#xd4;" horiz-adv-x="850" 
d="M86 291c-4 219 186 423 456 419c181 0 296 -122 296 -299c4 -219 -186 -425 -456 -421c-176 0 -296 123 -296 301zM764 407c0 151 -91 239 -239 239c-209 4 -369 -170 -365 -351c0 -152 94 -241 239 -241c207 -5 369 173 365 353zM416 781l4 12l147 103h58l81 -103
l-4 -12h-73l-42 76l-87 -76h-84z" />
    <glyph glyph-name="Odieresis" unicode="&#xd6;" horiz-adv-x="850" 
d="M86 291c-4 219 186 423 456 419c181 0 296 -122 296 -299c4 -219 -186 -425 -456 -421c-176 0 -296 123 -296 301zM764 407c0 151 -91 239 -239 239c-209 4 -369 -170 -365 -351c0 -152 94 -241 239 -241c207 -5 369 173 365 353zM458 797l28 84h84l-28 -84h-84zM606 797
l28 84h84l-28 -84h-84z" />
    <glyph glyph-name="Ograve" unicode="&#xd2;" horiz-adv-x="850" 
d="M86 291c-4 219 186 423 456 419c181 0 296 -122 296 -299c4 -219 -186 -425 -456 -421c-176 0 -296 123 -296 301zM764 407c0 151 -91 239 -239 239c-209 4 -369 -170 -365 -351c0 -152 94 -241 239 -241c207 -5 369 173 365 353zM532 781l-78 121l4 12h91l41 -133h-58z
" />
    <glyph glyph-name="Ohungarumlaut" unicode="&#x150;" horiz-adv-x="850" 
d="M86 291c-4 219 186 423 456 419c181 0 296 -122 296 -299c4 -219 -186 -425 -456 -421c-176 0 -296 123 -296 301zM764 407c0 151 -91 239 -239 239c-209 4 -369 -170 -365 -351c0 -152 94 -241 239 -241c207 -5 369 173 365 353zM442 781l103 133h100l-4 -12l-134 -121
h-65zM604 781l103 133h100l-4 -12l-134 -121h-65z" />
    <glyph glyph-name="Omacron" unicode="&#x14c;" horiz-adv-x="850" 
d="M86 291c-4 219 186 423 456 419c181 0 296 -122 296 -299c4 -219 -186 -425 -456 -421c-176 0 -296 123 -296 301zM764 407c0 151 -91 239 -239 239c-209 4 -369 -170 -365 -351c0 -152 94 -241 239 -241c207 -5 369 173 365 353zM456 812l18 58h248l-18 -58h-248z" />
    <glyph glyph-name="Oslash" unicode="&#xd8;" horiz-adv-x="850" 
d="M86 291c-4 219 186 423 456 419c181 0 296 -122 296 -299c4 -219 -186 -425 -456 -421c-176 0 -296 123 -296 301zM764 407c0 151 -91 239 -239 239c-209 4 -369 -170 -365 -351c0 -152 94 -241 239 -241c207 -5 369 173 365 353zM117 -19l-43 46l733 692l43 -46z" />
    <glyph glyph-name="Otilde" unicode="&#xd5;" horiz-adv-x="850" 
d="M86 291c-4 219 186 423 456 419c181 0 296 -122 296 -299c4 -219 -186 -425 -456 -421c-176 0 -296 123 -296 301zM764 407c0 151 -91 239 -239 239c-209 4 -369 -170 -365 -351c0 -152 94 -241 239 -241c207 -5 369 173 365 353zM477 789l-49 6c3 55 48 98 105 98
c31 0 47 -11 70 -31c20 -16 31 -23 48 -23c28 0 47 23 52 54l49 -6c-7 -56 -49 -98 -105 -98c-31 0 -47 11 -70 31c-20 16 -31 23 -48 23c-28 0 -49 -23 -52 -54z" />
    <glyph glyph-name="OE" unicode="&#x152;" horiz-adv-x="1265" 
d="M83 281c-4 225 193 434 456 429c69 0 128 -18 177 -54c49 -35 82 -83 97 -143l61 187h472l-21 -64h-398l-79 -242h368l-20 -64h-368l-87 -266h408l-21 -64h-482l39 118c-65 -85 -177 -128 -306 -128c-179 0 -296 120 -296 291zM764 415c0 145 -94 231 -242 231
c-205 4 -369 -175 -365 -361c0 -145 91 -231 239 -231c209 -4 371 175 368 361z" />
    <glyph glyph-name="P" unicode="P" horiz-adv-x="667" 
d="M3 0l228 700h278c107 0 186 -72 186 -173c0 -136 -102 -229 -295 -229h-226l-97 -298h-74zM195 362h220c123 0 204 54 204 157c0 73 -48 117 -125 117h-210z" />
    <glyph glyph-name="Thorn" unicode="&#xde;" horiz-adv-x="667" 
d="M3 0l227 700h74l-48 -149h202c119 0 188 -77 188 -172c0 -147 -111 -230 -302 -230h-219l-48 -149h-74zM146 213h210c137 0 214 53 214 161c0 71 -46 113 -125 113h-210z" />
    <glyph glyph-name="Q" unicode="Q" horiz-adv-x="850" 
d="M537 13c4 -42 29 -63 76 -63c30 0 58 9 84 28l20 -60c-34 -19 -73 -28 -116 -28c-71 0 -126 43 -131 107c-26 -5 -55 -7 -88 -7c-176 0 -296 123 -296 301c-4 219 186 423 456 419c181 0 296 -122 296 -299c2 -174 -117 -344 -301 -398zM764 407c0 151 -91 239 -239 239
c-209 4 -369 -170 -365 -351c0 -85 29 -152 82 -192c-7 15 -10 32 -10 49c0 101 70 164 183 164c91 0 152 -54 152 -142c0 -29 -5 -58 -16 -89c65 29 116 72 155 131s58 123 58 191zM484 84c11 29 17 52 17 85c0 57 -35 89 -98 89s-109 -45 -109 -106c0 -57 37 -98 106 -98
c26 0 52 3 77 8c3 9 6 15 7 22z" />
    <glyph glyph-name="R" unicode="R" horiz-adv-x="663" 
d="M3 0l228 700h267c115 0 191 -71 191 -170c0 -111 -76 -184 -188 -203c44 -16 64 -44 64 -93c0 -20 -5 -45 -14 -75c-16 -53 -22 -78 -22 -102c0 -15 5 -30 14 -45l-4 -12h-72c-7 18 -10 35 -10 50c0 27 6 58 18 93c11 32 16 57 16 75c0 61 -38 86 -115 86h-200l-99 -304
h-74zM197 368h222c121 0 192 60 192 157c0 69 -46 111 -127 111h-200z" />
    <glyph glyph-name="Racute" unicode="&#x154;" horiz-adv-x="663" 
d="M3 0l228 700h267c115 0 191 -71 191 -170c0 -111 -76 -184 -188 -203c44 -16 64 -44 64 -93c0 -20 -5 -45 -14 -75c-16 -53 -22 -78 -22 -102c0 -15 5 -30 14 -45l-4 -12h-72c-7 18 -10 35 -10 50c0 27 6 58 18 93c11 32 16 57 16 75c0 61 -38 86 -115 86h-200l-99 -304
h-74zM197 368h222c121 0 192 60 192 157c0 69 -46 111 -127 111h-200zM430 782l103 133h100l-4 -12l-134 -121h-65z" />
    <glyph glyph-name="Rcaron" unicode="&#x158;" horiz-adv-x="663" 
d="M3 0l228 700h267c115 0 191 -71 191 -170c0 -111 -76 -184 -188 -203c44 -16 64 -44 64 -93c0 -20 -5 -45 -14 -75c-16 -53 -22 -78 -22 -102c0 -15 5 -30 14 -45l-4 -12h-72c-7 18 -10 35 -10 50c0 27 6 58 18 93c11 32 16 57 16 75c0 61 -38 86 -115 86h-200l-99 -304
h-74zM197 368h222c121 0 192 60 192 157c0 69 -46 111 -127 111h-200zM433 781l-81 103l4 12h71l44 -76l84 76h87l-4 -12l-144 -103h-61z" />
    <glyph glyph-name="Rcommaaccent" unicode="&#x156;" horiz-adv-x="663" 
d="M3 0l228 700h267c115 0 191 -71 191 -170c0 -111 -76 -184 -188 -203c44 -16 64 -44 64 -93c0 -20 -5 -45 -14 -75c-16 -53 -22 -78 -22 -102c0 -15 5 -30 14 -45l-4 -12h-72c-7 18 -10 35 -10 50c0 27 6 58 18 93c11 32 16 57 16 75c0 61 -38 86 -115 86h-200l-99 -304
h-74zM197 368h222c121 0 192 60 192 157c0 69 -46 111 -127 111h-200zM124 -225l18 30c12 -5 24 -8 35 -8c27 0 47 13 47 37c0 19 -11 28 -32 28h-8l28 86h86l-38 -116c-15 -47 -44 -68 -93 -68c-15 0 -34 4 -43 11z" />
    <glyph glyph-name="S" unicode="S" horiz-adv-x="643" 
d="M417 646c-88 0 -168 -50 -168 -129c0 -74 53 -96 156 -125c117 -31 178 -78 178 -185c0 -132 -117 -217 -296 -217c-159 0 -249 95 -253 242l71 16c0 -125 70 -194 191 -194c123 0 213 59 213 146c0 81 -45 108 -168 143c-103 29 -164 74 -164 170c0 113 103 197 257 197
c129 0 213 -64 222 -180l-71 -12c-5 87 -69 128 -168 128z" />
    <glyph glyph-name="Sacute" unicode="&#x15a;" horiz-adv-x="643" 
d="M417 646c-88 0 -168 -50 -168 -129c0 -74 53 -96 156 -125c117 -31 178 -78 178 -185c0 -132 -117 -217 -296 -217c-159 0 -249 95 -253 242l71 16c0 -125 70 -194 191 -194c123 0 213 59 213 146c0 81 -45 108 -168 143c-103 29 -164 74 -164 170c0 113 103 197 257 197
c129 0 213 -64 222 -180l-71 -12c-5 87 -69 128 -168 128zM435 782l103 133h100l-4 -12l-134 -121h-65z" />
    <glyph glyph-name="Scaron" unicode="&#x160;" horiz-adv-x="643" 
d="M417 646c-88 0 -168 -50 -168 -129c0 -74 53 -96 156 -125c117 -31 178 -78 178 -185c0 -132 -117 -217 -296 -217c-159 0 -249 95 -253 242l71 16c0 -125 70 -194 191 -194c123 0 213 59 213 146c0 81 -45 108 -168 143c-103 29 -164 74 -164 170c0 113 103 197 257 197
c129 0 213 -64 222 -180l-71 -12c-5 87 -69 128 -168 128zM438 781l-81 103l4 12h71l44 -76l84 76h87l-4 -12l-144 -103h-61z" />
    <glyph glyph-name="Scedilla" unicode="&#x15e;" horiz-adv-x="643" 
d="M417 646c-88 0 -168 -50 -168 -129c0 -74 53 -96 156 -125c117 -31 178 -78 178 -185c0 -132 -117 -217 -296 -217c-159 0 -249 95 -253 242l71 16c0 -125 70 -194 191 -194c123 0 213 59 213 146c0 81 -45 108 -168 143c-103 29 -164 74 -164 170c0 113 103 197 257 197
c129 0 213 -64 222 -180l-71 -12c-5 87 -69 128 -168 128zM175 -120l40 9c3 -23 21 -39 46 -39c35 0 53 20 53 49c0 21 -13 38 -36 38c-19 0 -35 -9 -47 -27l-39 18c14 19 30 48 49 88h45l-15 -24c-12 -20 -23 -36 -33 -47c16 17 34 25 55 25c33 0 61 -25 61 -65
c0 -55 -36 -93 -99 -93c-41 0 -76 28 -80 68z" />
    <glyph glyph-name="Scircumflex" unicode="&#x15c;" horiz-adv-x="643" 
d="M417 646c-88 0 -168 -50 -168 -129c0 -74 53 -96 156 -125c117 -31 178 -78 178 -185c0 -132 -117 -217 -296 -217c-159 0 -249 95 -253 242l71 16c0 -125 70 -194 191 -194c123 0 213 59 213 146c0 81 -45 108 -168 143c-103 29 -164 74 -164 170c0 113 103 197 257 197
c129 0 213 -64 222 -180l-71 -12c-5 87 -69 128 -168 128zM322 781l4 12l147 103h58l81 -103l-4 -12h-73l-42 76l-87 -76h-84z" />
    <glyph glyph-name="Scommaaccent" unicode="&#x218;" horiz-adv-x="643" 
d="M417 646c-88 0 -168 -50 -168 -129c0 -74 53 -96 156 -125c117 -31 178 -78 178 -185c0 -132 -117 -217 -296 -217c-159 0 -249 95 -253 242l71 16c0 -125 70 -194 191 -194c123 0 213 59 213 146c0 81 -45 108 -168 143c-103 29 -164 74 -164 170c0 113 103 197 257 197
c129 0 213 -64 222 -180l-71 -12c-5 87 -69 128 -168 128zM109 -225l18 30c12 -5 24 -8 35 -8c27 0 47 13 47 37c0 19 -11 28 -32 28h-8l28 86h86l-38 -116c-15 -47 -44 -68 -93 -68c-15 0 -34 4 -43 11z" />
    <glyph glyph-name="uni1E9E" unicode="&#x1e9e;" horiz-adv-x="688" 
d="M157 127l61 25c12 -59 64 -98 151 -98c103 0 186 68 186 179c0 80 -49 127 -125 127c-41 0 -75 -9 -100 -27l-33 46l331 257h-192c-104 0 -168 -51 -203 -156l-156 -480h-74l159 489c44 136 139 211 288 211h295l-20 -64l-282 -216c5 1 12 2 21 2c94 0 163 -80 163 -182
c0 -154 -117 -250 -270 -250c-109 0 -184 60 -200 137z" />
    <glyph glyph-name="T" unicode="T" horiz-adv-x="667" 
d="M783 700l-21 -64h-262l-207 -636h-74l207 636h-262l21 64h598z" />
    <glyph glyph-name="Tbar" unicode="&#x166;" horiz-adv-x="667" 
d="M783 700l-21 -64h-262l-207 -636h-74l207 636h-262l21 64h598zM202 379h354l-18 -58h-354z" />
    <glyph glyph-name="Tcaron" unicode="&#x164;" horiz-adv-x="667" 
d="M783 700l-21 -64h-262l-207 -636h-74l207 636h-262l21 64h598zM472 781l-81 103l4 12h71l44 -76l84 76h87l-4 -12l-144 -103h-61z" />
    <glyph glyph-name="uni0162" unicode="&#x162;" horiz-adv-x="667" 
d="M783 700l-21 -64h-262l-207 -636h-74l207 636h-262l21 64h598zM174 -120l40 9c3 -23 21 -39 46 -39c35 0 53 20 53 49c0 21 -13 38 -36 38c-19 0 -35 -9 -47 -27l-39 18c14 19 30 48 49 88h45l-15 -24c-12 -20 -23 -36 -33 -47c16 17 34 25 55 25c33 0 61 -25 61 -65
c0 -55 -36 -93 -99 -93c-41 0 -76 28 -80 68z" />
    <glyph glyph-name="uni021A" unicode="&#x21a;" horiz-adv-x="667" 
d="M783 700l-21 -64h-262l-207 -636h-74l207 636h-262l21 64h598zM108 -225l18 30c12 -5 24 -8 35 -8c27 0 47 13 47 37c0 19 -11 28 -32 28h-8l28 86h86l-38 -116c-15 -47 -44 -68 -93 -68c-15 0 -34 4 -43 11z" />
    <glyph glyph-name="U" unicode="U" horiz-adv-x="718" 
d="M78 193c0 39 6 78 19 116l127 391h74l-132 -408c-11 -33 -16 -66 -16 -100c0 -84 62 -138 167 -138c125 0 223 87 268 228l135 418h74l-138 -427c-63 -193 -187 -283 -351 -283c-139 0 -227 79 -227 203z" />
    <glyph glyph-name="Uacute" unicode="&#xda;" horiz-adv-x="718" 
d="M78 193c0 39 6 78 19 116l127 391h74l-132 -408c-11 -33 -16 -66 -16 -100c0 -84 62 -138 167 -138c125 0 223 87 268 228l135 418h74l-138 -427c-63 -193 -187 -283 -351 -283c-139 0 -227 79 -227 203zM488 782l103 133h100l-4 -12l-134 -121h-65z" />
    <glyph glyph-name="Ubreve" unicode="&#x16c;" horiz-adv-x="718" 
d="M78 193c0 39 6 78 19 116l127 391h74l-132 -408c-11 -33 -16 -66 -16 -100c0 -84 62 -138 167 -138c125 0 223 87 268 228l135 418h74l-138 -427c-63 -193 -187 -283 -351 -283c-139 0 -227 79 -227 203zM429 859c0 15 3 29 10 42h59c-5 -11 -8 -21 -8 -31
c0 -21 19 -36 47 -36c45 0 74 23 75 67h61c0 -76 -53 -119 -144 -119c-61 0 -99 28 -100 77z" />
    <glyph glyph-name="Ucircumflex" unicode="&#xdb;" horiz-adv-x="718" 
d="M78 193c0 39 6 78 19 116l127 391h74l-132 -408c-11 -33 -16 -66 -16 -100c0 -84 62 -138 167 -138c125 0 223 87 268 228l135 418h74l-138 -427c-63 -193 -187 -283 -351 -283c-139 0 -227 79 -227 203zM375 781l4 12l147 103h58l81 -103l-4 -12h-73l-42 76l-87 -76h-84
z" />
    <glyph glyph-name="Udieresis" unicode="&#xdc;" horiz-adv-x="718" 
d="M78 193c0 39 6 78 19 116l127 391h74l-132 -408c-11 -33 -16 -66 -16 -100c0 -84 62 -138 167 -138c125 0 223 87 268 228l135 418h74l-138 -427c-63 -193 -187 -283 -351 -283c-139 0 -227 79 -227 203zM417 797l28 84h84l-28 -84h-84zM565 797l28 84h84l-28 -84h-84z
" />
    <glyph glyph-name="Ugrave" unicode="&#xd9;" horiz-adv-x="718" 
d="M78 193c0 39 6 78 19 116l127 391h74l-132 -408c-11 -33 -16 -66 -16 -100c0 -84 62 -138 167 -138c125 0 223 87 268 228l135 418h74l-138 -427c-63 -193 -187 -283 -351 -283c-139 0 -227 79 -227 203zM491 781l-78 121l4 12h91l41 -133h-58z" />
    <glyph glyph-name="Uhungarumlaut" unicode="&#x170;" horiz-adv-x="718" 
d="M78 193c0 39 6 78 19 116l127 391h74l-132 -408c-11 -33 -16 -66 -16 -100c0 -84 62 -138 167 -138c125 0 223 87 268 228l135 418h74l-138 -427c-63 -193 -187 -283 -351 -283c-139 0 -227 79 -227 203zM401 781l103 133h100l-4 -12l-134 -121h-65zM563 781l103 133h100
l-4 -12l-134 -121h-65z" />
    <glyph glyph-name="Umacron" unicode="&#x16a;" horiz-adv-x="718" 
d="M78 193c0 39 6 78 19 116l127 391h74l-132 -408c-11 -33 -16 -66 -16 -100c0 -84 62 -138 167 -138c125 0 223 87 268 228l135 418h74l-138 -427c-63 -193 -187 -283 -351 -283c-139 0 -227 79 -227 203zM415 812l18 58h248l-18 -58h-248z" />
    <glyph glyph-name="Uogonek" unicode="&#x172;" horiz-adv-x="718" 
d="M78 193c0 39 6 78 19 116l127 391h74l-132 -408c-11 -33 -16 -66 -16 -100c0 -84 62 -138 167 -138c125 0 223 87 268 228l135 418h74l-138 -427c-63 -193 -187 -283 -351 -283c-139 0 -227 79 -227 203zM257 -185c-45 0 -72 30 -72 69c0 45 41 92 106 116h53
c-55 -25 -96 -65 -96 -97c0 -20 11 -30 32 -30c12 0 25 4 38 11l14 -51c-24 -13 -43 -18 -75 -18z" />
    <glyph glyph-name="Uring" unicode="&#x16e;" horiz-adv-x="718" 
d="M78 193c0 39 6 78 19 116l127 391h74l-132 -408c-11 -33 -16 -66 -16 -100c0 -84 62 -138 167 -138c125 0 223 87 268 228l135 418h74l-138 -427c-63 -193 -187 -283 -351 -283c-139 0 -227 79 -227 203zM458 853c0 47 36 83 83 83s83 -36 83 -83c0 -45 -36 -83 -83 -83
s-83 38 -83 83zM584 853c0 24 -19 43 -43 43s-43 -19 -43 -43s19 -43 43 -43s43 19 43 43z" />
    <glyph glyph-name="Utilde" unicode="&#x168;" horiz-adv-x="718" 
d="M78 193c0 39 6 78 19 116l127 391h74l-132 -408c-11 -33 -16 -66 -16 -100c0 -84 62 -138 167 -138c125 0 223 87 268 228l135 418h74l-138 -427c-63 -193 -187 -283 -351 -283c-139 0 -227 79 -227 203zM436 789l-49 6c3 55 48 98 105 98c31 0 47 -11 70 -31
c20 -16 31 -23 48 -23c28 0 47 23 52 54l49 -6c-7 -56 -49 -98 -105 -98c-31 0 -47 11 -70 31c-20 16 -31 23 -48 23c-28 0 -49 -23 -52 -54z" />
    <glyph glyph-name="V" unicode="V" horiz-adv-x="704" 
d="M288 61l470 639h84l-519 -700h-98l-63 700h72z" />
    <glyph glyph-name="W" unicode="W" horiz-adv-x="968" 
d="M110 0l54 700h75l-57 -658l388 658h122l-40 -658l375 658h77l-402 -700h-121l40 655l-388 -655h-123z" />
    <glyph glyph-name="Wacute" unicode="&#x1e82;" horiz-adv-x="968" 
d="M110 0l54 700h75l-57 -658l388 658h122l-40 -658l375 658h77l-402 -700h-121l40 655l-388 -655h-123zM619 782l103 133h100l-4 -12l-134 -121h-65z" />
    <glyph glyph-name="Wcircumflex" unicode="&#x174;" horiz-adv-x="968" 
d="M110 0l54 700h75l-57 -658l388 658h122l-40 -658l375 658h77l-402 -700h-121l40 655l-388 -655h-123zM506 781l4 12l147 103h58l81 -103l-4 -12h-73l-42 76l-87 -76h-84z" />
    <glyph glyph-name="Wdieresis" unicode="&#x1e84;" horiz-adv-x="968" 
d="M110 0l54 700h75l-57 -658l388 658h122l-40 -658l375 658h77l-402 -700h-121l40 655l-388 -655h-123zM547 797l28 84h84l-28 -84h-84zM695 797l28 84h84l-28 -84h-84z" />
    <glyph glyph-name="Wgrave" unicode="&#x1e80;" horiz-adv-x="968" 
d="M110 0l54 700h75l-57 -658l388 658h122l-40 -658l375 658h77l-402 -700h-121l40 655l-388 -655h-123zM622 781l-78 121l4 12h91l41 -133h-58z" />
    <glyph glyph-name="X" unicode="X" horiz-adv-x="652" 
d="M-57 0l390 394l-122 306h75l103 -264l269 264h91l-334 -327l140 -373h-75l-121 327l-322 -327h-94z" />
    <glyph glyph-name="Y" unicode="Y" horiz-adv-x="646" 
d="M208 0l96 296l-138 404h72l116 -343l333 343h93l-403 -408l-95 -292h-74z" />
    <glyph glyph-name="Yacute" unicode="&#xdd;" horiz-adv-x="646" 
d="M208 0l96 296l-138 404h72l116 -343l333 343h93l-403 -408l-95 -292h-74zM445 782l103 133h100l-4 -12l-134 -121h-65z" />
    <glyph glyph-name="Ycircumflex" unicode="&#x176;" horiz-adv-x="646" 
d="M208 0l96 296l-138 404h72l116 -343l333 343h93l-403 -408l-95 -292h-74zM332 781l4 12l147 103h58l81 -103l-4 -12h-73l-42 76l-87 -76h-84z" />
    <glyph glyph-name="Ydieresis" unicode="&#x178;" horiz-adv-x="646" 
d="M208 0l96 296l-138 404h72l116 -343l333 343h93l-403 -408l-95 -292h-74zM374 797l28 84h84l-28 -84h-84zM522 797l28 84h84l-28 -84h-84z" />
    <glyph glyph-name="Ygrave" unicode="&#x1ef2;" horiz-adv-x="646" 
d="M208 0l96 296l-138 404h72l116 -343l333 343h93l-403 -408l-95 -292h-74zM448 781l-78 121l4 12h91l41 -133h-58z" />
    <glyph glyph-name="Z" unicode="Z" horiz-adv-x="695" 
d="M-1 64l668 572h-477l21 64h575l-21 -64l-668 -572h487l-21 -64h-585z" />
    <glyph glyph-name="Zacute" unicode="&#x179;" horiz-adv-x="695" 
d="M-1 64l668 572h-477l21 64h575l-21 -64l-668 -572h487l-21 -64h-585zM482 782l103 133h100l-4 -12l-134 -121h-65z" />
    <glyph glyph-name="Zcaron" unicode="&#x17d;" horiz-adv-x="695" 
d="M-1 64l668 572h-477l21 64h575l-21 -64l-668 -572h487l-21 -64h-585zM485 781l-81 103l4 12h71l44 -76l84 76h87l-4 -12l-144 -103h-61z" />
    <glyph glyph-name="Zdotaccent" unicode="&#x17b;" horiz-adv-x="695" 
d="M-1 64l668 572h-477l21 64h575l-21 -64l-668 -572h487l-21 -64h-585zM496 818l26 83h78l-26 -83h-78z" />
    <glyph glyph-name="uni01B5" unicode="&#x1b5;" horiz-adv-x="695" 
d="M786 700l-21 -64l-300 -257h175l-19 -58h-224l-300 -257h487l-21 -64h-585l21 64l300 257h-152l19 58h201l300 257h-477l21 64h575z" />
    <glyph glyph-name="Adieresis.ss01" horiz-adv-x="724" 
d="M563 0l-18 188h-384l-140 -188h-84l527 700h98l71 -700h-70zM208 252h331l-38 394zM416 839c0 25 20 45 45 45s45 -20 45 -45s-20 -45 -45 -45s-45 20 -45 45zM568 839c0 25 20 45 45 45s45 -20 45 -45s-20 -45 -45 -45s-45 20 -45 45z" />
    <glyph glyph-name="Cdotaccent.ss01" horiz-adv-x="794" 
d="M88 292c-4 226 171 422 435 418c163 0 261 -99 271 -231l-64 -18c-15 119 -87 185 -214 185c-212 3 -357 -158 -354 -348c0 -148 98 -244 228 -244c164 0 263 76 315 231l63 -24c-56 -172 -187 -271 -387 -271c-166 0 -293 121 -293 302zM576 892c27 0 46 -19 46 -46
c0 -25 -19 -46 -46 -46c-25 0 -46 21 -46 46c0 27 21 46 46 46z" />
    <glyph glyph-name="Edieresis.ss01" horiz-adv-x="622" 
d="M231 700h472l-21 -64h-398l-79 -242h368l-20 -64h-368l-87 -266h408l-21 -64h-482zM371 839c0 25 20 45 45 45s45 -20 45 -45s-20 -45 -45 -45s-45 20 -45 45zM523 839c0 25 20 45 45 45s45 -20 45 -45s-20 -45 -45 -45s-45 20 -45 45z" />
    <glyph glyph-name="Edotaccent.ss01" horiz-adv-x="622" 
d="M231 700h472l-21 -64h-398l-79 -242h368l-20 -64h-368l-87 -266h408l-21 -64h-482zM508 892c27 0 46 -19 46 -46c0 -25 -19 -46 -46 -46c-25 0 -46 21 -46 46c0 27 21 46 46 46z" />
    <glyph glyph-name="Gcommaaccent.ss01" horiz-adv-x="808" 
d="M358 -10c-150 0 -272 118 -272 295c-4 243 191 429 440 425c173 0 273 -96 290 -236l-69 -21c-19 132 -95 193 -234 193c-192 3 -356 -147 -353 -356c0 -149 87 -236 216 -236c74 0 138 22 191 67s91 101 113 168h-333l21 64h418l-115 -353h-61l52 158
c-65 -115 -167 -168 -304 -168zM213 -229l16 30c8 -5 18 -8 30 -8c29 0 50 16 50 37c0 12 -5 18 -18 27c-12 8 -22 22 -22 42c0 31 21 54 52 54c29 0 48 -20 48 -47c0 -7 -1 -13 -3 -20l-16 -48c-20 -60 -47 -78 -94 -78c-18 0 -32 4 -43 11z" />
    <glyph glyph-name="Gdotaccent.ss01" horiz-adv-x="808" 
d="M358 -10c-150 0 -272 118 -272 295c-4 243 191 429 440 425c173 0 273 -96 290 -236l-69 -21c-19 132 -95 193 -234 193c-192 3 -356 -147 -353 -356c0 -149 87 -236 216 -236c74 0 138 22 191 67s91 101 113 168h-333l21 64h418l-115 -353h-61l52 158
c-65 -115 -167 -168 -304 -168zM584 892c27 0 46 -19 46 -46c0 -25 -19 -46 -46 -46c-25 0 -46 21 -46 46c0 27 21 46 46 46z" />
    <glyph glyph-name="Idieresis.ss01" horiz-adv-x="235" 
d="M3 0l228 700h74l-228 -700h-74zM172 839c0 25 20 45 45 45s45 -20 45 -45s-20 -45 -45 -45s-45 20 -45 45zM324 839c0 25 20 45 45 45s45 -20 45 -45s-20 -45 -45 -45s-45 20 -45 45z" />
    <glyph glyph-name="Idotaccent.ss01" horiz-adv-x="235" 
d="M3 0l228 700h74l-228 -700h-74zM309 892c27 0 46 -19 46 -46c0 -25 -19 -46 -46 -46c-25 0 -46 21 -46 46c0 27 21 46 46 46z" />
    <glyph glyph-name="Kcommaaccent.ss01" horiz-adv-x="651" 
d="M420 427l128 -427h-75l-114 377l-219 -172l-67 -205h-70l228 700h70l-127 -392l489 392h102zM137 -229l16 30c8 -5 18 -8 30 -8c29 0 50 16 50 37c0 12 -5 18 -18 27c-12 8 -22 22 -22 42c0 31 21 54 52 54c29 0 48 -20 48 -47c0 -7 -1 -13 -3 -20l-16 -48
c-20 -60 -47 -78 -94 -78c-18 0 -32 4 -43 11z" />
    <glyph glyph-name="Lcaron.ss01" horiz-adv-x="630" 
d="M231 700h74l-207 -636h434l-21 -64h-508zM576 512l14 43h30c20 0 37 10 37 26c0 11 -5 14 -18 22c-17 10 -25 24 -25 43c0 36 26 58 61 58c29 0 48 -17 48 -45c0 -8 -1 -16 -4 -23l-17 -53c-16 -48 -43 -71 -94 -71h-32z" />
    <glyph glyph-name="Lcommaaccent.ss01" horiz-adv-x="630" 
d="M231 700h74l-207 -636h434l-21 -64h-508zM114 -229l16 30c8 -5 18 -8 30 -8c29 0 50 16 50 37c0 12 -5 18 -18 27c-12 8 -22 22 -22 42c0 31 21 54 52 54c29 0 48 -20 48 -47c0 -7 -1 -13 -3 -20l-16 -48c-20 -60 -47 -78 -94 -78c-18 0 -32 4 -43 11z" />
    <glyph glyph-name="Ldot.ss01" horiz-adv-x="630" 
d="M231 700h74l-207 -636h434l-21 -64h-508zM399 350c0 28 22 50 50 50s50 -22 50 -50s-22 -50 -50 -50s-50 22 -50 50z" />
    <glyph glyph-name="Ncommaaccent.ss01" horiz-adv-x="759" 
d="M290 655l-213 -655h-74l228 700h113l198 -655l213 655h74l-228 -700h-113zM170 -229l16 30c8 -5 18 -8 30 -8c29 0 50 16 50 37c0 12 -5 18 -18 27c-12 8 -22 22 -22 42c0 31 21 54 52 54c29 0 48 -20 48 -47c0 -7 -1 -13 -3 -20l-16 -48c-20 -60 -47 -78 -94 -78
c-18 0 -32 4 -43 11z" />
    <glyph glyph-name="Odieresis.ss01" horiz-adv-x="850" 
d="M86 291c-4 219 186 423 456 419c181 0 296 -122 296 -299c4 -219 -186 -425 -456 -421c-176 0 -296 123 -296 301zM764 407c0 151 -91 239 -239 239c-209 4 -369 -170 -365 -351c0 -152 94 -241 239 -241c207 -5 369 173 365 353zM448 839c0 25 20 45 45 45
s45 -20 45 -45s-20 -45 -45 -45s-45 20 -45 45zM600 839c0 25 20 45 45 45s45 -20 45 -45s-20 -45 -45 -45s-45 20 -45 45z" />
    <glyph glyph-name="Rcommaaccent.ss01" horiz-adv-x="663" 
d="M3 0l228 700h267c115 0 191 -71 191 -170c0 -111 -76 -184 -188 -203c44 -16 64 -44 64 -93c0 -20 -5 -45 -14 -75c-16 -53 -22 -78 -22 -102c0 -15 5 -30 14 -45l-4 -12h-72c-7 18 -10 35 -10 50c0 27 6 58 18 93c11 32 16 57 16 75c0 61 -38 86 -115 86h-200l-99 -304
h-74zM197 368h222c121 0 192 60 192 157c0 69 -46 111 -127 111h-200zM139 -229l16 30c8 -5 18 -8 30 -8c29 0 50 16 50 37c0 12 -5 18 -18 27c-12 8 -22 22 -22 42c0 31 21 54 52 54c29 0 48 -20 48 -47c0 -7 -1 -13 -3 -20l-16 -48c-20 -60 -47 -78 -94 -78
c-18 0 -32 4 -43 11z" />
    <glyph glyph-name="Scommaaccent.ss01" horiz-adv-x="643" 
d="M417 646c-88 0 -168 -50 -168 -129c0 -74 53 -96 156 -125c117 -31 178 -78 178 -185c0 -132 -117 -217 -296 -217c-159 0 -249 95 -253 242l71 16c0 -125 70 -194 191 -194c123 0 213 59 213 146c0 81 -45 108 -168 143c-103 29 -164 74 -164 170c0 113 103 197 257 197
c129 0 213 -64 222 -180l-71 -12c-5 87 -69 128 -168 128zM124 -229l16 30c8 -5 18 -8 30 -8c29 0 50 16 50 37c0 12 -5 18 -18 27c-12 8 -22 22 -22 42c0 31 21 54 52 54c29 0 48 -20 48 -47c0 -7 -1 -13 -3 -20l-16 -48c-20 -60 -47 -78 -94 -78c-18 0 -32 4 -43 11z" />
    <glyph glyph-name="uni021A.ss01" horiz-adv-x="667" 
d="M783 700l-21 -64h-262l-207 -636h-74l207 636h-262l21 64h598zM123 -229l16 30c8 -5 18 -8 30 -8c29 0 50 16 50 37c0 12 -5 18 -18 27c-12 8 -22 22 -22 42c0 31 21 54 52 54c29 0 48 -20 48 -47c0 -7 -1 -13 -3 -20l-16 -48c-20 -60 -47 -78 -94 -78
c-18 0 -32 4 -43 11z" />
    <glyph glyph-name="Udieresis.ss01" horiz-adv-x="718" 
d="M78 193c0 39 6 78 19 116l127 391h74l-132 -408c-11 -33 -16 -66 -16 -100c0 -84 62 -138 167 -138c125 0 223 87 268 228l135 418h74l-138 -427c-63 -193 -187 -283 -351 -283c-139 0 -227 79 -227 203zM407 839c0 25 20 45 45 45s45 -20 45 -45s-20 -45 -45 -45
s-45 20 -45 45zM559 839c0 25 20 45 45 45s45 -20 45 -45s-20 -45 -45 -45s-45 20 -45 45z" />
    <glyph glyph-name="Wdieresis.ss01" horiz-adv-x="968" 
d="M110 0l54 700h75l-57 -658l388 658h122l-40 -658l375 658h77l-402 -700h-121l40 655l-388 -655h-123zM538 839c0 25 20 45 45 45s45 -20 45 -45s-20 -45 -45 -45s-45 20 -45 45zM690 839c0 25 20 45 45 45s45 -20 45 -45s-20 -45 -45 -45s-45 20 -45 45z" />
    <glyph glyph-name="Ydieresis.ss01" horiz-adv-x="646" 
d="M208 0l96 296l-138 404h72l116 -343l333 343h93l-403 -408l-95 -292h-74zM364 839c0 25 20 45 45 45s45 -20 45 -45s-20 -45 -45 -45s-45 20 -45 45zM516 839c0 25 20 45 45 45s45 -20 45 -45s-20 -45 -45 -45s-45 20 -45 45z" />
    <glyph glyph-name="Zdotaccent.ss01" horiz-adv-x="695" 
d="M-1 64l668 572h-477l21 64h575l-21 -64l-668 -572h487l-21 -64h-585zM538 892c27 0 46 -19 46 -46c0 -25 -19 -46 -46 -46c-25 0 -46 21 -46 46c0 27 21 46 46 46z" />
    <glyph glyph-name="a" unicode="a" horiz-adv-x="582" 
d="M40 183c-3 174 137 304 293 301c81 0 142 -48 155 -109l33 99h68l-154 -474h-63l28 84c-36 -56 -99 -94 -186 -94c-95 0 -174 76 -174 193zM460 301c0 73 -55 125 -135 125c-118 0 -215 -98 -215 -238c0 -95 51 -140 123 -140c109 -3 231 124 227 253z" />
    <glyph glyph-name="aacute" unicode="&#xe1;" horiz-adv-x="582" 
d="M40 183c-3 174 137 304 293 301c81 0 142 -48 155 -109l33 99h68l-154 -474h-63l28 84c-36 -56 -99 -94 -186 -94c-95 0 -174 76 -174 193zM460 301c0 73 -55 125 -135 125c-118 0 -215 -98 -215 -238c0 -95 51 -140 123 -140c109 -3 231 124 227 253zM335 555l103 133
h100l-4 -12l-134 -121h-65z" />
    <glyph glyph-name="abreve" unicode="&#x103;" horiz-adv-x="582" 
d="M40 183c-3 174 137 304 293 301c81 0 142 -48 155 -109l33 99h68l-154 -474h-63l28 84c-36 -56 -99 -94 -186 -94c-95 0 -174 76 -174 193zM460 301c0 73 -55 125 -135 125c-118 0 -215 -98 -215 -238c0 -95 51 -140 123 -140c109 -3 231 124 227 253zM277 633
c0 15 3 29 10 42h59c-5 -11 -8 -21 -8 -31c0 -21 19 -36 47 -36c45 0 74 23 75 67h61c0 -76 -53 -119 -144 -119c-61 0 -99 28 -100 77z" />
    <glyph glyph-name="acircumflex" unicode="&#xe2;" horiz-adv-x="582" 
d="M40 183c-3 174 137 304 293 301c81 0 142 -48 155 -109l33 99h68l-154 -474h-63l28 84c-36 -56 -99 -94 -186 -94c-95 0 -174 76 -174 193zM460 301c0 73 -55 125 -135 125c-118 0 -215 -98 -215 -238c0 -95 51 -140 123 -140c109 -3 231 124 227 253zM220 555l4 12
l147 103h58l81 -103l-4 -12h-73l-42 76l-87 -76h-84z" />
    <glyph glyph-name="adieresis" unicode="&#xe4;" horiz-adv-x="582" 
d="M40 183c-3 174 137 304 293 301c81 0 142 -48 155 -109l33 99h68l-154 -474h-63l28 84c-36 -56 -99 -94 -186 -94c-95 0 -174 76 -174 193zM460 301c0 73 -55 125 -135 125c-118 0 -215 -98 -215 -238c0 -95 51 -140 123 -140c109 -3 231 124 227 253zM253 571l28 84h84
l-28 -84h-84zM401 571l28 84h84l-28 -84h-84z" />
    <glyph glyph-name="agrave" unicode="&#xe0;" horiz-adv-x="582" 
d="M40 183c-3 174 137 304 293 301c81 0 142 -48 155 -109l33 99h68l-154 -474h-63l28 84c-36 -56 -99 -94 -186 -94c-95 0 -174 76 -174 193zM460 301c0 73 -55 125 -135 125c-118 0 -215 -98 -215 -238c0 -95 51 -140 123 -140c109 -3 231 124 227 253zM335 555l-78 121
l4 12h91l41 -133h-58z" />
    <glyph glyph-name="amacron" unicode="&#x101;" horiz-adv-x="582" 
d="M40 183c-3 174 137 304 293 301c81 0 142 -48 155 -109l33 99h68l-154 -474h-63l28 84c-36 -56 -99 -94 -186 -94c-95 0 -174 76 -174 193zM460 301c0 73 -55 125 -135 125c-118 0 -215 -98 -215 -238c0 -95 51 -140 123 -140c109 -3 231 124 227 253zM252 586l18 58h248
l-18 -58h-248z" />
    <glyph glyph-name="aogonek" unicode="&#x105;" horiz-adv-x="582" 
d="M40 183c-3 174 137 304 293 301c81 0 142 -48 155 -109l33 99h68l-154 -474h-63l28 84c-36 -56 -99 -94 -186 -94c-95 0 -174 76 -174 193zM460 301c0 73 -55 125 -135 125c-118 0 -215 -98 -215 -238c0 -95 51 -140 123 -140c109 -3 231 124 227 253zM348 -185
c-45 0 -72 30 -72 69c0 45 41 92 106 116h53c-55 -25 -96 -65 -96 -97c0 -20 11 -30 32 -30c12 0 25 4 38 11l14 -51c-24 -13 -43 -18 -75 -18z" />
    <glyph glyph-name="aring" unicode="&#xe5;" horiz-adv-x="582" 
d="M40 183c-3 174 137 304 293 301c81 0 142 -48 155 -109l33 99h68l-154 -474h-63l28 84c-36 -56 -99 -94 -186 -94c-95 0 -174 76 -174 193zM460 301c0 73 -55 125 -135 125c-118 0 -215 -98 -215 -238c0 -95 51 -140 123 -140c109 -3 231 124 227 253zM299 627
c0 47 36 83 83 83s83 -36 83 -83c0 -45 -36 -83 -83 -83s-83 38 -83 83zM425 627c0 24 -19 43 -43 43s-43 -19 -43 -43s19 -43 43 -43s43 19 43 43z" />
    <glyph glyph-name="aringacute" unicode="&#x1fb;" horiz-adv-x="582" 
d="M40 183c-3 174 137 304 293 301c81 0 142 -48 155 -109l33 99h68l-154 -474h-63l28 84c-36 -56 -99 -94 -186 -94c-95 0 -174 76 -174 193zM460 301c0 73 -55 125 -135 125c-118 0 -215 -98 -215 -238c0 -95 51 -140 123 -140c109 -3 231 124 227 253zM299 627
c0 47 36 83 83 83s83 -36 83 -83c0 -45 -36 -83 -83 -83s-83 38 -83 83zM425 627c0 24 -19 43 -43 43s-43 -19 -43 -43s19 -43 43 -43s43 19 43 43zM361 691l103 133h100l-4 -12l-134 -121h-65z" />
    <glyph glyph-name="atilde" unicode="&#xe3;" horiz-adv-x="582" 
d="M40 183c-3 174 137 304 293 301c81 0 142 -48 155 -109l33 99h68l-154 -474h-63l28 84c-36 -56 -99 -94 -186 -94c-95 0 -174 76 -174 193zM460 301c0 73 -55 125 -135 125c-118 0 -215 -98 -215 -238c0 -95 51 -140 123 -140c109 -3 231 124 227 253zM273 563l-49 6
c3 55 48 98 105 98c31 0 47 -11 70 -31c20 -16 31 -23 48 -23c28 0 47 23 52 54l49 -6c-7 -56 -49 -98 -105 -98c-31 0 -47 11 -70 31c-20 16 -31 23 -48 23c-28 0 -49 -23 -52 -54z" />
    <glyph glyph-name="ae" unicode="&#xe6;" horiz-adv-x="944" 
d="M40 183c-3 174 137 304 293 301c81 0 142 -48 155 -109l33 99h68l-22 -68c41 48 106 78 173 78c108 0 175 -61 175 -153c0 -24 -5 -54 -15 -89l-4 -14h-381c-3 -13 -4 -25 -4 -36c0 -88 59 -144 139 -144c81 0 137 38 170 114l59 -24c-44 -96 -127 -148 -243 -148
c-76 0 -144 42 -167 114l-34 -104h-63l28 84c-36 -56 -99 -94 -186 -94c-95 0 -174 76 -174 193zM460 301c0 73 -55 125 -135 125c-118 0 -215 -98 -215 -238c0 -95 51 -140 123 -140c109 -3 231 124 227 253zM525 280h317c3 13 5 28 5 44c0 67 -47 102 -119 102
c-100 0 -172 -62 -203 -146z" />
    <glyph glyph-name="aeacute" unicode="&#x1fd;" horiz-adv-x="944" 
d="M40 183c-3 174 137 304 293 301c81 0 142 -48 155 -109l33 99h68l-22 -68c41 48 106 78 173 78c108 0 175 -61 175 -153c0 -24 -5 -54 -15 -89l-4 -14h-381c-3 -13 -4 -25 -4 -36c0 -88 59 -144 139 -144c81 0 137 38 170 114l59 -24c-44 -96 -127 -148 -243 -148
c-76 0 -144 42 -167 114l-34 -104h-63l28 84c-36 -56 -99 -94 -186 -94c-95 0 -174 76 -174 193zM460 301c0 73 -55 125 -135 125c-118 0 -215 -98 -215 -238c0 -95 51 -140 123 -140c109 -3 231 124 227 253zM525 280h317c3 13 5 28 5 44c0 67 -47 102 -119 102
c-100 0 -172 -62 -203 -146zM553 555l103 133h100l-4 -12l-134 -121h-65z" />
    <glyph glyph-name="b" unicode="b" horiz-adv-x="581" 
d="M220 700h68l-95 -298c37 48 103 82 179 82c98 0 174 -70 174 -179c3 -164 -133 -319 -308 -315c-75 0 -135 48 -150 113l-33 -103h-62zM248 48c130 -3 231 127 229 251c0 75 -48 127 -127 127c-128 3 -229 -125 -226 -245c0 -84 49 -133 124 -133z" />
    <glyph glyph-name="c" unicode="c" horiz-adv-x="573" 
d="M45 203c0 163 119 281 300 281c111 0 182 -76 188 -167l-59 -18c-8 79 -63 127 -140 127c-128 0 -219 -89 -219 -221c0 -96 59 -157 147 -157c93 0 163 51 192 142l61 -21c-40 -112 -135 -179 -264 -179c-114 0 -206 80 -206 213z" />
    <glyph glyph-name="cacute" unicode="&#x107;" horiz-adv-x="573" 
d="M45 203c0 163 119 281 300 281c111 0 182 -76 188 -167l-59 -18c-8 79 -63 127 -140 127c-128 0 -219 -89 -219 -221c0 -96 59 -157 147 -157c93 0 163 51 192 142l61 -21c-40 -112 -135 -179 -264 -179c-114 0 -206 80 -206 213zM347 555l103 133h100l-4 -12l-134 -121
h-65z" />
    <glyph glyph-name="ccaron" unicode="&#x10d;" horiz-adv-x="573" 
d="M45 203c0 163 119 281 300 281c111 0 182 -76 188 -167l-59 -18c-8 79 -63 127 -140 127c-128 0 -219 -89 -219 -221c0 -96 59 -157 147 -157c93 0 163 51 192 142l61 -21c-40 -112 -135 -179 -264 -179c-114 0 -206 80 -206 213zM344 555l-81 103l4 12h71l44 -76l84 76
h87l-4 -12l-144 -103h-61z" />
    <glyph glyph-name="ccedilla" unicode="&#xe7;" horiz-adv-x="573" 
d="M45 203c0 163 119 281 300 281c111 0 182 -76 188 -167l-59 -18c-8 79 -63 127 -140 127c-128 0 -219 -89 -219 -221c0 -96 59 -157 147 -157c93 0 163 51 192 142l61 -21c-40 -112 -135 -179 -264 -179c-114 0 -206 80 -206 213zM164 -120l40 9c3 -23 21 -39 46 -39
c35 0 53 20 53 49c0 21 -13 38 -36 38c-19 0 -35 -9 -47 -27l-39 18c14 19 30 48 49 88h45l-15 -24c-12 -20 -23 -36 -33 -47c16 17 34 25 55 25c33 0 61 -25 61 -65c0 -55 -36 -93 -99 -93c-41 0 -76 28 -80 68z" />
    <glyph glyph-name="ccircumflex" unicode="&#x109;" horiz-adv-x="573" 
d="M45 203c0 163 119 281 300 281c111 0 182 -76 188 -167l-59 -18c-8 79 -63 127 -140 127c-128 0 -219 -89 -219 -221c0 -96 59 -157 147 -157c93 0 163 51 192 142l61 -21c-40 -112 -135 -179 -264 -179c-114 0 -206 80 -206 213zM232 555l4 12l147 103h58l81 -103
l-4 -12h-73l-42 76l-87 -76h-84z" />
    <glyph glyph-name="cdotaccent" unicode="&#x10b;" horiz-adv-x="573" 
d="M45 203c0 163 119 281 300 281c111 0 182 -76 188 -167l-59 -18c-8 79 -63 127 -140 127c-128 0 -219 -89 -219 -221c0 -96 59 -157 147 -157c93 0 163 51 192 142l61 -21c-40 -112 -135 -179 -264 -179c-114 0 -206 80 -206 213zM345 571l26 83h78l-26 -83h-78z" />
    <glyph glyph-name="d" unicode="d" horiz-adv-x="581" 
d="M39 178c-3 178 137 309 293 306c81 0 142 -48 155 -109l106 325h68l-227 -700h-62l30 92c-37 -63 -102 -102 -193 -102c-90 0 -170 77 -170 188zM459 301c0 73 -55 125 -135 125c-118 0 -215 -99 -215 -244c0 -89 51 -134 123 -134c109 -3 231 124 227 253z" />
    <glyph glyph-name="eth" unicode="&#xf0;" horiz-adv-x="574" 
d="M545 666l-70 -54c45 -68 67 -158 67 -270c0 -204 -108 -352 -303 -352c-106 -3 -198 99 -195 208c-2 164 124 289 281 286c37 0 70 -10 99 -30c30 -20 49 -45 57 -74c-2 74 -21 138 -57 193l-64 -49l-34 44l63 48c-14 16 -33 32 -56 47l40 47c24 -15 46 -33 67 -54l71 54
zM462 273c0 89 -61 153 -142 153c-129 0 -204 -97 -204 -223c0 -45 13 -82 39 -111s59 -44 98 -44c123 0 209 93 209 225z" />
    <glyph glyph-name="dcaron" unicode="&#x10f;" horiz-adv-x="640" 
d="M39 178c-3 178 137 309 293 306c81 0 142 -48 155 -109l106 325h68l-227 -700h-62l30 92c-37 -63 -102 -102 -193 -102c-90 0 -170 77 -170 188zM459 301c0 73 -55 125 -135 125c-118 0 -215 -99 -215 -244c0 -89 51 -134 123 -134c109 -3 231 124 227 253zM625 512
l14 43h27c28 0 44 12 44 33c0 17 -9 26 -28 26h-6l28 86h86l-37 -111c-20 -60 -48 -77 -99 -77h-29z" />
    <glyph glyph-name="dslash" unicode="&#x111;" horiz-adv-x="581" 
d="M39 178c-3 178 137 309 293 306c81 0 142 -48 155 -109l106 325h68l-227 -700h-62l30 92c-37 -63 -102 -102 -193 -102c-90 0 -170 77 -170 188zM459 301c0 73 -55 125 -135 125c-118 0 -215 -99 -215 -244c0 -89 51 -134 123 -134c109 -3 231 124 227 253zM396 623h293
l-17 -52h-293z" />
    <glyph glyph-name="e" unicode="e" horiz-adv-x="546" 
d="M517 331c0 -24 -5 -54 -15 -89l-4 -14h-383c-1 -13 -2 -23 -2 -30c0 -95 59 -150 139 -150c81 0 137 38 170 114l59 -24c-46 -99 -127 -148 -242 -148c-105 0 -196 78 -196 207c0 153 115 287 298 287c109 0 176 -61 176 -153zM449 324c0 67 -47 102 -119 102
c-97 0 -172 -61 -203 -146h317c3 13 5 28 5 44z" />
    <glyph glyph-name="eacute" unicode="&#xe9;" horiz-adv-x="546" 
d="M517 331c0 -24 -5 -54 -15 -89l-4 -14h-383c-1 -13 -2 -23 -2 -30c0 -95 59 -150 139 -150c81 0 137 38 170 114l59 -24c-46 -99 -127 -148 -242 -148c-105 0 -196 78 -196 207c0 153 115 287 298 287c109 0 176 -61 176 -153zM449 324c0 67 -47 102 -119 102
c-97 0 -172 -61 -203 -146h317c3 13 5 28 5 44zM342 555l103 133h100l-4 -12l-134 -121h-65z" />
    <glyph glyph-name="ebreve" unicode="&#x115;" horiz-adv-x="546" 
d="M517 331c0 -24 -5 -54 -15 -89l-4 -14h-383c-1 -13 -2 -23 -2 -30c0 -95 59 -150 139 -150c81 0 137 38 170 114l59 -24c-46 -99 -127 -148 -242 -148c-105 0 -196 78 -196 207c0 153 115 287 298 287c109 0 176 -61 176 -153zM449 324c0 67 -47 102 -119 102
c-97 0 -172 -61 -203 -146h317c3 13 5 28 5 44zM284 633c0 15 3 29 10 42h59c-5 -11 -8 -21 -8 -31c0 -21 19 -36 47 -36c45 0 74 23 75 67h61c0 -76 -53 -119 -144 -119c-61 0 -99 28 -100 77z" />
    <glyph glyph-name="ecaron" unicode="&#x11b;" horiz-adv-x="546" 
d="M517 331c0 -24 -5 -54 -15 -89l-4 -14h-383c-1 -13 -2 -23 -2 -30c0 -95 59 -150 139 -150c81 0 137 38 170 114l59 -24c-46 -99 -127 -148 -242 -148c-105 0 -196 78 -196 207c0 153 115 287 298 287c109 0 176 -61 176 -153zM449 324c0 67 -47 102 -119 102
c-97 0 -172 -61 -203 -146h317c3 13 5 28 5 44zM339 555l-81 103l4 12h71l44 -76l84 76h87l-4 -12l-144 -103h-61z" />
    <glyph glyph-name="ecircumflex" unicode="&#xea;" horiz-adv-x="546" 
d="M517 331c0 -24 -5 -54 -15 -89l-4 -14h-383c-1 -13 -2 -23 -2 -30c0 -95 59 -150 139 -150c81 0 137 38 170 114l59 -24c-46 -99 -127 -148 -242 -148c-105 0 -196 78 -196 207c0 153 115 287 298 287c109 0 176 -61 176 -153zM449 324c0 67 -47 102 -119 102
c-97 0 -172 -61 -203 -146h317c3 13 5 28 5 44zM227 555l4 12l147 103h58l81 -103l-4 -12h-73l-42 76l-87 -76h-84z" />
    <glyph glyph-name="edieresis" unicode="&#xeb;" horiz-adv-x="546" 
d="M517 331c0 -24 -5 -54 -15 -89l-4 -14h-383c-1 -13 -2 -23 -2 -30c0 -95 59 -150 139 -150c81 0 137 38 170 114l59 -24c-46 -99 -127 -148 -242 -148c-105 0 -196 78 -196 207c0 153 115 287 298 287c109 0 176 -61 176 -153zM449 324c0 67 -47 102 -119 102
c-97 0 -172 -61 -203 -146h317c3 13 5 28 5 44zM260 571l28 84h84l-28 -84h-84zM408 571l28 84h84l-28 -84h-84z" />
    <glyph glyph-name="edotaccent" unicode="&#x117;" horiz-adv-x="546" 
d="M517 331c0 -24 -5 -54 -15 -89l-4 -14h-383c-1 -13 -2 -23 -2 -30c0 -95 59 -150 139 -150c81 0 137 38 170 114l59 -24c-46 -99 -127 -148 -242 -148c-105 0 -196 78 -196 207c0 153 115 287 298 287c109 0 176 -61 176 -153zM449 324c0 67 -47 102 -119 102
c-97 0 -172 -61 -203 -146h317c3 13 5 28 5 44zM340 571l26 83h78l-26 -83h-78z" />
    <glyph glyph-name="egrave" unicode="&#xe8;" horiz-adv-x="546" 
d="M517 331c0 -24 -5 -54 -15 -89l-4 -14h-383c-1 -13 -2 -23 -2 -30c0 -95 59 -150 139 -150c81 0 137 38 170 114l59 -24c-46 -99 -127 -148 -242 -148c-105 0 -196 78 -196 207c0 153 115 287 298 287c109 0 176 -61 176 -153zM449 324c0 67 -47 102 -119 102
c-97 0 -172 -61 -203 -146h317c3 13 5 28 5 44zM342 555l-78 121l4 12h91l41 -133h-58z" />
    <glyph glyph-name="emacron" unicode="&#x113;" horiz-adv-x="546" 
d="M517 331c0 -24 -5 -54 -15 -89l-4 -14h-383c-1 -13 -2 -23 -2 -30c0 -95 59 -150 139 -150c81 0 137 38 170 114l59 -24c-46 -99 -127 -148 -242 -148c-105 0 -196 78 -196 207c0 153 115 287 298 287c109 0 176 -61 176 -153zM449 324c0 67 -47 102 -119 102
c-97 0 -172 -61 -203 -146h317c3 13 5 28 5 44zM259 586l18 58h248l-18 -58h-248z" />
    <glyph glyph-name="eogonek" unicode="&#x119;" horiz-adv-x="546" 
d="M517 331c0 -24 -5 -54 -15 -89l-4 -14h-383c-1 -13 -2 -23 -2 -30c0 -95 59 -150 139 -150c81 0 137 38 170 114l59 -24c-46 -99 -127 -148 -242 -148c-105 0 -196 78 -196 207c0 153 115 287 298 287c109 0 176 -61 176 -153zM449 324c0 67 -47 102 -119 102
c-97 0 -172 -61 -203 -146h317c3 13 5 28 5 44zM184 -185c-45 0 -72 30 -72 69c0 45 41 92 106 116h53c-55 -25 -96 -65 -96 -97c0 -20 11 -30 32 -30c12 0 25 4 38 11l14 -51c-24 -13 -43 -18 -75 -18z" />
    <glyph glyph-name="f" unicode="f" horiz-adv-x="382" 
d="M42 0l137 422h-106l17 52h106l25 77c35 105 88 159 195 159c71 0 120 -35 120 -94c0 -19 -5 -38 -16 -57h-58c8 17 12 32 12 44c0 33 -26 55 -70 55c-59 0 -94 -37 -119 -118l-21 -66h136l-17 -52h-136l-137 -422h-68z" />
    <glyph glyph-name="g" unicode="g" horiz-adv-x="586" 
d="M-20 -53l66 15c1 -69 51 -112 128 -112c100 0 166 64 207 183l17 48c-45 -55 -103 -81 -180 -81c-92 0 -177 70 -177 185c-2 169 124 302 295 299c93 0 148 -55 160 -99l29 89h68l-149 -457c-49 -148 -140 -225 -284 -225c-104 0 -173 59 -180 155zM466 299
c0 68 -52 127 -137 127c-120 0 -219 -88 -219 -229c0 -87 50 -139 127 -139c121 -3 231 112 229 241z" />
    <glyph glyph-name="gbreve" unicode="&#x11f;" horiz-adv-x="586" 
d="M-20 -53l66 15c1 -69 51 -112 128 -112c100 0 166 64 207 183l17 48c-45 -55 -103 -81 -180 -81c-92 0 -177 70 -177 185c-2 169 124 302 295 299c93 0 148 -55 160 -99l29 89h68l-149 -457c-49 -148 -140 -225 -284 -225c-104 0 -173 59 -180 155zM466 299
c0 68 -52 127 -137 127c-120 0 -219 -88 -219 -229c0 -87 50 -139 127 -139c121 -3 231 112 229 241zM291 633c0 15 3 29 10 42h59c-5 -11 -8 -21 -8 -31c0 -21 19 -36 47 -36c45 0 74 23 75 67h61c0 -76 -53 -119 -144 -119c-61 0 -99 28 -100 77z" />
    <glyph glyph-name="gcircumflex" unicode="&#x11d;" horiz-adv-x="586" 
d="M-20 -53l66 15c1 -69 51 -112 128 -112c100 0 166 64 207 183l17 48c-45 -55 -103 -81 -180 -81c-92 0 -177 70 -177 185c-2 169 124 302 295 299c93 0 148 -55 160 -99l29 89h68l-149 -457c-49 -148 -140 -225 -284 -225c-104 0 -173 59 -180 155zM466 299
c0 68 -52 127 -137 127c-120 0 -219 -88 -219 -229c0 -87 50 -139 127 -139c121 -3 231 112 229 241zM234 555l4 12l147 103h58l81 -103l-4 -12h-73l-42 76l-87 -76h-84z" />
    <glyph glyph-name="gcommaaccent" unicode="&#x123;" horiz-adv-x="586" 
d="M-20 -53l66 15c1 -69 51 -112 128 -112c100 0 166 64 207 183l17 48c-45 -55 -103 -81 -180 -81c-92 0 -177 70 -177 185c-2 169 124 302 295 299c93 0 148 -55 160 -99l29 89h68l-149 -457c-49 -148 -140 -225 -284 -225c-104 0 -173 59 -180 155zM466 299
c0 68 -52 127 -137 127c-120 0 -219 -88 -219 -229c0 -87 50 -139 127 -139c121 -3 231 112 229 241zM363 542l37 114c19 59 45 74 97 74h37l-14 -43h-33c-27 0 -45 -14 -45 -35c0 -16 9 -24 27 -24h8l-28 -86h-86z" />
    <glyph glyph-name="gdotaccent" unicode="&#x121;" horiz-adv-x="586" 
d="M-20 -53l66 15c1 -69 51 -112 128 -112c100 0 166 64 207 183l17 48c-45 -55 -103 -81 -180 -81c-92 0 -177 70 -177 185c-2 169 124 302 295 299c93 0 148 -55 160 -99l29 89h68l-149 -457c-49 -148 -140 -225 -284 -225c-104 0 -173 59 -180 155zM466 299
c0 68 -52 127 -137 127c-120 0 -219 -88 -219 -229c0 -87 50 -139 127 -139c121 -3 231 112 229 241zM347 571l26 83h78l-26 -83h-78z" />
    <glyph glyph-name="h" unicode="h" horiz-adv-x="546" 
d="M-7 0l228 700h68l-102 -315c43 65 105 99 181 99c83 0 135 -58 135 -130c0 -23 -4 -47 -12 -72l-92 -282h-68l96 294c5 16 8 33 8 50c-1 49 -35 82 -92 82c-83 0 -171 -82 -205 -189l-77 -237h-68z" />
    <glyph glyph-name="hbar" unicode="&#x127;" horiz-adv-x="546" 
d="M-7 0l228 700h68l-102 -315c43 65 105 99 181 99c83 0 135 -58 135 -130c0 -23 -4 -47 -12 -72l-92 -282h-68l96 294c5 16 8 33 8 50c-1 49 -35 82 -92 82c-83 0 -171 -82 -205 -189l-77 -237h-68zM128 623h293l-17 -52h-293z" />
    <glyph glyph-name="hcircumflex" unicode="&#x125;" horiz-adv-x="546" 
d="M-7 0l228 700h68l-102 -315c43 65 105 99 181 99c83 0 135 -58 135 -130c0 -23 -4 -47 -12 -72l-92 -282h-68l96 294c5 16 8 33 8 50c-1 49 -35 82 -92 82c-83 0 -171 -82 -205 -189l-77 -237h-68zM135 781l4 12l147 103h58l81 -103l-4 -12h-73l-42 76l-87 -76h-84z" />
    <glyph glyph-name="i" unicode="i" horiz-adv-x="208" 
d="M147 474h68l-154 -474h-68zM174 571l26 83h78l-26 -83h-78z" />
    <glyph glyph-name="dotlessi" unicode="&#x131;" horiz-adv-x="208" 
d="M147 474h68l-154 -474h-68z" />
    <glyph glyph-name="iacute" unicode="&#xed;" horiz-adv-x="208" 
d="M147 474h68l-154 -474h-68zM176 555l103 133h100l-4 -12l-134 -121h-65z" />
    <glyph glyph-name="ibreve" unicode="&#x12d;" horiz-adv-x="208" 
d="M147 474h68l-154 -474h-68zM118 633c0 15 3 29 10 42h59c-5 -11 -8 -21 -8 -31c0 -21 19 -36 47 -36c45 0 74 23 75 67h61c0 -76 -53 -119 -144 -119c-61 0 -99 28 -100 77z" />
    <glyph glyph-name="icircumflex" unicode="&#xee;" horiz-adv-x="208" 
d="M147 474h68l-154 -474h-68zM61 555l4 12l147 103h58l81 -103l-4 -12h-73l-42 76l-87 -76h-84z" />
    <glyph glyph-name="idieresis" unicode="&#xef;" horiz-adv-x="208" 
d="M147 474h68l-154 -474h-68zM94 571l28 84h84l-28 -84h-84zM242 571l28 84h84l-28 -84h-84z" />
    <glyph glyph-name="i.loclTRK" horiz-adv-x="208" 
d="M147 474h68l-154 -474h-68zM174 571l26 83h78l-26 -83h-78z" />
    <glyph glyph-name="igrave" unicode="&#xec;" horiz-adv-x="208" 
d="M147 474h68l-154 -474h-68zM176 555l-78 121l4 12h91l41 -133h-58z" />
    <glyph glyph-name="ij" unicode="&#x133;" horiz-adv-x="416" 
d="M147 474h68l-154 -474h-68zM174 571l26 83h78l-26 -83h-78zM137 -198l218 672h68l-218 -672h-68zM382 571l26 83h78l-26 -83h-78z" />
    <glyph glyph-name="imacron" unicode="&#x12b;" horiz-adv-x="208" 
d="M147 474h68l-154 -474h-68zM93 586l18 58h248l-18 -58h-248z" />
    <glyph glyph-name="iogonek" unicode="&#x12f;" horiz-adv-x="208" 
d="M147 474h68l-154 -474h-68zM174 571l26 83h78l-26 -83h-78zM-28 -185c-45 0 -72 30 -72 69c0 45 41 92 106 116h53c-55 -25 -96 -65 -96 -97c0 -20 11 -30 32 -30c12 0 25 4 38 11l14 -51c-24 -13 -43 -18 -75 -18z" />
    <glyph glyph-name="itilde" unicode="&#x129;" horiz-adv-x="208" 
d="M147 474h68l-154 -474h-68zM114 563l-49 6c3 55 48 98 105 98c31 0 47 -11 70 -31c20 -16 31 -23 48 -23c28 0 47 23 52 54l49 -6c-7 -56 -49 -98 -105 -98c-31 0 -47 11 -70 31c-20 16 -31 23 -48 23c-28 0 -49 -23 -52 -54z" />
    <glyph glyph-name="j" unicode="j" horiz-adv-x="208" 
d="M-71 -198l218 672h68l-218 -672h-68zM174 571l26 83h78l-26 -83h-78z" />
    <glyph glyph-name="uni0237" unicode="&#x237;" horiz-adv-x="208" 
d="M-71 -198l218 672h68l-218 -672h-68z" />
    <glyph glyph-name="jcircumflex" unicode="&#x135;" horiz-adv-x="208" 
d="M-71 -198l218 672h68l-218 -672h-68zM61 555l4 12l147 103h58l81 -103l-4 -12h-73l-42 76l-87 -76h-84z" />
    <glyph glyph-name="k" unicode="k" horiz-adv-x="494" 
d="M523 474l-237 -190l105 -284h-73l-88 238l-124 -99l-45 -139h-68l228 700h68l-149 -457l287 231h96z" />
    <glyph glyph-name="kcommaaccent" unicode="&#x137;" horiz-adv-x="494" 
d="M523 474l-237 -190l105 -284h-73l-88 238l-124 -99l-45 -139h-68l228 700h68l-149 -457l287 231h96zM44 -225l18 30c12 -5 24 -8 35 -8c27 0 47 13 47 37c0 19 -11 28 -32 28h-8l28 86h86l-38 -116c-15 -47 -44 -68 -93 -68c-15 0 -34 4 -43 11z" />
    <glyph glyph-name="kgreenlandic" unicode="&#x138;" horiz-adv-x="445" 
d="M-7 0l154 474h68l-68 -210l247 210h94l-283 -232l137 -242h-74l-131 232l-76 -232h-68z" />
    <glyph glyph-name="l" unicode="l" horiz-adv-x="209" 
d="M-7 0l228 700h68l-228 -700h-68z" />
    <glyph glyph-name="lacute" unicode="&#x13a;" horiz-adv-x="209" 
d="M-7 0l228 700h68l-228 -700h-68zM250 781l103 133h100l-4 -12l-134 -121h-65z" />
    <glyph glyph-name="lcaron" unicode="&#x13e;" horiz-adv-x="283" 
d="M-7 0l228 700h68l-228 -700h-68zM268 512l14 43h27c28 0 44 12 44 33c0 17 -9 26 -28 26h-6l28 86h86l-37 -111c-20 -60 -48 -77 -99 -77h-29z" />
    <glyph glyph-name="lcommaaccent" unicode="&#x13c;" horiz-adv-x="209" 
d="M-7 0l228 700h68l-228 -700h-68zM-121 -225l18 30c12 -5 24 -8 35 -8c27 0 47 13 47 37c0 19 -11 28 -32 28h-8l28 86h86l-38 -116c-15 -47 -44 -68 -93 -68c-15 0 -34 4 -43 11z" />
    <glyph glyph-name="ldot" unicode="&#x140;" horiz-adv-x="382" 
d="M-7 0l228 700h68l-228 -700h-68zM303 393h86l-28 -86h-86z" />
    <glyph glyph-name="lslash" unicode="&#x142;" horiz-adv-x="209" 
d="M-7 0l228 700h68l-228 -700h-68zM3 257l-22 50l299 135l21 -48z" />
    <glyph glyph-name="m" unicode="m" horiz-adv-x="742" 
d="M-7 0l154 474h68l-20 -63c36 45 78 73 139 73c60 0 98 -34 102 -83c37 49 93 83 160 83c71 0 114 -42 114 -109c0 -13 -3 -31 -10 -52l-105 -323h-68l106 324c5 14 7 27 7 40c0 36 -28 62 -69 62c-59 0 -117 -41 -148 -133l-96 -293h-68l104 320c4 13 6 25 6 36
c0 43 -23 70 -67 70c-57 0 -114 -41 -145 -133l-96 -293h-68z" />
    <glyph glyph-name="n" unicode="n" horiz-adv-x="540" 
d="M-7 0l154 474h68l-28 -87c47 65 107 97 179 97c81 0 133 -51 133 -128c0 -19 -4 -42 -13 -69l-93 -287h-68l96 294c5 17 8 34 8 49c0 48 -32 83 -85 83c-77 0 -164 -66 -199 -170l-84 -256h-68z" />
    <glyph glyph-name="nacute" unicode="&#x144;" horiz-adv-x="540" 
d="M-7 0l154 474h68l-28 -87c47 65 107 97 179 97c81 0 133 -51 133 -128c0 -19 -4 -42 -13 -69l-93 -287h-68l96 294c5 17 8 34 8 49c0 48 -32 83 -85 83c-77 0 -164 -66 -199 -170l-84 -256h-68zM332 555l103 133h100l-4 -12l-134 -121h-65z" />
    <glyph glyph-name="ncaron" unicode="&#x148;" horiz-adv-x="540" 
d="M-7 0l154 474h68l-28 -87c47 65 107 97 179 97c81 0 133 -51 133 -128c0 -19 -4 -42 -13 -69l-93 -287h-68l96 294c5 17 8 34 8 49c0 48 -32 83 -85 83c-77 0 -164 -66 -199 -170l-84 -256h-68zM329 555l-81 103l4 12h71l44 -76l84 76h87l-4 -12l-144 -103h-61z" />
    <glyph glyph-name="ncommaaccent" unicode="&#x146;" horiz-adv-x="540" 
d="M-7 0l154 474h68l-28 -87c47 65 107 97 179 97c81 0 133 -51 133 -128c0 -19 -4 -42 -13 -69l-93 -287h-68l96 294c5 17 8 34 8 49c0 48 -32 83 -85 83c-77 0 -164 -66 -199 -170l-84 -256h-68zM45 -225l18 30c12 -5 24 -8 35 -8c27 0 47 13 47 37c0 19 -11 28 -32 28h-8
l28 86h86l-38 -116c-15 -47 -44 -68 -93 -68c-15 0 -34 4 -43 11z" />
    <glyph glyph-name="eng" unicode="&#x14b;" horiz-adv-x="540" 
d="M133 -129l61 22c5 -27 20 -41 45 -41s42 16 53 48l129 394c5 17 8 34 8 49c0 48 -32 83 -85 83c-77 0 -164 -66 -199 -170l-84 -256h-68l154 474h68l-28 -87c47 65 107 97 179 97c81 0 133 -51 133 -128c0 -19 -4 -42 -13 -69l-128 -394c-22 -67 -66 -101 -133 -101
c-52 0 -89 32 -92 79z" />
    <glyph glyph-name="ntilde" unicode="&#xf1;" horiz-adv-x="540" 
d="M-7 0l154 474h68l-28 -87c47 65 107 97 179 97c81 0 133 -51 133 -128c0 -19 -4 -42 -13 -69l-93 -287h-68l96 294c5 17 8 34 8 49c0 48 -32 83 -85 83c-77 0 -164 -66 -199 -170l-84 -256h-68zM270 563l-49 6c3 55 48 98 105 98c31 0 47 -11 70 -31
c20 -16 31 -23 48 -23c28 0 47 23 52 54l49 -6c-7 -56 -49 -98 -105 -98c-31 0 -47 11 -70 31c-20 16 -31 23 -48 23c-28 0 -49 -23 -52 -54z" />
    <glyph glyph-name="o" unicode="o" horiz-adv-x="580" 
d="M39 181c0 168 124 303 311 303c113 0 191 -79 191 -191c0 -168 -124 -303 -311 -303c-110 0 -191 80 -191 191zM469 286c0 83 -53 140 -134 140c-128 2 -227 -114 -224 -238c0 -83 53 -140 134 -140c128 -2 227 114 224 238z" />
    <glyph glyph-name="oacute" unicode="&#xf3;" horiz-adv-x="580" 
d="M39 181c0 168 124 303 311 303c113 0 191 -79 191 -191c0 -168 -124 -303 -311 -303c-110 0 -191 80 -191 191zM469 286c0 83 -53 140 -134 140c-128 2 -227 -114 -224 -238c0 -83 53 -140 134 -140c128 -2 227 114 224 238zM342 555l103 133h100l-4 -12l-134 -121h-65z
" />
    <glyph glyph-name="obreve" unicode="&#x14f;" horiz-adv-x="580" 
d="M39 181c0 168 124 303 311 303c113 0 191 -79 191 -191c0 -168 -124 -303 -311 -303c-110 0 -191 80 -191 191zM469 286c0 83 -53 140 -134 140c-128 2 -227 -114 -224 -238c0 -83 53 -140 134 -140c128 -2 227 114 224 238zM284 633c0 15 3 29 10 42h59
c-5 -11 -8 -21 -8 -31c0 -21 19 -36 47 -36c45 0 74 23 75 67h61c0 -76 -53 -119 -144 -119c-61 0 -99 28 -100 77z" />
    <glyph glyph-name="ocircumflex" unicode="&#xf4;" horiz-adv-x="580" 
d="M39 181c0 168 124 303 311 303c113 0 191 -79 191 -191c0 -168 -124 -303 -311 -303c-110 0 -191 80 -191 191zM469 286c0 83 -53 140 -134 140c-128 2 -227 -114 -224 -238c0 -83 53 -140 134 -140c128 -2 227 114 224 238zM227 555l4 12l147 103h58l81 -103l-4 -12h-73
l-42 76l-87 -76h-84z" />
    <glyph glyph-name="odieresis" unicode="&#xf6;" horiz-adv-x="580" 
d="M39 181c0 168 124 303 311 303c113 0 191 -79 191 -191c0 -168 -124 -303 -311 -303c-110 0 -191 80 -191 191zM469 286c0 83 -53 140 -134 140c-128 2 -227 -114 -224 -238c0 -83 53 -140 134 -140c128 -2 227 114 224 238zM260 571l28 84h84l-28 -84h-84zM408 571
l28 84h84l-28 -84h-84z" />
    <glyph glyph-name="ograve" unicode="&#xf2;" horiz-adv-x="580" 
d="M39 181c0 168 124 303 311 303c113 0 191 -79 191 -191c0 -168 -124 -303 -311 -303c-110 0 -191 80 -191 191zM469 286c0 83 -53 140 -134 140c-128 2 -227 -114 -224 -238c0 -83 53 -140 134 -140c128 -2 227 114 224 238zM342 555l-78 121l4 12h91l41 -133h-58z" />
    <glyph glyph-name="ohungarumlaut" unicode="&#x151;" horiz-adv-x="580" 
d="M39 181c0 168 124 303 311 303c113 0 191 -79 191 -191c0 -168 -124 -303 -311 -303c-110 0 -191 80 -191 191zM469 286c0 83 -53 140 -134 140c-128 2 -227 -114 -224 -238c0 -83 53 -140 134 -140c128 -2 227 114 224 238zM257 555l103 133h100l-4 -12l-134 -121h-65z
M419 555l103 133h100l-4 -12l-134 -121h-65z" />
    <glyph glyph-name="omacron" unicode="&#x14d;" horiz-adv-x="580" 
d="M39 181c0 168 124 303 311 303c113 0 191 -79 191 -191c0 -168 -124 -303 -311 -303c-110 0 -191 80 -191 191zM469 286c0 83 -53 140 -134 140c-128 2 -227 -114 -224 -238c0 -83 53 -140 134 -140c128 -2 227 114 224 238zM259 586l18 58h248l-18 -58h-248z" />
    <glyph glyph-name="oslash" unicode="&#xf8;" horiz-adv-x="580" 
d="M541 293c0 -168 -124 -303 -311 -303c-23 0 -46 4 -68 11l-35 -49l-49 36l30 43c-44 33 -69 87 -69 150c0 168 124 303 311 303c24 0 47 -4 69 -11l34 49l49 -36l-29 -42c44 -35 68 -87 68 -151zM148 87l233 332c-13 5 -29 7 -46 7c-128 2 -227 -114 -224 -238
c0 -41 12 -75 37 -101zM469 286c0 41 -12 75 -37 101l-233 -332c13 -5 29 -7 46 -7c128 -2 227 114 224 238z" />
    <glyph glyph-name="otilde" unicode="&#xf5;" horiz-adv-x="580" 
d="M39 181c0 168 124 303 311 303c113 0 191 -79 191 -191c0 -168 -124 -303 -311 -303c-110 0 -191 80 -191 191zM469 286c0 83 -53 140 -134 140c-128 2 -227 -114 -224 -238c0 -83 53 -140 134 -140c128 -2 227 114 224 238zM280 563l-49 6c3 55 48 98 105 98
c31 0 47 -11 70 -31c20 -16 31 -23 48 -23c28 0 47 23 52 54l49 -6c-7 -56 -49 -98 -105 -98c-31 0 -47 11 -70 31c-20 16 -31 23 -48 23c-28 0 -49 -23 -52 -54z" />
    <glyph glyph-name="oe" unicode="&#x153;" horiz-adv-x="968" 
d="M39 181c0 168 124 303 311 303c84 0 149 -46 173 -123c48 77 135 123 240 123c109 0 176 -61 176 -153c0 -24 -5 -54 -15 -89l-4 -14h-383c-1 -13 -2 -23 -2 -30c0 -95 59 -150 139 -150c81 0 137 38 170 114l59 -24c-46 -99 -127 -148 -242 -148c-83 0 -155 46 -180 134
c-53 -89 -135 -134 -251 -134c-110 0 -191 80 -191 191zM469 286c0 83 -53 140 -134 140c-128 2 -227 -114 -224 -238c0 -83 53 -140 134 -140c128 -2 227 114 224 238zM549 280h317c3 13 5 28 5 44c0 67 -47 102 -119 102c-97 0 -172 -61 -203 -146z" />
    <glyph glyph-name="p" unicode="p" horiz-adv-x="581" 
d="M-71 -198l218 672h62l-26 -79c45 59 108 89 189 89c101 0 170 -75 170 -188c3 -178 -137 -309 -293 -306c-80 0 -142 48 -155 109l-97 -297h-68zM472 292c0 89 -51 134 -123 134c-109 3 -231 -124 -227 -253c0 -73 55 -125 135 -125c118 0 215 99 215 244z" />
    <glyph glyph-name="thorn" unicode="&#xfe;" horiz-adv-x="581" 
d="M-71 -198l291 898h67l-99 -305c40 53 96 89 184 89c101 0 170 -75 170 -188c3 -178 -137 -309 -293 -306c-80 0 -142 48 -155 109l-97 -297h-68zM472 292c0 89 -51 134 -123 134c-109 3 -231 -124 -227 -253c0 -73 55 -125 135 -125c118 0 215 99 215 244z" />
    <glyph glyph-name="q" unicode="q" horiz-adv-x="581" 
d="M302 -198l86 270c-39 -49 -97 -82 -176 -82c-99 0 -177 70 -177 179c-3 164 129 319 302 315c80 0 137 -45 156 -113l33 103h62l-218 -672h-68zM457 295c0 83 -49 131 -128 131c-129 3 -227 -127 -225 -251c0 -75 48 -127 127 -127c128 -3 229 127 226 247z" />
    <glyph glyph-name="r" unicode="r" horiz-adv-x="432" 
d="M-7 0l154 474h68l-22 -69c40 53 88 79 148 79c61 0 95 -36 95 -89c0 -23 -6 -49 -17 -78h-65c9 22 14 41 14 56c0 35 -21 53 -64 53c-61 0 -122 -58 -149 -139l-94 -287h-68z" />
    <glyph glyph-name="racute" unicode="&#x155;" horiz-adv-x="432" 
d="M-7 0l154 474h68l-22 -69c40 53 88 79 148 79c61 0 95 -36 95 -89c0 -23 -6 -49 -17 -78h-65c9 22 14 41 14 56c0 35 -21 53 -64 53c-61 0 -122 -58 -149 -139l-94 -287h-68zM306 555l103 133h100l-4 -12l-134 -121h-65z" />
    <glyph glyph-name="rcaron" unicode="&#x159;" horiz-adv-x="432" 
d="M-7 0l154 474h68l-22 -69c40 53 88 79 148 79c61 0 95 -36 95 -89c0 -23 -6 -49 -17 -78h-65c9 22 14 41 14 56c0 35 -21 53 -64 53c-61 0 -122 -58 -149 -139l-94 -287h-68zM303 555l-81 103l4 12h71l44 -76l84 76h87l-4 -12l-144 -103h-61z" />
    <glyph glyph-name="rcommaaccent" unicode="&#x157;" horiz-adv-x="432" 
d="M-7 0l154 474h68l-22 -69c40 53 88 79 148 79c61 0 95 -36 95 -89c0 -23 -6 -49 -17 -78h-65c9 22 14 41 14 56c0 35 -21 53 -64 53c-61 0 -122 -58 -149 -139l-94 -287h-68zM-121 -225l18 30c12 -5 24 -8 35 -8c27 0 47 13 47 37c0 19 -11 28 -32 28h-8l28 86h86
l-38 -116c-15 -47 -44 -68 -93 -68c-15 0 -34 4 -43 11z" />
    <glyph glyph-name="s" unicode="s" horiz-adv-x="483" 
d="M9 145l61 15c3 -69 52 -112 131 -112c84 0 139 38 139 95c0 45 -29 64 -114 84c-84 19 -126 62 -126 128c0 80 70 129 177 129c91 0 148 -45 159 -120l-58 -11c-8 45 -46 79 -106 79c-67 0 -110 -30 -110 -78c0 -40 37 -63 112 -79c91 -19 134 -59 134 -126
c0 -92 -84 -159 -209 -159c-121 0 -185 66 -190 155z" />
    <glyph glyph-name="sacute" unicode="&#x15b;" horiz-adv-x="483" 
d="M9 145l61 15c3 -69 52 -112 131 -112c84 0 139 38 139 95c0 45 -29 64 -114 84c-84 19 -126 62 -126 128c0 80 70 129 177 129c91 0 148 -45 159 -120l-58 -11c-8 45 -46 79 -106 79c-67 0 -110 -30 -110 -78c0 -40 37 -63 112 -79c91 -19 134 -59 134 -126
c0 -92 -84 -159 -209 -159c-121 0 -185 66 -190 155zM282 555l103 133h100l-4 -12l-134 -121h-65z" />
    <glyph glyph-name="scaron" unicode="&#x161;" horiz-adv-x="483" 
d="M9 145l61 15c3 -69 52 -112 131 -112c84 0 139 38 139 95c0 45 -29 64 -114 84c-84 19 -126 62 -126 128c0 80 70 129 177 129c91 0 148 -45 159 -120l-58 -11c-8 45 -46 79 -106 79c-67 0 -110 -30 -110 -78c0 -40 37 -63 112 -79c91 -19 134 -59 134 -126
c0 -92 -84 -159 -209 -159c-121 0 -185 66 -190 155zM279 555l-81 103l4 12h71l44 -76l84 76h87l-4 -12l-144 -103h-61z" />
    <glyph glyph-name="scedilla" unicode="&#x15f;" horiz-adv-x="483" 
d="M9 145l61 15c3 -69 52 -112 131 -112c84 0 139 38 139 95c0 45 -29 64 -114 84c-84 19 -126 62 -126 128c0 80 70 129 177 129c91 0 148 -45 159 -120l-58 -11c-8 45 -46 79 -106 79c-67 0 -110 -30 -110 -78c0 -40 37 -63 112 -79c91 -19 134 -59 134 -126
c0 -92 -84 -159 -209 -159c-121 0 -185 66 -190 155zM81 -120l40 9c3 -23 21 -39 46 -39c35 0 53 20 53 49c0 21 -13 38 -36 38c-19 0 -35 -9 -47 -27l-39 18c14 19 30 48 49 88h45l-15 -24c-12 -20 -23 -36 -33 -47c16 17 34 25 55 25c33 0 61 -25 61 -65
c0 -55 -36 -93 -99 -93c-41 0 -76 28 -80 68z" />
    <glyph glyph-name="scircumflex" unicode="&#x15d;" horiz-adv-x="483" 
d="M9 145l61 15c3 -69 52 -112 131 -112c84 0 139 38 139 95c0 45 -29 64 -114 84c-84 19 -126 62 -126 128c0 80 70 129 177 129c91 0 148 -45 159 -120l-58 -11c-8 45 -46 79 -106 79c-67 0 -110 -30 -110 -78c0 -40 37 -63 112 -79c91 -19 134 -59 134 -126
c0 -92 -84 -159 -209 -159c-121 0 -185 66 -190 155zM167 555l4 12l147 103h58l81 -103l-4 -12h-73l-42 76l-87 -76h-84z" />
    <glyph glyph-name="scommaaccent" unicode="&#x219;" horiz-adv-x="483" 
d="M9 145l61 15c3 -69 52 -112 131 -112c84 0 139 38 139 95c0 45 -29 64 -114 84c-84 19 -126 62 -126 128c0 80 70 129 177 129c91 0 148 -45 159 -120l-58 -11c-8 45 -46 79 -106 79c-67 0 -110 -30 -110 -78c0 -40 37 -63 112 -79c91 -19 134 -59 134 -126
c0 -92 -84 -159 -209 -159c-121 0 -185 66 -190 155zM41 -225l18 30c12 -5 24 -8 35 -8c27 0 47 13 47 37c0 19 -11 28 -32 28h-8l28 86h86l-38 -116c-15 -47 -44 -68 -93 -68c-15 0 -34 4 -43 11z" />
    <glyph glyph-name="germandbls" unicode="&#xdf;" horiz-adv-x="601" 
d="M270 48c125 0 196 69 196 182c0 101 -64 158 -163 158l19 58c115 1 186 47 186 126c0 48 -30 80 -87 80c-73 0 -116 -40 -145 -129l-170 -523h-68l126 388h-87l19 58h87l27 83c39 121 112 181 221 181c87 0 141 -54 141 -131c0 -86 -82 -158 -161 -166
c71 -24 123 -84 123 -177c0 -143 -105 -246 -273 -246c-44 0 -87 13 -115 33l30 56c19 -16 55 -31 94 -31z" />
    <glyph glyph-name="t" unicode="t" horiz-adv-x="347" 
d="M43 0l137 422h-92l17 52h92l46 141h68l-46 -141h137l-17 -52h-137l-137 -422h-68z" />
    <glyph glyph-name="tbar" unicode="&#x167;" horiz-adv-x="347" 
d="M43 0l137 422h-92l17 52h92l46 141h68l-46 -141h137l-17 -52h-137l-137 -422h-68zM64 302h293l-17 -52h-293z" />
    <glyph glyph-name="tcaron" unicode="&#x165;" horiz-adv-x="347" 
d="M43 0l137 422h-92l17 52h92l46 141h68l-46 -141h137l-17 -52h-137l-137 -422h-68zM335 528l14 43h27c28 0 44 12 44 33c0 17 -9 26 -28 26h-6l28 86h86l-37 -111c-20 -60 -48 -77 -99 -77h-29z" />
    <glyph glyph-name="uni0163" unicode="&#x163;" horiz-adv-x="347" 
d="M43 0l137 422h-92l17 52h92l46 141h68l-46 -141h137l-17 -52h-137l-137 -422h-68zM-2 -120l40 9c3 -23 21 -39 46 -39c35 0 53 20 53 49c0 21 -13 38 -36 38c-19 0 -35 -9 -47 -27l-39 18c14 19 30 48 49 88h45l-15 -24c-12 -20 -23 -36 -33 -47c16 17 34 25 55 25
c33 0 61 -25 61 -65c0 -55 -36 -93 -99 -93c-41 0 -76 28 -80 68z" />
    <glyph glyph-name="uni021B" unicode="&#x21b;" horiz-adv-x="347" 
d="M43 0l137 422h-92l17 52h92l46 141h68l-46 -141h137l-17 -52h-137l-137 -422h-68zM-68 -225l18 30c12 -5 24 -8 35 -8c27 0 47 13 47 37c0 19 -11 28 -32 28h-8l28 86h86l-38 -116c-15 -47 -44 -68 -93 -68c-15 0 -34 4 -43 11z" />
    <glyph glyph-name="u" unicode="u" horiz-adv-x="540" 
d="M41 118c0 19 4 42 13 69l93 287h68l-96 -294c-5 -17 -8 -34 -8 -49c0 -48 32 -83 85 -83c77 0 164 66 199 170l84 256h68l-154 -474h-68l28 87c-47 -65 -107 -97 -179 -97c-81 0 -133 51 -133 128z" />
    <glyph glyph-name="uacute" unicode="&#xfa;" horiz-adv-x="540" 
d="M41 118c0 19 4 42 13 69l93 287h68l-96 -294c-5 -17 -8 -34 -8 -49c0 -48 32 -83 85 -83c77 0 164 66 199 170l84 256h68l-154 -474h-68l28 87c-47 -65 -107 -97 -179 -97c-81 0 -133 51 -133 128zM337 555l103 133h100l-4 -12l-134 -121h-65z" />
    <glyph glyph-name="ubreve" unicode="&#x16d;" horiz-adv-x="540" 
d="M41 118c0 19 4 42 13 69l93 287h68l-96 -294c-5 -17 -8 -34 -8 -49c0 -48 32 -83 85 -83c77 0 164 66 199 170l84 256h68l-154 -474h-68l28 87c-47 -65 -107 -97 -179 -97c-81 0 -133 51 -133 128zM279 633c0 15 3 29 10 42h59c-5 -11 -8 -21 -8 -31c0 -21 19 -36 47 -36
c45 0 74 23 75 67h61c0 -76 -53 -119 -144 -119c-61 0 -99 28 -100 77z" />
    <glyph glyph-name="ucircumflex" unicode="&#xfb;" horiz-adv-x="540" 
d="M41 118c0 19 4 42 13 69l93 287h68l-96 -294c-5 -17 -8 -34 -8 -49c0 -48 32 -83 85 -83c77 0 164 66 199 170l84 256h68l-154 -474h-68l28 87c-47 -65 -107 -97 -179 -97c-81 0 -133 51 -133 128zM222 555l4 12l147 103h58l81 -103l-4 -12h-73l-42 76l-87 -76h-84z" />
    <glyph glyph-name="udieresis" unicode="&#xfc;" horiz-adv-x="540" 
d="M41 118c0 19 4 42 13 69l93 287h68l-96 -294c-5 -17 -8 -34 -8 -49c0 -48 32 -83 85 -83c77 0 164 66 199 170l84 256h68l-154 -474h-68l28 87c-47 -65 -107 -97 -179 -97c-81 0 -133 51 -133 128zM255 571l28 84h84l-28 -84h-84zM403 571l28 84h84l-28 -84h-84z" />
    <glyph glyph-name="ugrave" unicode="&#xf9;" horiz-adv-x="540" 
d="M41 118c0 19 4 42 13 69l93 287h68l-96 -294c-5 -17 -8 -34 -8 -49c0 -48 32 -83 85 -83c77 0 164 66 199 170l84 256h68l-154 -474h-68l28 87c-47 -65 -107 -97 -179 -97c-81 0 -133 51 -133 128zM337 555l-78 121l4 12h91l41 -133h-58z" />
    <glyph glyph-name="uhungarumlaut" unicode="&#x171;" horiz-adv-x="540" 
d="M41 118c0 19 4 42 13 69l93 287h68l-96 -294c-5 -17 -8 -34 -8 -49c0 -48 32 -83 85 -83c77 0 164 66 199 170l84 256h68l-154 -474h-68l28 87c-47 -65 -107 -97 -179 -97c-81 0 -133 51 -133 128zM252 555l103 133h100l-4 -12l-134 -121h-65zM414 555l103 133h100
l-4 -12l-134 -121h-65z" />
    <glyph glyph-name="umacron" unicode="&#x16b;" horiz-adv-x="540" 
d="M41 118c0 19 4 42 13 69l93 287h68l-96 -294c-5 -17 -8 -34 -8 -49c0 -48 32 -83 85 -83c77 0 164 66 199 170l84 256h68l-154 -474h-68l28 87c-47 -65 -107 -97 -179 -97c-81 0 -133 51 -133 128zM254 586l18 58h248l-18 -58h-248z" />
    <glyph glyph-name="uogonek" unicode="&#x173;" horiz-adv-x="540" 
d="M41 118c0 19 4 42 13 69l93 287h68l-96 -294c-5 -17 -8 -34 -8 -49c0 -48 32 -83 85 -83c77 0 164 66 199 170l84 256h68l-154 -474h-68l28 87c-47 -65 -107 -97 -179 -97c-81 0 -133 51 -133 128zM306 -185c-45 0 -72 30 -72 69c0 45 41 92 106 116h53
c-55 -25 -96 -65 -96 -97c0 -20 11 -30 32 -30c12 0 25 4 38 11l14 -51c-24 -13 -43 -18 -75 -18z" />
    <glyph glyph-name="uring" unicode="&#x16f;" horiz-adv-x="540" 
d="M41 118c0 19 4 42 13 69l93 287h68l-96 -294c-5 -17 -8 -34 -8 -49c0 -48 32 -83 85 -83c77 0 164 66 199 170l84 256h68l-154 -474h-68l28 87c-47 -65 -107 -97 -179 -97c-81 0 -133 51 -133 128zM301 627c0 47 36 83 83 83s83 -36 83 -83c0 -45 -36 -83 -83 -83
s-83 38 -83 83zM427 627c0 24 -19 43 -43 43s-43 -19 -43 -43s19 -43 43 -43s43 19 43 43z" />
    <glyph glyph-name="utilde" unicode="&#x169;" horiz-adv-x="540" 
d="M41 118c0 19 4 42 13 69l93 287h68l-96 -294c-5 -17 -8 -34 -8 -49c0 -48 32 -83 85 -83c77 0 164 66 199 170l84 256h68l-154 -474h-68l28 87c-47 -65 -107 -97 -179 -97c-81 0 -133 51 -133 128zM275 563l-49 6c3 55 48 98 105 98c31 0 47 -11 70 -31
c20 -16 31 -23 48 -23c28 0 47 23 52 54l49 -6c-7 -56 -49 -98 -105 -98c-31 0 -47 11 -70 31c-20 16 -31 23 -48 23c-28 0 -49 -23 -52 -54z" />
    <glyph glyph-name="v" unicode="v" horiz-adv-x="506" 
d="M163 474l29 -408l294 408h77l-344 -474h-86l-36 474h66z" />
    <glyph glyph-name="w" unicode="w" horiz-adv-x="728" 
d="M154 474l-12 -408l260 408h79l-15 -408l254 408h67l-296 -474h-86l19 404l-254 -404h-86l11 474h59z" />
    <glyph glyph-name="wacute" unicode="&#x1e83;" horiz-adv-x="728" 
d="M154 474l-12 -408l260 408h79l-15 -408l254 408h67l-296 -474h-86l19 404l-254 -404h-86l11 474h59zM436 555l103 133h100l-4 -12l-134 -121h-65z" />
    <glyph glyph-name="wcircumflex" unicode="&#x175;" horiz-adv-x="728" 
d="M154 474l-12 -408l260 408h79l-15 -408l254 408h67l-296 -474h-86l19 404l-254 -404h-86l11 474h59zM321 555l4 12l147 103h58l81 -103l-4 -12h-73l-42 76l-87 -76h-84z" />
    <glyph glyph-name="wdieresis" unicode="&#x1e85;" horiz-adv-x="728" 
d="M154 474l-12 -408l260 408h79l-15 -408l254 408h67l-296 -474h-86l19 404l-254 -404h-86l11 474h59zM354 571l28 84h84l-28 -84h-84zM502 571l28 84h84l-28 -84h-84z" />
    <glyph glyph-name="wgrave" unicode="&#x1e81;" horiz-adv-x="728" 
d="M154 474l-12 -408l260 408h79l-15 -408l254 408h67l-296 -474h-86l19 404l-254 -404h-86l11 474h59zM436 555l-78 121l4 12h91l41 -133h-58z" />
    <glyph glyph-name="x" unicode="x" horiz-adv-x="448" 
d="M492 474l-228 -228l93 -246h-68l-73 203l-195 -203h-84l255 260l-80 214h71l60 -171l164 171h85z" />
    <glyph glyph-name="y" unicode="y" horiz-adv-x="455" 
d="M444 474h73l-476 -659h-75l158 218l-37 441h67l30 -358z" />
    <glyph glyph-name="yacute" unicode="&#xfd;" horiz-adv-x="455" 
d="M444 474h73l-476 -659h-75l158 218l-37 441h67l30 -358zM285 555l103 133h100l-4 -12l-134 -121h-65z" />
    <glyph glyph-name="ycircumflex" unicode="&#x177;" horiz-adv-x="455" 
d="M444 474h73l-476 -659h-75l158 218l-37 441h67l30 -358zM170 555l4 12l147 103h58l81 -103l-4 -12h-73l-42 76l-87 -76h-84z" />
    <glyph glyph-name="ydieresis" unicode="&#xff;" horiz-adv-x="455" 
d="M444 474h73l-476 -659h-75l158 218l-37 441h67l30 -358zM203 571l28 84h84l-28 -84h-84zM351 571l28 84h84l-28 -84h-84z" />
    <glyph glyph-name="ygrave" unicode="&#x1ef3;" horiz-adv-x="455" 
d="M444 474h73l-476 -659h-75l158 218l-37 441h67l30 -358zM285 555l-78 121l4 12h91l41 -133h-58z" />
    <glyph glyph-name="z" unicode="z" horiz-adv-x="489" 
d="M362 0h-395l17 53l415 363h-292l19 58h385l-17 -53l-415 -363h302z" />
    <glyph glyph-name="zacute" unicode="&#x17a;" horiz-adv-x="489" 
d="M362 0h-395l17 53l415 363h-292l19 58h385l-17 -53l-415 -363h302zM303 555l103 133h100l-4 -12l-134 -121h-65z" />
    <glyph glyph-name="zcaron" unicode="&#x17e;" horiz-adv-x="489" 
d="M362 0h-395l17 53l415 363h-292l19 58h385l-17 -53l-415 -363h302zM300 555l-81 103l4 12h71l44 -76l84 76h87l-4 -12l-144 -103h-61z" />
    <glyph glyph-name="zdotaccent" unicode="&#x17c;" horiz-adv-x="489" 
d="M362 0h-395l17 53l415 363h-292l19 58h385l-17 -53l-415 -363h302zM301 571l26 83h78l-26 -83h-78z" />
    <glyph glyph-name="uni01B6" unicode="&#x1b6;" horiz-adv-x="600" 
d="M-33 0l17 53l185 162h-79l17 52h122l170 149h-292l19 58h385l-17 -53l-176 -154h82l-17 -52h-125l-179 -157h302l-19 -58h-395z" />
    <glyph glyph-name="adieresis.ss01" horiz-adv-x="582" 
d="M40 183c-3 174 137 304 293 301c81 0 142 -48 155 -109l33 99h68l-154 -474h-63l28 84c-36 -56 -99 -94 -186 -94c-95 0 -174 76 -174 193zM460 301c0 73 -55 125 -135 125c-118 0 -215 -98 -215 -238c0 -95 51 -140 123 -140c109 -3 231 124 227 253zM265 613
c0 25 20 45 45 45s45 -20 45 -45s-20 -45 -45 -45s-45 20 -45 45zM417 613c0 25 20 45 45 45s45 -20 45 -45s-20 -45 -45 -45s-45 20 -45 45z" />
    <glyph glyph-name="cdotaccent.ss01" horiz-adv-x="573" 
d="M45 203c0 163 119 281 300 281c111 0 182 -76 188 -167l-59 -18c-8 79 -63 127 -140 127c-128 0 -219 -89 -219 -221c0 -96 59 -157 147 -157c93 0 163 51 192 142l61 -21c-40 -112 -135 -179 -264 -179c-114 0 -206 80 -206 213zM396 658c27 0 46 -19 46 -46
c0 -25 -19 -46 -46 -46c-25 0 -46 21 -46 46c0 27 21 46 46 46z" />
    <glyph glyph-name="dcaron.ss01" horiz-adv-x="651" 
d="M39 178c-3 178 137 309 293 306c81 0 142 -48 155 -109l106 325h68l-227 -700h-62l30 92c-37 -63 -102 -102 -193 -102c-90 0 -170 77 -170 188zM459 301c0 73 -55 125 -135 125c-118 0 -215 -99 -215 -244c0 -89 51 -134 123 -134c109 -3 231 124 227 253zM637 512
l14 43h30c20 0 37 10 37 26c0 11 -5 14 -18 22c-17 10 -25 24 -25 43c0 36 26 58 61 58c29 0 48 -17 48 -45c0 -8 -1 -16 -4 -23l-17 -53c-16 -48 -43 -71 -94 -71h-32z" />
    <glyph glyph-name="edieresis.ss01" horiz-adv-x="507" 
d="M517 331c0 -24 -5 -54 -15 -89l-4 -14h-383c-1 -13 -2 -23 -2 -30c0 -95 59 -150 139 -150c81 0 137 38 170 114l59 -24c-46 -99 -127 -148 -242 -148c-105 0 -196 78 -196 207c0 153 115 287 298 287c109 0 176 -61 176 -153zM449 324c0 67 -47 102 -119 102
c-97 0 -172 -61 -203 -146h317c3 13 5 28 5 44zM229 613c0 25 20 45 45 45s45 -20 45 -45s-20 -45 -45 -45s-45 20 -45 45zM381 613c0 25 20 45 45 45s45 -20 45 -45s-20 -45 -45 -45s-45 20 -45 45z" />
    <glyph glyph-name="edotaccent.ss01" horiz-adv-x="546" 
d="M517 331c0 -24 -5 -54 -15 -89l-4 -14h-383c-1 -13 -2 -23 -2 -30c0 -95 59 -150 139 -150c81 0 137 38 170 114l59 -24c-46 -99 -127 -148 -242 -148c-105 0 -196 78 -196 207c0 153 115 287 298 287c109 0 176 -61 176 -153zM449 324c0 67 -47 102 -119 102
c-97 0 -172 -61 -203 -146h317c3 13 5 28 5 44zM391 658c27 0 46 -19 46 -46c0 -25 -19 -46 -46 -46c-25 0 -46 21 -46 46c0 27 21 46 46 46z" />
    <glyph glyph-name="gcommaaccent.ss01" horiz-adv-x="586" 
d="M-20 -53l66 15c1 -69 51 -112 128 -112c100 0 166 64 207 183l17 48c-45 -55 -103 -81 -180 -81c-92 0 -177 70 -177 185c-2 169 124 302 295 299c93 0 148 -55 160 -99l29 89h68l-149 -457c-49 -148 -140 -225 -284 -225c-104 0 -173 59 -180 155zM466 299
c0 68 -52 127 -137 127c-120 0 -219 -88 -219 -229c0 -87 50 -139 127 -139c121 -3 231 112 229 241zM344 588c0 7 1 13 3 20l23 71c13 43 41 64 90 64h36l-11 -33h-29c-31 0 -51 -18 -51 -39c0 -11 6 -21 19 -29c15 -9 22 -23 22 -42c0 -32 -26 -54 -57 -54
c-24 0 -45 17 -45 42z" />
    <glyph glyph-name="gdotaccent.ss01" horiz-adv-x="586" 
d="M-20 -53l66 15c1 -69 51 -112 128 -112c100 0 166 64 207 183l17 48c-45 -55 -103 -81 -180 -81c-92 0 -177 70 -177 185c-2 169 124 302 295 299c93 0 148 -55 160 -99l29 89h68l-149 -457c-49 -148 -140 -225 -284 -225c-104 0 -173 59 -180 155zM466 299
c0 68 -52 127 -137 127c-120 0 -219 -88 -219 -229c0 -87 50 -139 127 -139c121 -3 231 112 229 241zM398 658c27 0 46 -19 46 -46c0 -25 -19 -46 -46 -46c-25 0 -46 21 -46 46c0 27 21 46 46 46z" />
    <glyph glyph-name="i.ss01" horiz-adv-x="208" 
d="M147 474h68l-154 -474h-68zM225 658c27 0 46 -19 46 -46c0 -25 -19 -46 -46 -46c-25 0 -46 21 -46 46c0 27 21 46 46 46z" />
    <glyph glyph-name="idieresis.ss01" horiz-adv-x="208" 
d="M147 474h68l-154 -474h-68zM106 613c0 25 20 45 45 45s45 -20 45 -45s-20 -45 -45 -45s-45 20 -45 45zM258 613c0 25 20 45 45 45s45 -20 45 -45s-20 -45 -45 -45s-45 20 -45 45z" />
    <glyph glyph-name="i.loclTRK.ss01" horiz-adv-x="208" 
d="M147 474h68l-154 -474h-68zM225 658c27 0 46 -19 46 -46c0 -25 -19 -46 -46 -46c-25 0 -46 21 -46 46c0 27 21 46 46 46z" />
    <glyph glyph-name="ij.ss01" horiz-adv-x="416" 
d="M147 474h68l-154 -474h-68zM225 658c27 0 46 -19 46 -46c0 -25 -19 -46 -46 -46c-25 0 -46 21 -46 46c0 27 21 46 46 46zM137 -198l218 672h68l-218 -672h-68zM433 658c27 0 46 -19 46 -46c0 -25 -19 -46 -46 -46c-25 0 -46 21 -46 46c0 27 21 46 46 46z" />
    <glyph glyph-name="iogonek.ss01" horiz-adv-x="208" 
d="M147 474h68l-154 -474h-68zM225 658c27 0 46 -19 46 -46c0 -25 -19 -46 -46 -46c-25 0 -46 21 -46 46c0 27 21 46 46 46zM-28 -185c-45 0 -72 30 -72 69c0 45 41 92 106 116h53c-55 -25 -96 -65 -96 -97c0 -20 11 -30 32 -30c12 0 25 4 38 11l14 -51
c-24 -13 -43 -18 -75 -18z" />
    <glyph glyph-name="j.ss01" horiz-adv-x="208" 
d="M-71 -198l218 672h68l-218 -672h-68zM225 658c27 0 46 -19 46 -46c0 -25 -19 -46 -46 -46c-25 0 -46 21 -46 46c0 27 21 46 46 46z" />
    <glyph glyph-name="kcommaaccent.ss01" horiz-adv-x="494" 
d="M523 474l-237 -190l105 -284h-73l-88 238l-124 -99l-45 -139h-68l228 700h68l-149 -457l287 231h96zM59 -229l16 30c8 -5 18 -8 30 -8c29 0 50 16 50 37c0 12 -5 18 -18 27c-12 8 -22 22 -22 42c0 31 21 54 52 54c29 0 48 -20 48 -47c0 -7 -1 -13 -3 -20l-16 -48
c-20 -60 -47 -78 -94 -78c-18 0 -32 4 -43 11z" />
    <glyph glyph-name="lcaron.ss01" horiz-adv-x="294" 
d="M-7 0l228 700h68l-228 -700h-68zM280 512l14 43h30c20 0 37 10 37 26c0 11 -5 14 -18 22c-17 10 -25 24 -25 43c0 36 26 58 61 58c29 0 48 -17 48 -45c0 -8 -1 -16 -4 -23l-17 -53c-16 -48 -43 -71 -94 -71h-32z" />
    <glyph glyph-name="lcommaaccent.ss01" horiz-adv-x="209" 
d="M-7 0l228 700h68l-228 -700h-68zM-106 -229l16 30c8 -5 18 -8 30 -8c29 0 50 16 50 37c0 12 -5 18 -18 27c-12 8 -22 22 -22 42c0 31 21 54 52 54c29 0 48 -20 48 -47c0 -7 -1 -13 -3 -20l-16 -48c-20 -60 -47 -78 -94 -78c-18 0 -32 4 -43 11z" />
    <glyph glyph-name="ldot.ss01" horiz-adv-x="382" 
d="M-7 0l228 700h68l-228 -700h-68zM281 350c0 28 22 50 50 50s50 -22 50 -50s-22 -50 -50 -50s-50 22 -50 50z" />
    <glyph glyph-name="ncommaaccent.ss01" horiz-adv-x="540" 
d="M-7 0l154 474h68l-28 -87c47 65 107 97 179 97c81 0 133 -51 133 -128c0 -19 -4 -42 -13 -69l-93 -287h-68l96 294c5 17 8 34 8 49c0 48 -32 83 -85 83c-77 0 -164 -66 -199 -170l-84 -256h-68zM60 -229l16 30c8 -5 18 -8 30 -8c29 0 50 16 50 37c0 12 -5 18 -18 27
c-12 8 -22 22 -22 42c0 31 21 54 52 54c29 0 48 -20 48 -47c0 -7 -1 -13 -3 -20l-16 -48c-20 -60 -47 -78 -94 -78c-18 0 -32 4 -43 11z" />
    <glyph glyph-name="odieresis.ss01" horiz-adv-x="544" 
d="M39 181c0 168 124 303 311 303c113 0 191 -79 191 -191c0 -168 -124 -303 -311 -303c-110 0 -191 80 -191 191zM469 286c0 83 -53 140 -134 140c-128 2 -227 -114 -224 -238c0 -83 53 -140 134 -140c128 -2 227 114 224 238zM234 613c0 25 20 45 45 45s45 -20 45 -45
s-20 -45 -45 -45s-45 20 -45 45zM386 613c0 25 20 45 45 45s45 -20 45 -45s-20 -45 -45 -45s-45 20 -45 45z" />
    <glyph glyph-name="rcommaaccent.ss01" horiz-adv-x="432" 
d="M-7 0l154 474h68l-22 -69c40 53 88 79 148 79c61 0 95 -36 95 -89c0 -23 -6 -49 -17 -78h-65c9 22 14 41 14 56c0 35 -21 53 -64 53c-61 0 -122 -58 -149 -139l-94 -287h-68zM-106 -229l16 30c8 -5 18 -8 30 -8c29 0 50 16 50 37c0 12 -5 18 -18 27c-12 8 -22 22 -22 42
c0 31 21 54 52 54c29 0 48 -20 48 -47c0 -7 -1 -13 -3 -20l-16 -48c-20 -60 -47 -78 -94 -78c-18 0 -32 4 -43 11z" />
    <glyph glyph-name="scommaaccent.ss01" horiz-adv-x="483" 
d="M9 145l61 15c3 -69 52 -112 131 -112c84 0 139 38 139 95c0 45 -29 64 -114 84c-84 19 -126 62 -126 128c0 80 70 129 177 129c91 0 148 -45 159 -120l-58 -11c-8 45 -46 79 -106 79c-67 0 -110 -30 -110 -78c0 -40 37 -63 112 -79c91 -19 134 -59 134 -126
c0 -92 -84 -159 -209 -159c-121 0 -185 66 -190 155zM56 -229l16 30c8 -5 18 -8 30 -8c29 0 50 16 50 37c0 12 -5 18 -18 27c-12 8 -22 22 -22 42c0 31 21 54 52 54c29 0 48 -20 48 -47c0 -7 -1 -13 -3 -20l-16 -48c-20 -60 -47 -78 -94 -78c-18 0 -32 4 -43 11z" />
    <glyph glyph-name="tcaron.ss01" horiz-adv-x="347" 
d="M43 0l137 422h-92l17 52h92l46 141h68l-46 -141h137l-17 -52h-137l-137 -422h-68zM347 528l14 43h30c20 0 37 10 37 26c0 11 -5 14 -18 22c-17 10 -25 24 -25 43c0 36 26 58 61 58c29 0 48 -17 48 -45c0 -8 -1 -16 -4 -23l-17 -53c-16 -48 -43 -71 -94 -71h-32z" />
    <glyph glyph-name="uni021B.ss01" horiz-adv-x="347" 
d="M43 0l137 422h-92l17 52h92l46 141h68l-46 -141h137l-17 -52h-137l-137 -422h-68zM-53 -229l16 30c8 -5 18 -8 30 -8c29 0 50 16 50 37c0 12 -5 18 -18 27c-12 8 -22 22 -22 42c0 31 21 54 52 54c29 0 48 -20 48 -47c0 -7 -1 -13 -3 -20l-16 -48c-20 -60 -47 -78 -94 -78
c-18 0 -32 4 -43 11z" />
    <glyph glyph-name="udieresis.ss01" horiz-adv-x="520" 
d="M41 118c0 19 4 42 13 69l93 287h68l-96 -294c-5 -17 -8 -34 -8 -49c0 -48 32 -83 85 -83c77 0 164 66 199 170l84 256h68l-154 -474h-68l28 87c-47 -65 -107 -97 -179 -97c-81 0 -133 51 -133 128zM221 613c0 25 20 45 45 45s45 -20 45 -45s-20 -45 -45 -45
s-45 20 -45 45zM373 613c0 25 20 45 45 45s45 -20 45 -45s-20 -45 -45 -45s-45 20 -45 45z" />
    <glyph glyph-name="wdieresis.ss01" horiz-adv-x="728" 
d="M154 474l-12 -408l260 408h79l-15 -408l254 408h67l-296 -474h-86l19 404l-254 -404h-86l11 474h59zM366 613c0 25 20 45 45 45s45 -20 45 -45s-20 -45 -45 -45s-45 20 -45 45zM518 613c0 25 20 45 45 45s45 -20 45 -45s-20 -45 -45 -45s-45 20 -45 45z" />
    <glyph glyph-name="ydieresis.ss01" horiz-adv-x="455" 
d="M444 474h73l-476 -659h-75l158 218l-37 441h67l30 -358zM215 613c0 25 20 45 45 45s45 -20 45 -45s-20 -45 -45 -45s-45 20 -45 45zM367 613c0 25 20 45 45 45s45 -20 45 -45s-20 -45 -45 -45s-45 20 -45 45z" />
    <glyph glyph-name="zdotaccent.ss01" horiz-adv-x="489" 
d="M362 0h-395l17 53l415 363h-292l19 58h385l-17 -53l-415 -363h302zM352 658c27 0 46 -19 46 -46c0 -25 -19 -46 -46 -46c-25 0 -46 21 -46 46c0 27 21 46 46 46z" />
    <glyph glyph-name="a.ss02" horiz-adv-x="538" 
d="M33 119c0 107 84 157 215 157h165l10 32c3 9 4 18 4 26c0 55 -53 92 -122 92c-71 0 -130 -36 -149 -103l-59 17c29 92 103 144 222 144c107 0 176 -61 176 -141c0 -15 -3 -32 -9 -50l-95 -293h-68l21 64c-41 -51 -92 -74 -164 -74c-91 0 -147 57 -147 129zM380 174l16 50
h-149c-87 0 -146 -32 -146 -100c0 -48 38 -76 91 -76c91 0 163 47 188 126z" />
    <glyph glyph-name="aacute.ss02" horiz-adv-x="538" 
d="M33 119c0 107 84 157 215 157h165l10 32c3 9 4 18 4 26c0 55 -53 92 -122 92c-71 0 -130 -36 -149 -103l-59 17c29 92 103 144 222 144c107 0 176 -61 176 -141c0 -15 -3 -32 -9 -50l-95 -293h-68l21 64c-41 -51 -92 -74 -164 -74c-91 0 -147 57 -147 129zM380 174l16 50
h-149c-87 0 -146 -32 -146 -100c0 -48 38 -76 91 -76c91 0 163 47 188 126zM317 555l103 133h100l-4 -12l-134 -121h-65z" />
    <glyph glyph-name="abreve.ss02" horiz-adv-x="538" 
d="M33 119c0 107 84 157 215 157h165l10 32c3 9 4 18 4 26c0 55 -53 92 -122 92c-71 0 -130 -36 -149 -103l-59 17c29 92 103 144 222 144c107 0 176 -61 176 -141c0 -15 -3 -32 -9 -50l-95 -293h-68l21 64c-41 -51 -92 -74 -164 -74c-91 0 -147 57 -147 129zM380 174l16 50
h-149c-87 0 -146 -32 -146 -100c0 -48 38 -76 91 -76c91 0 163 47 188 126zM259 633c0 15 3 29 10 42h59c-5 -11 -8 -21 -8 -31c0 -21 19 -36 47 -36c45 0 74 23 75 67h61c0 -76 -53 -119 -144 -119c-61 0 -99 28 -100 77z" />
    <glyph glyph-name="acircumflex.ss02" horiz-adv-x="538" 
d="M33 119c0 107 84 157 215 157h165l10 32c3 9 4 18 4 26c0 55 -53 92 -122 92c-71 0 -130 -36 -149 -103l-59 17c29 92 103 144 222 144c107 0 176 -61 176 -141c0 -15 -3 -32 -9 -50l-95 -293h-68l21 64c-41 -51 -92 -74 -164 -74c-91 0 -147 57 -147 129zM380 174l16 50
h-149c-87 0 -146 -32 -146 -100c0 -48 38 -76 91 -76c91 0 163 47 188 126zM202 555l4 12l147 103h58l81 -103l-4 -12h-73l-42 76l-87 -76h-84z" />
    <glyph glyph-name="adieresis.ss02" horiz-adv-x="538" 
d="M33 119c0 107 84 157 215 157h165l10 32c3 9 4 18 4 26c0 55 -53 92 -122 92c-71 0 -130 -36 -149 -103l-59 17c29 92 103 144 222 144c107 0 176 -61 176 -141c0 -15 -3 -32 -9 -50l-95 -293h-68l21 64c-41 -51 -92 -74 -164 -74c-91 0 -147 57 -147 129zM380 174l16 50
h-149c-87 0 -146 -32 -146 -100c0 -48 38 -76 91 -76c91 0 163 47 188 126zM235 571l28 84h84l-28 -84h-84zM383 571l28 84h84l-28 -84h-84z" />
    <glyph glyph-name="agrave.ss02" horiz-adv-x="538" 
d="M33 119c0 107 84 157 215 157h165l10 32c3 9 4 18 4 26c0 55 -53 92 -122 92c-71 0 -130 -36 -149 -103l-59 17c29 92 103 144 222 144c107 0 176 -61 176 -141c0 -15 -3 -32 -9 -50l-95 -293h-68l21 64c-41 -51 -92 -74 -164 -74c-91 0 -147 57 -147 129zM380 174l16 50
h-149c-87 0 -146 -32 -146 -100c0 -48 38 -76 91 -76c91 0 163 47 188 126zM317 555l-78 121l4 12h91l41 -133h-58z" />
    <glyph glyph-name="amacron.ss02" horiz-adv-x="538" 
d="M33 119c0 107 84 157 215 157h165l10 32c3 9 4 18 4 26c0 55 -53 92 -122 92c-71 0 -130 -36 -149 -103l-59 17c29 92 103 144 222 144c107 0 176 -61 176 -141c0 -15 -3 -32 -9 -50l-95 -293h-68l21 64c-41 -51 -92 -74 -164 -74c-91 0 -147 57 -147 129zM380 174l16 50
h-149c-87 0 -146 -32 -146 -100c0 -48 38 -76 91 -76c91 0 163 47 188 126zM234 586l18 58h248l-18 -58h-248z" />
    <glyph glyph-name="aogonek.ss02" horiz-adv-x="538" 
d="M33 119c0 107 84 157 215 157h165l10 32c3 9 4 18 4 26c0 55 -53 92 -122 92c-71 0 -130 -36 -149 -103l-59 17c29 92 103 144 222 144c107 0 176 -61 176 -141c0 -15 -3 -32 -9 -50l-95 -293h-68l21 64c-41 -51 -92 -74 -164 -74c-91 0 -147 57 -147 129zM380 174l16 50
h-149c-87 0 -146 -32 -146 -100c0 -48 38 -76 91 -76c91 0 163 47 188 126zM304 -185c-45 0 -72 30 -72 69c0 45 41 92 106 116h53c-55 -25 -96 -65 -96 -97c0 -20 11 -30 32 -30c12 0 25 4 38 11l14 -51c-24 -13 -43 -18 -75 -18z" />
    <glyph glyph-name="aring.ss02" horiz-adv-x="538" 
d="M33 119c0 107 84 157 215 157h165l10 32c3 9 4 18 4 26c0 55 -53 92 -122 92c-71 0 -130 -36 -149 -103l-59 17c29 92 103 144 222 144c107 0 176 -61 176 -141c0 -15 -3 -32 -9 -50l-95 -293h-68l21 64c-41 -51 -92 -74 -164 -74c-91 0 -147 57 -147 129zM380 174l16 50
h-149c-87 0 -146 -32 -146 -100c0 -48 38 -76 91 -76c91 0 163 47 188 126zM281 627c0 47 36 83 83 83s83 -36 83 -83c0 -45 -36 -83 -83 -83s-83 38 -83 83zM407 627c0 24 -19 43 -43 43s-43 -19 -43 -43s19 -43 43 -43s43 19 43 43z" />
    <glyph glyph-name="aringacute.ss02" horiz-adv-x="538" 
d="M33 119c0 107 84 157 215 157h165l10 32c3 9 4 18 4 26c0 55 -53 92 -122 92c-71 0 -130 -36 -149 -103l-59 17c29 92 103 144 222 144c107 0 176 -61 176 -141c0 -15 -3 -32 -9 -50l-95 -293h-68l21 64c-41 -51 -92 -74 -164 -74c-91 0 -147 57 -147 129zM380 174l16 50
h-149c-87 0 -146 -32 -146 -100c0 -48 38 -76 91 -76c91 0 163 47 188 126zM281 627c0 47 36 83 83 83s83 -36 83 -83c0 -45 -36 -83 -83 -83s-83 38 -83 83zM407 627c0 24 -19 43 -43 43s-43 -19 -43 -43s19 -43 43 -43s43 19 43 43zM343 691l103 133h100l-4 -12l-134 -121
h-65z" />
    <glyph glyph-name="atilde.ss02" horiz-adv-x="538" 
d="M33 119c0 107 84 157 215 157h165l10 32c3 9 4 18 4 26c0 55 -53 92 -122 92c-71 0 -130 -36 -149 -103l-59 17c29 92 103 144 222 144c107 0 176 -61 176 -141c0 -15 -3 -32 -9 -50l-95 -293h-68l21 64c-41 -51 -92 -74 -164 -74c-91 0 -147 57 -147 129zM380 174l16 50
h-149c-87 0 -146 -32 -146 -100c0 -48 38 -76 91 -76c91 0 163 47 188 126zM255 563l-49 6c3 55 48 98 105 98c31 0 47 -11 70 -31c20 -16 31 -23 48 -23c28 0 47 23 52 54l49 -6c-7 -56 -49 -98 -105 -98c-31 0 -47 11 -70 31c-20 16 -31 23 -48 23c-28 0 -49 -23 -52 -54z
" />
    <glyph glyph-name="ae.ss02" horiz-adv-x="906" 
d="M33 119c0 107 85 161 216 161h165l9 28c3 9 4 18 4 26c0 55 -53 92 -122 92c-71 0 -130 -36 -149 -103l-59 17c29 92 103 144 222 144c81 0 146 -38 163 -101c49 65 126 101 219 101c109 0 176 -61 176 -153c0 -24 -5 -54 -15 -89l-4 -14h-383c-1 -13 -2 -23 -2 -30
c0 -95 59 -150 139 -150c81 0 137 38 170 114l59 -24c-46 -99 -127 -148 -242 -148c-77 0 -149 44 -172 121l-36 -111h-68l21 64c-41 -51 -92 -74 -164 -74c-91 0 -147 57 -147 129zM487 280h317c3 13 5 28 5 44c0 67 -47 102 -119 102c-97 0 -172 -61 -203 -146zM380 174
l17 54h-149c-85 0 -147 -36 -147 -104c0 -48 38 -76 91 -76c91 0 163 49 188 126z" />
    <glyph glyph-name="aeacute.ss02" horiz-adv-x="906" 
d="M33 119c0 107 85 161 216 161h165l9 28c3 9 4 18 4 26c0 55 -53 92 -122 92c-71 0 -130 -36 -149 -103l-59 17c29 92 103 144 222 144c81 0 146 -38 163 -101c49 65 126 101 219 101c109 0 176 -61 176 -153c0 -24 -5 -54 -15 -89l-4 -14h-383c-1 -13 -2 -23 -2 -30
c0 -95 59 -150 139 -150c81 0 137 38 170 114l59 -24c-46 -99 -127 -148 -242 -148c-77 0 -149 44 -172 121l-36 -111h-68l21 64c-41 -51 -92 -74 -164 -74c-91 0 -147 57 -147 129zM487 280h317c3 13 5 28 5 44c0 67 -47 102 -119 102c-97 0 -172 -61 -203 -146zM380 174
l17 54h-149c-85 0 -147 -36 -147 -104c0 -48 38 -76 91 -76c91 0 163 49 188 126zM503 555l103 133h100l-4 -12l-134 -121h-65z" />
    <glyph glyph-name="adieresis.ss01.ss02" horiz-adv-x="538" 
d="M33 119c0 107 84 157 215 157h165l10 32c3 9 4 18 4 26c0 55 -53 92 -122 92c-71 0 -130 -36 -149 -103l-59 17c29 92 103 144 222 144c107 0 176 -61 176 -141c0 -15 -3 -32 -9 -50l-95 -293h-68l21 64c-41 -51 -92 -74 -164 -74c-91 0 -147 57 -147 129zM380 174l16 50
h-149c-87 0 -146 -32 -146 -100c0 -48 38 -76 91 -76c91 0 163 47 188 126zM247 613c0 25 20 45 45 45s45 -20 45 -45s-20 -45 -45 -45s-45 20 -45 45zM399 613c0 25 20 45 45 45s45 -20 45 -45s-20 -45 -45 -45s-45 20 -45 45z" />
    <glyph glyph-name="g.ss03" horiz-adv-x="508" 
d="M444 419c16 -23 24 -51 24 -82c0 -118 -95 -199 -226 -199c-49 0 -88 14 -118 42c-34 -13 -51 -31 -51 -54c0 -28 27 -44 59 -44h107c92 0 143 -48 143 -127c0 -105 -86 -163 -249 -163c-121 0 -197 64 -197 140c0 61 37 103 97 123c-16 17 -24 38 -24 62
c0 49 29 83 86 102c-10 20 -15 42 -15 66c0 123 95 199 228 199c41 0 75 -10 104 -31c20 44 62 69 122 69l8 -58c-55 0 -81 -12 -98 -45zM401 331c0 56 -44 95 -108 95c-92 0 -145 -51 -145 -136c0 -60 44 -94 103 -94c89 0 150 56 150 135zM217 24h-99c-9 0 -21 1 -37 4
c-51 -17 -76 -50 -76 -91c0 -57 50 -87 142 -87c96 0 166 32 166 101c0 45 -35 73 -96 73z" />
    <glyph glyph-name="gbreve.ss03" horiz-adv-x="508" 
d="M444 419c16 -23 24 -51 24 -82c0 -118 -95 -199 -226 -199c-49 0 -88 14 -118 42c-34 -13 -51 -31 -51 -54c0 -28 27 -44 59 -44h107c92 0 143 -48 143 -127c0 -105 -86 -163 -249 -163c-121 0 -197 64 -197 140c0 61 37 103 97 123c-16 17 -24 38 -24 62
c0 49 29 83 86 102c-10 20 -15 42 -15 66c0 123 95 199 228 199c41 0 75 -10 104 -31c20 44 62 69 122 69l8 -58c-55 0 -81 -12 -98 -45zM401 331c0 56 -44 95 -108 95c-92 0 -145 -51 -145 -136c0 -60 44 -94 103 -94c89 0 150 56 150 135zM217 24h-99c-9 0 -21 1 -37 4
c-51 -17 -76 -50 -76 -91c0 -57 50 -87 142 -87c96 0 166 32 166 101c0 45 -35 73 -96 73zM251 633c0 15 3 29 10 42h59c-5 -11 -8 -21 -8 -31c0 -21 19 -36 47 -36c45 0 74 23 75 67h61c0 -76 -53 -119 -144 -119c-61 0 -99 28 -100 77z" />
    <glyph glyph-name="gcircumflex.ss03" horiz-adv-x="508" 
d="M444 419c16 -23 24 -51 24 -82c0 -118 -95 -199 -226 -199c-49 0 -88 14 -118 42c-34 -13 -51 -31 -51 -54c0 -28 27 -44 59 -44h107c92 0 143 -48 143 -127c0 -105 -86 -163 -249 -163c-121 0 -197 64 -197 140c0 61 37 103 97 123c-16 17 -24 38 -24 62
c0 49 29 83 86 102c-10 20 -15 42 -15 66c0 123 95 199 228 199c41 0 75 -10 104 -31c20 44 62 69 122 69l8 -58c-55 0 -81 -12 -98 -45zM401 331c0 56 -44 95 -108 95c-92 0 -145 -51 -145 -136c0 -60 44 -94 103 -94c89 0 150 56 150 135zM217 24h-99c-9 0 -21 1 -37 4
c-51 -17 -76 -50 -76 -91c0 -57 50 -87 142 -87c96 0 166 32 166 101c0 45 -35 73 -96 73zM194 555l4 12l147 103h58l81 -103l-4 -12h-73l-42 76l-87 -76h-84z" />
    <glyph glyph-name="gcommaaccent.ss03" horiz-adv-x="508" 
d="M444 419c16 -23 24 -51 24 -82c0 -118 -95 -199 -226 -199c-49 0 -88 14 -118 42c-34 -13 -51 -31 -51 -54c0 -28 27 -44 59 -44h107c92 0 143 -48 143 -127c0 -105 -86 -163 -249 -163c-121 0 -197 64 -197 140c0 61 37 103 97 123c-16 17 -24 38 -24 62
c0 49 29 83 86 102c-10 20 -15 42 -15 66c0 123 95 199 228 199c41 0 75 -10 104 -31c20 44 62 69 122 69l8 -58c-55 0 -81 -12 -98 -45zM401 331c0 56 -44 95 -108 95c-92 0 -145 -51 -145 -136c0 -60 44 -94 103 -94c89 0 150 56 150 135zM217 24h-99c-9 0 -21 1 -37 4
c-51 -17 -76 -50 -76 -91c0 -57 50 -87 142 -87c96 0 166 32 166 101c0 45 -35 73 -96 73zM323 542l37 114c19 59 45 74 97 74h37l-14 -43h-33c-27 0 -45 -14 -45 -35c0 -16 9 -24 27 -24h8l-28 -86h-86z" />
    <glyph glyph-name="gdotaccent.ss03" horiz-adv-x="508" 
d="M444 419c16 -23 24 -51 24 -82c0 -118 -95 -199 -226 -199c-49 0 -88 14 -118 42c-34 -13 -51 -31 -51 -54c0 -28 27 -44 59 -44h107c92 0 143 -48 143 -127c0 -105 -86 -163 -249 -163c-121 0 -197 64 -197 140c0 61 37 103 97 123c-16 17 -24 38 -24 62
c0 49 29 83 86 102c-10 20 -15 42 -15 66c0 123 95 199 228 199c41 0 75 -10 104 -31c20 44 62 69 122 69l8 -58c-55 0 -81 -12 -98 -45zM401 331c0 56 -44 95 -108 95c-92 0 -145 -51 -145 -136c0 -60 44 -94 103 -94c89 0 150 56 150 135zM217 24h-99c-9 0 -21 1 -37 4
c-51 -17 -76 -50 -76 -91c0 -57 50 -87 142 -87c96 0 166 32 166 101c0 45 -35 73 -96 73zM307 571l26 83h78l-26 -83h-78z" />
    <glyph glyph-name="gcommaaccent.ss01.ss03" horiz-adv-x="508" 
d="M444 419c16 -23 24 -51 24 -82c0 -118 -95 -199 -226 -199c-49 0 -88 14 -118 42c-34 -13 -51 -31 -51 -54c0 -28 27 -44 59 -44h107c92 0 143 -48 143 -127c0 -105 -86 -163 -249 -163c-121 0 -197 64 -197 140c0 61 37 103 97 123c-16 17 -24 38 -24 62
c0 49 29 83 86 102c-10 20 -15 42 -15 66c0 123 95 199 228 199c41 0 75 -10 104 -31c20 44 62 69 122 69l8 -58c-55 0 -81 -12 -98 -45zM401 331c0 56 -44 95 -108 95c-92 0 -145 -51 -145 -136c0 -60 44 -94 103 -94c89 0 150 56 150 135zM217 24h-99c-9 0 -21 1 -37 4
c-51 -17 -76 -50 -76 -91c0 -57 50 -87 142 -87c96 0 166 32 166 101c0 45 -35 73 -96 73zM304 588c0 7 1 13 3 20l23 71c13 43 41 64 90 64h36l-11 -33h-29c-31 0 -51 -18 -51 -39c0 -11 6 -21 19 -29c15 -9 22 -23 22 -42c0 -32 -26 -54 -57 -54c-24 0 -45 17 -45 42z" />
    <glyph glyph-name="gdotaccent.ss01.ss03" horiz-adv-x="508" 
d="M444 419c16 -23 24 -51 24 -82c0 -118 -95 -199 -226 -199c-49 0 -88 14 -118 42c-34 -13 -51 -31 -51 -54c0 -28 27 -44 59 -44h107c92 0 143 -48 143 -127c0 -105 -86 -163 -249 -163c-121 0 -197 64 -197 140c0 61 37 103 97 123c-16 17 -24 38 -24 62
c0 49 29 83 86 102c-10 20 -15 42 -15 66c0 123 95 199 228 199c41 0 75 -10 104 -31c20 44 62 69 122 69l8 -58c-55 0 -81 -12 -98 -45zM401 331c0 56 -44 95 -108 95c-92 0 -145 -51 -145 -136c0 -60 44 -94 103 -94c89 0 150 56 150 135zM217 24h-99c-9 0 -21 1 -37 4
c-51 -17 -76 -50 -76 -91c0 -57 50 -87 142 -87c96 0 166 32 166 101c0 45 -35 73 -96 73zM358 658c27 0 46 -19 46 -46c0 -25 -19 -46 -46 -46c-25 0 -46 21 -46 46c0 27 21 46 46 46z" />
    <glyph glyph-name="tcaron.ss01.ss04" horiz-adv-x="414" 
d="M79 87c0 15 3 33 9 53l92 282h-92l17 52h92l46 141h68l-46 -141h157l-17 -52h-157l-96 -294c-4 -13 -6 -24 -6 -35c0 -29 19 -45 50 -45c43 0 75 22 96 67l55 -15c-32 -73 -86 -110 -162 -110c-64 0 -106 37 -106 97zM347 528l14 43h30c20 0 37 10 37 26
c0 11 -5 14 -18 22c-17 10 -25 24 -25 43c0 36 26 58 61 58c29 0 48 -17 48 -45c0 -8 -1 -16 -4 -23l-17 -53c-16 -48 -43 -71 -94 -71h-32z" />
    <glyph glyph-name="uni021B.ss01.ss04" horiz-adv-x="414" 
d="M79 87c0 15 3 33 9 53l92 282h-92l17 52h92l46 141h68l-46 -141h157l-17 -52h-157l-96 -294c-4 -13 -6 -24 -6 -35c0 -29 19 -45 50 -45c43 0 75 22 96 67l55 -15c-32 -73 -86 -110 -162 -110c-64 0 -106 37 -106 97zM34 -229l16 30c8 -5 18 -8 30 -8c29 0 50 16 50 37
c0 12 -5 18 -18 27c-12 8 -22 22 -22 42c0 31 21 54 52 54c29 0 48 -20 48 -47c0 -7 -1 -13 -3 -20l-16 -48c-20 -60 -47 -78 -94 -78c-18 0 -32 4 -43 11z" />
    <glyph glyph-name="t.ss04" horiz-adv-x="414" 
d="M79 87c0 15 3 33 9 53l92 282h-92l17 52h92l46 141h68l-46 -141h157l-17 -52h-157l-96 -294c-4 -13 -6 -24 -6 -35c0 -29 19 -45 50 -45c43 0 75 22 96 67l55 -15c-32 -73 -86 -110 -162 -110c-64 0 -106 37 -106 97z" />
    <glyph glyph-name="tbar.ss04" horiz-adv-x="414" 
d="M79 87c0 15 3 33 9 53l92 282h-92l17 52h92l46 141h68l-46 -141h157l-17 -52h-157l-96 -294c-4 -13 -6 -24 -6 -35c0 -29 19 -45 50 -45c43 0 75 22 96 67l55 -15c-32 -73 -86 -110 -162 -110c-64 0 -106 37 -106 97zM65 302h293l-17 -52h-293z" />
    <glyph glyph-name="tcaron.ss04" horiz-adv-x="414" 
d="M79 87c0 15 3 33 9 53l92 282h-92l17 52h92l46 141h68l-46 -141h157l-17 -52h-157l-96 -294c-4 -13 -6 -24 -6 -35c0 -29 19 -45 50 -45c43 0 75 22 96 67l55 -15c-32 -73 -86 -110 -162 -110c-64 0 -106 37 -106 97zM335 528l14 43h27c28 0 44 12 44 33
c0 17 -9 26 -28 26h-6l28 86h86l-37 -111c-20 -60 -48 -77 -99 -77h-29z" />
    <glyph glyph-name="uni0163.ss04" horiz-adv-x="414" 
d="M79 87c0 15 3 33 9 53l92 282h-92l17 52h92l46 141h68l-46 -141h157l-17 -52h-157l-96 -294c-4 -13 -6 -24 -6 -35c0 -29 19 -45 50 -45c43 0 75 22 96 67l55 -15c-32 -73 -86 -110 -162 -110c-64 0 -106 37 -106 97zM85 -120l40 9c3 -23 21 -39 46 -39c35 0 53 20 53 49
c0 21 -13 38 -36 38c-19 0 -35 -9 -47 -27l-39 18c14 19 30 48 49 88h45l-15 -24c-12 -20 -23 -36 -33 -47c16 17 34 25 55 25c33 0 61 -25 61 -65c0 -55 -36 -93 -99 -93c-41 0 -76 28 -80 68z" />
    <glyph glyph-name="uni021B.ss04" horiz-adv-x="414" 
d="M79 87c0 15 3 33 9 53l92 282h-92l17 52h92l46 141h68l-46 -141h157l-17 -52h-157l-96 -294c-4 -13 -6 -24 -6 -35c0 -29 19 -45 50 -45c43 0 75 22 96 67l55 -15c-32 -73 -86 -110 -162 -110c-64 0 -106 37 -106 97zM19 -225l18 30c12 -5 24 -8 35 -8c27 0 47 13 47 37
c0 19 -11 28 -32 28h-8l28 86h86l-38 -116c-15 -47 -44 -68 -93 -68c-15 0 -34 4 -43 11z" />
    <glyph glyph-name="c_slash_o" horiz-adv-x="953" 
d="M135 490c0 133 102 220 228 220c83 0 134 -54 134 -131l-54 -13c0 59 -33 92 -89 92c-89 0 -161 -66 -161 -165c0 -64 38 -101 97 -101c69 0 116 36 143 107l49 -17c-35 -92 -106 -142 -202 -142c-81 0 -145 63 -145 150zM236 128l-30 41l546 377l30 -41zM526 132
c0 126 93 228 227 228c85 0 141 -62 141 -143c0 -123 -93 -227 -227 -227c-81 0 -141 64 -141 142zM838 210c0 61 -31 97 -94 97c-90 0 -162 -73 -162 -169c0 -59 33 -96 98 -96c88 0 158 72 158 168z" />
    <glyph glyph-name="f_b" horiz-adv-x="870" 
d="M377 103l-33 -103h-62l180 556c4 13 6 25 6 35c0 41 -22 67 -66 67c-55 0 -89 -31 -112 -102l-26 -82h114l-17 -52h-114l-137 -422h-68l137 422h-106l17 52h106l25 78c33 104 93 158 184 158c87 0 129 -45 129 -116c0 -15 -2 -31 -7 -47l-47 -145c37 48 105 82 181 82
c98 0 174 -70 174 -179c3 -164 -133 -319 -308 -315c-75 0 -135 48 -150 113zM766 299c0 75 -48 127 -127 127c-128 3 -229 -127 -226 -247c0 -83 51 -131 124 -131c130 -3 231 127 229 251z" />
    <glyph glyph-name="f_f_b" horiz-adv-x="1112" 
d="M619 103l-33 -103h-62l180 556c4 13 6 25 6 35c0 41 -22 67 -66 67c-55 0 -89 -31 -112 -102l-26 -82h114l-17 -52h-114l-137 -422h-68l137 422h-174l-137 -422h-68l137 422h-106l17 52h106l25 77c35 105 88 159 195 159c49 0 87 -20 104 -53c33 35 76 53 127 53
c87 0 129 -45 129 -116c0 -15 -2 -31 -7 -47l-47 -145c37 48 105 82 181 82c98 0 174 -70 174 -179c3 -164 -133 -319 -308 -315c-75 0 -135 48 -150 113zM264 474h174l25 77c7 23 11 40 11 52c0 33 -26 55 -70 55c-59 0 -94 -37 -119 -118zM1008 299c0 75 -48 127 -127 127
c-128 3 -229 -127 -226 -247c0 -83 51 -131 124 -131c130 -3 231 127 229 251z" />
    <glyph glyph-name="f_f_h" horiz-adv-x="1076" 
d="M42 0l137 422h-106l17 52h106l25 77c35 105 88 159 195 159c49 0 87 -20 104 -53c33 35 76 53 127 53c87 0 129 -45 129 -116c0 -15 -2 -31 -7 -47l-52 -162c43 65 105 99 181 99c83 0 135 -58 135 -130c0 -23 -4 -47 -12 -72l-92 -282h-68l96 294c5 16 8 33 8 50
c0 49 -35 82 -92 82c-83 0 -171 -82 -205 -189l-77 -237h-68l181 556c4 13 6 25 6 35c0 41 -22 67 -66 67c-55 0 -89 -31 -112 -102l-26 -82h114l-17 -52h-114l-137 -422h-68l137 422h-174l-137 -422h-68zM264 474h174l25 77c7 23 11 40 11 52c0 33 -26 55 -70 55
c-59 0 -94 -37 -119 -118z" />
    <glyph glyph-name="f_f_j" horiz-adv-x="729" 
d="M455 -198l201 620h-167l-137 -422h-68l137 422h-174l-137 -422h-68l137 422h-106l17 52h106l25 77c35 105 88 159 195 159c49 0 87 -20 104 -53c33 35 79 53 138 53c71 0 120 -35 120 -94c0 -19 -5 -38 -16 -57h-58c8 17 12 32 12 44c0 33 -26 55 -70 55
c-59 0 -94 -37 -119 -118l-21 -66h235l-218 -672h-68zM264 474h174l25 77c7 23 11 40 11 52c0 33 -26 55 -70 55c-59 0 -94 -37 -119 -118z" />
    <glyph glyph-name="f_f_k" horiz-adv-x="1025" 
d="M42 0l137 422h-106l17 52h106l25 77c35 105 88 159 195 159c49 0 87 -20 104 -53c33 35 76 53 127 53c87 0 129 -45 129 -116c0 -15 -2 -31 -7 -47l-99 -305l288 232h96l-237 -190l105 -284h-73l-88 238l-124 -99l-45 -139h-68l180 556c4 13 6 25 6 35
c0 41 -22 67 -66 67c-55 0 -89 -31 -112 -102l-26 -82h114l-17 -52h-114l-137 -422h-68l137 422h-174l-137 -422h-68zM264 474h174l25 77c7 23 11 40 11 52c0 33 -26 55 -70 55c-59 0 -94 -37 -119 -118z" />
    <glyph glyph-name="f_f_t" horiz-adv-x="828" 
d="M42 0l137 422h-106l17 52h106l25 77c35 105 88 159 195 159c49 0 87 -20 104 -53c32 35 74 53 127 53c87 0 129 -45 129 -116c0 -18 -2 -34 -7 -47l-24 -73h138l-17 -52h-137l-137 -422h-68l137 422h-172l-137 -422h-68l137 422h-174l-137 -422h-68zM264 474h174l25 77
c7 23 11 40 11 52c0 33 -26 55 -70 55c-59 0 -94 -37 -119 -118zM506 474h171l27 82c4 13 6 25 6 35c0 41 -22 67 -66 67c-55 0 -89 -31 -112 -102z" />
    <glyph glyph-name="f_h" horiz-adv-x="834" 
d="M42 0l137 422h-106l17 52h106l26 82c33 103 94 154 183 154c87 0 129 -45 129 -116c0 -15 -2 -31 -7 -47l-52 -162c43 65 105 99 181 99c83 0 135 -58 135 -130c0 -23 -4 -47 -12 -72l-92 -282h-68l96 294c5 16 8 33 8 50c-1 49 -35 82 -92 82c-83 0 -171 -82 -205 -189
l-77 -237h-68l181 556c4 13 6 25 6 35c0 41 -22 67 -66 67c-55 0 -89 -31 -112 -102l-26 -82h114l-17 -52h-114l-137 -422h-68z" />
    <glyph glyph-name="f_i" horiz-adv-x="492" 
d="M520 559h-58c8 17 12 32 12 44c0 33 -26 55 -70 55c-59 0 -94 -37 -119 -118l-21 -66h240l-154 -474h-68l137 422h-172l-137 -422h-68l137 422h-106l17 52h106l25 77c35 105 88 159 195 159c71 0 120 -35 120 -94c0 -19 -5 -38 -16 -57z" />
    <glyph glyph-name="f_j" horiz-adv-x="492" 
d="M520 559h-58c8 17 12 32 12 44c0 33 -26 55 -70 55c-59 0 -94 -37 -119 -118l-21 -66h240l-218 -672h-68l201 620h-172l-137 -422h-68l137 422h-106l17 52h106l25 77c35 105 88 159 195 159c71 0 120 -35 120 -94c0 -19 -5 -38 -16 -57z" />
    <glyph glyph-name="f_k" horiz-adv-x="783" 
d="M42 0l137 422h-106l17 52h106l26 82c33 103 94 154 183 154c87 0 129 -45 129 -116c0 -17 -2 -33 -7 -47l-99 -305l288 232h96l-237 -190l105 -284h-73l-88 238l-124 -99l-45 -139h-68l180 556c4 13 6 25 6 35c0 41 -22 67 -66 67c-56 0 -89 -31 -112 -102l-26 -82h114
l-17 -52h-114l-137 -422h-68z" />
    <glyph glyph-name="f_l" horiz-adv-x="497" 
d="M42 0l137 422h-106l17 52h106l26 82c33 103 94 154 183 154c87 0 129 -45 129 -116c0 -15 -2 -31 -7 -47l-177 -547h-68l180 556c4 13 6 25 6 35c0 41 -22 67 -66 67c-56 0 -89 -31 -112 -102l-26 -82h114l-17 -52h-114l-137 -422h-68z" />
    <glyph glyph-name="f_t" horiz-adv-x="585" 
d="M42 0l137 422h-106l17 52h106l26 82c33 103 94 154 183 154c87 0 129 -45 129 -116c0 -17 -2 -32 -7 -47l-24 -73h137l-17 -52h-136l-137 -422h-68l137 422h-172l-137 -422h-68zM264 474h171l27 82c4 13 6 25 6 35c0 41 -22 67 -66 67c-55 0 -89 -31 -112 -102z" />
    <glyph glyph-name="i_m" horiz-adv-x="742" 
d="M174 571l26 83h78l-26 -83h-78zM-7 0l154 474h68l-20 -63c36 45 78 73 139 73c60 0 98 -34 102 -83c37 49 93 83 160 83c71 0 114 -42 114 -109c0 -13 -3 -31 -10 -52l-105 -323h-68l106 324c5 14 7 27 7 40c0 36 -28 62 -69 62c-59 0 -117 -41 -148 -133l-96 -293h-68
l104 320c4 13 6 25 6 36c0 43 -23 70 -67 70c-57 0 -114 -41 -145 -133l-96 -293h-68z" />
    <glyph glyph-name="t_t" horiz-adv-x="559" 
d="M43 0l137 422h-92l17 52h92l46 141h68l-46 -141h144l46 141h68l-46 -141h137l-17 -52h-137l-137 -422h-68l137 422h-144l-137 -422h-68z" />
    <glyph glyph-name="w_w_w" horiz-adv-x="1656" 
d="M87 0l8 474h57l-9 -416l255 416h71l-14 -416l257 416h68l-14 -416l254 416h68l-11 -416l254 416h71l-13 -416l261 416h65l-296 -474h-83l14 402l-245 -402h-81l13 402l-245 -402h-78l13 402l-245 -402h-81l13 402l-244 -402h-83z" />
    <glyph glyph-name="i_m.ss01" horiz-adv-x="742" 
d="M225 658c27 0 46 -19 46 -46c0 -25 -19 -46 -46 -46c-25 0 -46 21 -46 46c0 27 21 46 46 46zM-7 0l154 474h68l-20 -63c36 45 78 73 139 73c60 0 98 -34 102 -83c37 49 93 83 160 83c71 0 114 -42 114 -109c0 -13 -3 -31 -10 -52l-105 -323h-68l106 324c5 14 7 27 7 40
c0 36 -28 62 -69 62c-59 0 -117 -41 -148 -133l-96 -293h-68l104 320c4 13 6 25 6 36c0 43 -23 70 -67 70c-57 0 -114 -41 -145 -133l-96 -293h-68z" />
    <glyph glyph-name="f_f_t.ss04" horiz-adv-x="895" 
d="M560 87c0 15 3 33 9 53l92 282h-172l-137 -422h-68l137 422h-174l-137 -422h-68l137 422h-106l17 52h106l25 77c35 105 88 159 195 159c49 0 87 -20 104 -53c33 35 76 53 127 53c87 0 129 -45 129 -116c0 -17 -2 -32 -7 -47l-24 -73h158l-17 -52h-157l-96 -294
c-4 -13 -6 -24 -6 -35c0 -29 19 -45 50 -45c43 0 75 22 96 67l55 -15c-32 -73 -86 -110 -162 -110c-64 0 -106 37 -106 97zM264 474h174l25 77c7 23 11 40 11 52c0 33 -26 55 -70 55c-59 0 -94 -37 -119 -118zM506 474h172l26 82c4 13 6 25 6 35c0 41 -22 67 -66 67
c-55 0 -89 -31 -112 -102z" />
    <glyph glyph-name="f_t.ss04" horiz-adv-x="653" 
d="M318 87c0 15 3 33 9 53l92 282h-172l-137 -422h-68l137 422h-106l17 52h106l26 82c33 103 94 154 183 154c87 0 129 -45 129 -116c0 -15 -2 -31 -7 -47l-23 -73h157l-17 -52h-157l-96 -294c-4 -13 -6 -24 -6 -35c0 -29 19 -45 50 -45c43 0 75 22 96 67l55 -15
c-32 -73 -86 -110 -162 -110c-64 0 -106 37 -106 97zM264 474h172l26 82c4 13 6 25 6 35c0 41 -22 67 -66 67c-56 0 -89 -31 -112 -102z" />
    <glyph glyph-name="t_t.ss04" horiz-adv-x="626" 
d="M79 87c0 15 3 33 9 53l92 282h-92l17 52h92l46 141h68l-46 -141h144l46 141h68l-46 -141h157l-17 -52h-157l-96 -294c-4 -13 -6 -24 -6 -35c0 -29 19 -45 50 -45c43 0 75 22 96 67l55 -15c-32 -73 -86 -110 -162 -110c-43 0 -78 20 -93 55c-28 -37 -68 -55 -119 -55
c-64 0 -106 37 -106 97zM300 140l92 282h-144l-96 -294c-4 -13 -6 -24 -6 -35c0 -29 19 -45 50 -45c47 0 81 24 104 92z" />
    <glyph glyph-name="ordfeminine" unicode="&#xaa;" horiz-adv-x="527" 
d="M126 437c0 159 119 273 264 273c73 0 125 -42 137 -98l30 88h68l-140 -429h-63l24 74c-32 -49 -88 -83 -164 -83c-86 0 -156 69 -156 175zM501 540c0 64 -47 111 -118 111c-103 0 -187 -87 -187 -208c0 -83 44 -123 109 -123c95 -3 199 107 196 220z" />
    <glyph glyph-name="ordmasculine" unicode="&#xba;" horiz-adv-x="524" 
d="M115 437c-2 149 113 276 279 273c53 0 95 -17 127 -50c33 -33 49 -75 49 -126c2 -148 -113 -274 -279 -272c-102 0 -176 74 -176 175zM499 528c0 71 -47 123 -118 123c-113 0 -195 -96 -195 -207c0 -72 47 -124 118 -124c113 0 195 97 195 208z" />
    <glyph glyph-name="uni0410" unicode="&#x410;" horiz-adv-x="724" 
d="M563 0l-18 188h-384l-140 -188h-84l527 700h98l71 -700h-70zM208 252h331l-38 394z" />
    <glyph glyph-name="uni0411" unicode="&#x411;" horiz-adv-x="682" 
d="M3 0l228 700h471l-21 -64h-397l-79 -244h235c108 0 181 -62 181 -158c0 -138 -117 -234 -296 -234h-322zM98 64h247c108 0 200 63 200 160c0 71 -42 104 -114 104h-247z" />
    <glyph glyph-name="uni0412" unicode="&#x412;" horiz-adv-x="682" 
d="M3 0l228 700h293c108 0 178 -63 178 -159c0 -93 -68 -156 -160 -184c49 -21 78 -65 78 -128c0 -132 -119 -229 -290 -229h-327zM204 390h242c53 0 97 13 131 40c35 27 52 64 52 109c0 59 -43 97 -120 97h-225zM98 64h249c109 0 198 60 198 161c0 65 -40 105 -115 105
h-245z" />
    <glyph glyph-name="uni0413" unicode="&#x413;" horiz-adv-x="606" 
d="M701 636h-417l-207 -636h-74l228 700h491z" />
    <glyph glyph-name="uni0403" unicode="&#x403;" horiz-adv-x="606" 
d="M701 636h-417l-207 -636h-74l228 700h491zM462 782l103 133h100l-4 -12l-134 -121h-65z" />
    <glyph glyph-name="uni0490" unicode="&#x490;" horiz-adv-x="604" 
d="M3 0l227 700h417l55 170h74l-76 -234h-417l-206 -636h-74z" />
    <glyph glyph-name="uni0414" unicode="&#x414;" horiz-adv-x="660" 
d="M-79 -110l57 174h52c37 38 68 75 91 111s43 74 59 113s35 92 57 159l83 253h397l-207 -636h60l-57 -174h-74l36 110h-444l-36 -110h-74zM115 64h321l186 572h-249l-65 -199c-29 -90 -58 -162 -87 -217c-28 -55 -63 -107 -106 -156z" />
    <glyph glyph-name="uni0415" unicode="&#x415;" horiz-adv-x="622" 
d="M231 700h472l-21 -64h-398l-79 -242h368l-20 -64h-368l-87 -266h408l-21 -64h-482z" />
    <glyph glyph-name="uni0400" unicode="&#x400;" horiz-adv-x="622" 
d="M231 700h472l-21 -64h-398l-79 -242h368l-20 -64h-368l-87 -266h408l-21 -64h-482zM455 781l-78 121l4 12h91l41 -133h-58z" />
    <glyph glyph-name="uni0401" unicode="&#x401;" horiz-adv-x="622" 
d="M231 700h472l-21 -64h-398l-79 -242h368l-20 -64h-368l-87 -266h408l-21 -64h-482zM381 797l28 84h84l-28 -84h-84zM529 797l28 84h84l-28 -84h-84z" />
    <glyph glyph-name="uni0416" unicode="&#x416;" horiz-adv-x="936" 
d="M1051 700l-444 -352l232 -348h-83l-220 333l-108 -333h-74l108 331l-416 -331h-103l469 377l-225 323h83l210 -312l102 312h74l-101 -311l388 311h108z" />
    <glyph glyph-name="uni0417" unicode="&#x417;" horiz-adv-x="585" 
d="M32 193l70 15c12 -103 62 -154 151 -154c115 0 184 62 184 157c0 72 -43 111 -112 111h-17l21 64h21c111 0 181 49 181 145c0 75 -50 115 -127 115c-87 0 -146 -44 -179 -131l-58 25c37 107 117 170 249 170c116 0 189 -73 189 -169c0 -55 -16 -99 -48 -132
s-72 -54 -119 -63c45 -20 75 -64 75 -124c0 -135 -99 -232 -268 -232c-65 0 -116 19 -152 58s-56 88 -61 145z" />
    <glyph glyph-name="uni0418" unicode="&#x418;" horiz-adv-x="760" 
d="M3 0l228 700h74l-213 -655l605 655h133l-228 -700h-74l213 655l-605 -655h-133z" />
    <glyph glyph-name="uni0419" unicode="&#x419;" horiz-adv-x="760" 
d="M3 0l228 700h74l-213 -655l605 655h133l-228 -700h-74l213 655l-605 -655h-133zM456 859c0 15 3 29 10 42h59c-5 -11 -8 -21 -8 -31c0 -21 19 -36 47 -36c45 0 74 23 75 67h61c0 -76 -53 -119 -144 -119c-61 0 -99 28 -100 77z" />
    <glyph glyph-name="uni040D" unicode="&#x40d;" horiz-adv-x="760" 
d="M3 0l228 700h74l-213 -655l605 655h133l-228 -700h-74l213 655l-605 -655h-133zM518 781l-78 121l4 12h91l41 -133h-58z" />
    <glyph glyph-name="uni041A" unicode="&#x41a;" horiz-adv-x="583" 
d="M3 0l228 700h74l-101 -311l388 311h108l-444 -352l230 -348h-83l-218 333l-108 -333h-74z" />
    <glyph glyph-name="uni040C" unicode="&#x40c;" horiz-adv-x="583" 
d="M3 0l228 700h74l-101 -311l388 311h108l-444 -352l230 -348h-83l-218 333l-108 -333h-74zM433 782l103 133h100l-4 -12l-134 -121h-65z" />
    <glyph glyph-name="uni041B" unicode="&#x41b;" horiz-adv-x="678" 
d="M-46 0l3 8c35 41 65 86 89 134c25 48 51 114 78 197l118 361h506l-228 -700h-74l207 636h-358l-99 -305c-29 -88 -56 -158 -83 -209s-53 -91 -80 -122h-79z" />
    <glyph glyph-name="uni041C" unicode="&#x41c;" horiz-adv-x="940" 
d="M782 0h-70l217 666l-485 -666h-103l-51 666l-217 -666h-70l228 700h126l47 -651l469 651h137z" />
    <glyph glyph-name="uni041D" unicode="&#x41d;" horiz-adv-x="728" 
d="M598 313h-419l-102 -313h-74l228 700h74l-105 -323h419l105 323h74l-228 -700h-74z" />
    <glyph glyph-name="uni041E" unicode="&#x41e;" horiz-adv-x="850" 
d="M86 291c-4 219 186 423 456 419c181 0 296 -122 296 -299c4 -219 -186 -425 -456 -421c-176 0 -296 123 -296 301zM764 407c0 151 -91 239 -239 239c-209 4 -369 -170 -365 -351c0 -152 94 -241 239 -241c207 -5 369 173 365 353z" />
    <glyph glyph-name="uni041F" unicode="&#x41f;" horiz-adv-x="728" 
d="M703 636h-419l-207 -636h-74l228 700h567l-228 -700h-74z" />
    <glyph glyph-name="uni0420" unicode="&#x420;" horiz-adv-x="667" 
d="M3 0l228 700h278c107 0 186 -72 186 -173c0 -136 -102 -229 -295 -229h-226l-97 -298h-74zM195 362h220c123 0 204 54 204 157c0 73 -48 117 -125 117h-210z" />
    <glyph glyph-name="uni0421" unicode="&#x421;" horiz-adv-x="794" 
d="M88 292c-4 226 171 422 435 418c163 0 261 -99 271 -231l-64 -18c-15 119 -87 185 -214 185c-212 3 -357 -158 -354 -348c0 -148 98 -244 228 -244c164 0 263 76 315 231l63 -24c-56 -172 -187 -271 -387 -271c-166 0 -293 121 -293 302z" />
    <glyph glyph-name="uni0422" unicode="&#x422;" horiz-adv-x="667" 
d="M783 700l-21 -64h-262l-207 -636h-74l207 636h-262l21 64h598z" />
    <glyph glyph-name="uni0423" unicode="&#x423;" horiz-adv-x="673" 
d="M711 700h93l-667 -700h-93l259 271l-134 429h78l114 -367z" />
    <glyph glyph-name="uni040E" unicode="&#x40e;" horiz-adv-x="673" 
d="M711 700h93l-667 -700h-93l259 271l-134 429h78l114 -367zM398 859c0 15 3 29 10 42h59c-5 -11 -8 -21 -8 -31c0 -21 19 -36 47 -36c45 0 74 23 75 67h61c0 -76 -53 -119 -144 -119c-61 0 -99 28 -100 77z" />
    <glyph glyph-name="uni0424" unicode="&#x424;" horiz-adv-x="842" 
d="M381 0h-74l26 80h-34c-111 0 -213 85 -213 223c0 187 138 317 376 317h47l26 80h74l-26 -80h19c137 0 227 -96 227 -220c0 -198 -146 -320 -371 -320h-51zM315 144h39l134 412h-39c-183 0 -289 -93 -289 -248c0 -97 55 -164 155 -164zM591 556h-29l-134 -412h39
c184 0 288 92 288 252c0 99 -64 160 -164 160z" />
    <glyph glyph-name="uni0425" unicode="&#x425;" horiz-adv-x="652" 
d="M-57 0l390 394l-122 306h75l103 -264l269 264h91l-334 -327l140 -373h-75l-121 327l-322 -327h-94z" />
    <glyph glyph-name="uni0427" unicode="&#x427;" horiz-adv-x="666" 
d="M434 0l81 249c-59 -60 -122 -91 -225 -91c-92 0 -173 63 -173 169c0 29 5 59 15 89l92 284h74l-93 -285c-10 -32 -15 -60 -15 -84c1 -71 46 -109 126 -109c87 0 158 39 231 123l115 355h74l-228 -700h-74z" />
    <glyph glyph-name="uni0426" unicode="&#x426;" horiz-adv-x="681" 
d="M460 -110l36 110h-493l228 700h74l-207 -636h344l207 636h74l-207 -636h75l-57 -174h-74z" />
    <glyph glyph-name="uni0428" unicode="&#x428;" horiz-adv-x="898" 
d="M894 700h74l-228 -700h-737l228 700h74l-207 -636h258l207 636h74l-207 -636h257z" />
    <glyph glyph-name="uni0429" unicode="&#x429;" horiz-adv-x="927" 
d="M706 -110l36 110h-739l228 700h74l-207 -636h258l207 636h74l-207 -636h257l207 636h74l-207 -636h76l-57 -174h-74z" />
    <glyph glyph-name="uni040F" unicode="&#x40f;" horiz-adv-x="652" 
d="M176 -110l36 110h-209l228 700h74l-207 -636h343l207 636h74l-228 -700h-208l-36 -110h-74z" />
    <glyph glyph-name="uni042C" unicode="&#x42c;" horiz-adv-x="682" 
d="M3 0l228 700h74l-100 -308h235c108 0 181 -62 181 -158c0 -138 -117 -234 -296 -234h-322zM98 64h247c108 0 200 63 200 160c0 71 -42 104 -114 104h-247z" />
    <glyph glyph-name="uni042A" unicode="&#x42a;" horiz-adv-x="780" 
d="M719 234c0 -138 -117 -234 -296 -234h-322l207 636h-144l21 64h218l-100 -308h235c108 0 181 -62 181 -158zM643 224c0 71 -42 104 -114 104h-247l-86 -264h247c108 0 200 63 200 160z" />
    <glyph glyph-name="uni042B" unicode="&#x42b;" horiz-adv-x="917" 
d="M3 0l228 700h74l-100 -308h235c108 0 181 -62 181 -158c0 -138 -117 -234 -296 -234h-322zM98 64h247c108 0 200 63 200 160c0 71 -42 104 -114 104h-247zM685 0l228 700h74l-228 -700h-74z" />
    <glyph glyph-name="uni0409" unicode="&#x409;" horiz-adv-x="1050" 
d="M-45 0l2 8c35 41 65 86 89 134c25 48 51 114 78 197l118 361h431l-100 -308h235c108 0 181 -62 181 -158c0 -138 -117 -234 -296 -234h-322l207 636h-283l-99 -305c-29 -88 -56 -158 -83 -209s-53 -91 -80 -122h-78zM466 64h247c108 0 200 63 200 160
c0 71 -42 104 -114 104h-247z" />
    <glyph glyph-name="uni040A" unicode="&#x40a;" horiz-adv-x="991" 
d="M3 0l228 700h72l-100 -308h303l100 308h74l-100 -308h169c108 0 181 -62 181 -158c0 -138 -117 -234 -296 -234h-256l107 328h-303l-107 -328h-72zM473 64h181c108 0 200 63 200 160c0 71 -42 104 -114 104h-181z" />
    <glyph glyph-name="uni0405" unicode="&#x405;" horiz-adv-x="643" 
d="M417 646c-88 0 -168 -50 -168 -129c0 -74 53 -96 156 -125c117 -31 178 -78 178 -185c0 -132 -117 -217 -296 -217c-159 0 -249 95 -253 242l71 16c0 -125 70 -194 191 -194c123 0 213 59 213 146c0 81 -45 108 -168 143c-103 29 -164 74 -164 170c0 113 103 197 257 197
c129 0 213 -64 222 -180l-71 -12c-5 87 -69 128 -168 128z" />
    <glyph glyph-name="uni0404" unicode="&#x404;" horiz-adv-x="794" 
d="M705 285l63 -24c-56 -172 -187 -271 -387 -271c-166 0 -293 121 -293 302c-4 226 171 422 435 418c163 0 261 -99 271 -231l-64 -18c-15 119 -87 185 -214 185c-181 0 -308 -110 -344 -261h303l-20 -64h-292c-1 -5 -1 -13 -1 -23c0 -148 98 -244 228 -244
c164 0 263 76 315 231z" />
    <glyph glyph-name="uni042D" unicode="&#x42d;" horiz-adv-x="788" 
d="M777 427c4 -246 -186 -441 -435 -437c-174 -3 -292 133 -300 273l66 17c10 -125 96 -226 250 -226c167 0 295 115 333 267h-339l20 64h330c1 7 1 17 1 31c0 147 -93 230 -216 230c-135 0 -228 -64 -277 -193l-60 25c48 143 172 232 353 232c162 0 274 -115 274 -283z" />
    <glyph glyph-name="uni0406" unicode="&#x406;" horiz-adv-x="235" 
d="M3 0l228 700h74l-228 -700h-74z" />
    <glyph glyph-name="uni0407" unicode="&#x407;" horiz-adv-x="235" 
d="M3 0l228 700h74l-228 -700h-74zM182 797l28 84h84l-28 -84h-84zM330 797l28 84h84l-28 -84h-84z" />
    <glyph glyph-name="uni0408" unicode="&#x408;" horiz-adv-x="600" 
d="M37 168c0 60 26 120 69 163l50 -38c-32 -40 -46 -72 -46 -123c0 -65 49 -116 133 -116c108 0 173 61 218 201l144 445h70l-153 -475c-51 -156 -135 -235 -288 -235c-122 0 -197 81 -197 178z" />
    <glyph glyph-name="uni040B" unicode="&#x40b;" horiz-adv-x="790" 
d="M219 0l207 636h-262l21 64h598l-21 -64h-262l-80 -246c51 63 113 94 187 94c88 0 136 -48 136 -128c0 -20 -4 -42 -11 -65l-95 -291h-74l94 288c6 19 9 36 9 50c0 52 -29 82 -84 82c-45 0 -87 -18 -128 -54c-40 -35 -69 -80 -86 -135l-75 -231h-74z" />
    <glyph glyph-name="uni042E" unicode="&#x42e;" horiz-adv-x="1112" 
d="M1100 411c4 -219 -186 -425 -456 -421c-176 0 -296 123 -296 301c0 10 0 17 1 22h-170l-102 -313h-74l228 700h74l-105 -323h157c40 185 210 333 447 333c181 0 296 -122 296 -299zM1026 407c0 151 -91 239 -239 239c-209 4 -369 -170 -365 -351c0 -152 94 -241 239 -241
c207 -5 369 173 365 353z" />
    <glyph glyph-name="uni042F" unicode="&#x42f;" horiz-adv-x="667" 
d="M-22 0l4 12l336 292h-6c-94 0 -174 68 -174 177c0 136 108 219 285 219h314l-228 -700h-74l99 304h-116l-350 -304h-90zM333 368h222l87 268h-233c-120 0 -193 -64 -193 -151c0 -73 45 -117 117 -117z" />
    <glyph glyph-name="uni0402" unicode="&#x402;" horiz-adv-x="848" 
d="M525 -110v10c59 67 107 135 144 204s55 135 55 196c0 76 -44 120 -124 120c-90 0 -199 -87 -233 -193l-74 -227h-74l207 636h-262l21 64h598l-21 -64h-262l-85 -260c59 67 121 108 214 108c109 0 171 -74 171 -181c0 -65 -20 -135 -60 -210c-39 -74 -88 -142 -145 -203
h-70z" />
    <glyph glyph-name="uni0462" unicode="&#x462;" horiz-adv-x="749" 
d="M688 234c0 -138 -117 -234 -296 -234h-322l175 536h-143l18 58h143l35 106h74l-34 -106h136l-18 -58h-137l-47 -144h235c108 0 181 -62 181 -158zM612 224c0 71 -42 104 -114 104h-247l-86 -264h247c108 0 200 63 200 160z" />
    <glyph glyph-name="uni0472" unicode="&#x472;" horiz-adv-x="850" 
d="M838 411c4 -219 -186 -425 -456 -421c-176 0 -296 123 -296 301c-4 219 186 423 456 419c181 0 296 -122 296 -299zM167 366c47 39 102 58 166 58c51 0 81 -14 137 -45c52 -29 83 -44 130 -44c67 0 112 23 164 76c-1 149 -92 235 -239 235c-186 0 -324 -125 -358 -280z
M757 338c-47 -41 -104 -62 -170 -62c-51 0 -81 14 -137 45c-52 29 -83 44 -130 44c-64 0 -111 -21 -160 -72c1 -152 94 -239 239 -239c182 -3 326 129 358 284z" />
    <glyph glyph-name="uni0474" unicode="&#x474;" horiz-adv-x="762" 
d="M225 0l-63 700h72l53 -639l419 579c39 53 70 80 118 80c44 0 73 -15 86 -46l-49 -44c-7 15 -19 23 -35 23c-20 0 -34 -9 -49 -30l-454 -623h-98z" />
    <glyph glyph-name="uni0492" unicode="&#x492;" horiz-adv-x="645" 
d="M720 636h-417l-83 -254h257l-17 -52h-257l-107 -330h-74l107 330h-78l17 52h78l104 318h491z" />
    <glyph glyph-name="uni0496" unicode="&#x496;" horiz-adv-x="936" 
d="M1051 700l-444 -352l232 -348h-83l-220 333l-108 -333h-74l108 331l-416 -331h-103l469 377l-225 323h83l210 -312l102 312h74l-101 -311l388 311h108zM741 -110l36 110l19 64h76l-57 -174h-74z" />
    <glyph glyph-name="uni0498" unicode="&#x498;" horiz-adv-x="585" 
d="M32 193l70 15c12 -103 62 -154 151 -154c115 0 184 62 184 157c0 72 -43 111 -112 111h-17l21 64h21c111 0 181 49 181 145c0 75 -50 115 -127 115c-87 0 -146 -44 -179 -131l-58 25c37 107 117 170 249 170c116 0 189 -73 189 -169c0 -55 -16 -99 -48 -132
s-72 -54 -119 -63c45 -20 75 -64 75 -124c0 -135 -99 -232 -268 -232c-65 0 -116 19 -152 58s-56 88 -61 145zM118 -120l40 9c3 -23 21 -39 46 -39c35 0 53 20 53 49c0 21 -13 38 -36 38c-19 0 -35 -9 -47 -27l-39 18c14 19 30 48 49 88h45l-15 -24c-12 -20 -23 -36 -33 -47
c16 17 34 25 55 25c33 0 61 -25 61 -65c0 -55 -36 -93 -99 -93c-41 0 -76 28 -80 68z" />
    <glyph glyph-name="uni049A" unicode="&#x49a;" horiz-adv-x="583" 
d="M3 0l228 700h74l-101 -311l388 311h108l-444 -352l230 -348h-83l-218 333l-108 -333h-74zM387 -110l36 110l19 64h76l-57 -174h-74z" />
    <glyph glyph-name="uni04A0" unicode="&#x4a0;" horiz-adv-x="733" 
d="M850 700l-444 -352l230 -348h-83l-218 333l-108 -333h-74l209 642h-196l18 58h271l-101 -311l388 311h108z" />
    <glyph glyph-name="uni04A2" unicode="&#x4a2;" horiz-adv-x="728" 
d="M598 313h-419l-102 -313h-74l228 700h74l-105 -323h419l105 323h74l-228 -700h-74zM534 -110l36 110l19 64h76l-57 -174h-74z" />
    <glyph glyph-name="uni04AA" unicode="&#x4aa;" horiz-adv-x="794" 
d="M88 292c-4 226 171 422 435 418c163 0 261 -99 271 -231l-64 -18c-15 119 -87 185 -214 185c-212 3 -357 -158 -354 -348c0 -148 98 -244 228 -244c164 0 263 76 315 231l63 -24c-56 -172 -187 -271 -387 -271c-166 0 -293 121 -293 302zM284 -120l40 9
c3 -23 21 -39 46 -39c35 0 53 20 53 49c0 21 -13 38 -36 38c-19 0 -35 -9 -47 -27l-39 18c14 19 30 48 49 88h45l-15 -24c-12 -20 -23 -36 -33 -47c16 17 34 25 55 25c33 0 61 -25 61 -65c0 -55 -36 -93 -99 -93c-41 0 -76 28 -80 68z" />
    <glyph glyph-name="uni04AE" unicode="&#x4ae;" horiz-adv-x="646" 
d="M208 0l96 296l-138 404h72l116 -343l333 343h93l-403 -408l-95 -292h-74z" />
    <glyph glyph-name="uni04B0" unicode="&#x4b0;" horiz-adv-x="646" 
d="M780 700l-352 -356h129l-16 -52h-164l-95 -292h-74l95 292h-171l16 52h140l-122 356h72l116 -343l333 343h93z" />
    <glyph glyph-name="uni04B2" unicode="&#x4b2;" horiz-adv-x="652" 
d="M-57 0l390 394l-122 306h75l103 -264l269 264h91l-334 -327l140 -373h-75l-121 327l-322 -327h-94zM474 -110l36 110l19 64h76l-57 -174h-74z" />
    <glyph glyph-name="uni04B6" unicode="&#x4b6;" horiz-adv-x="666" 
d="M434 0l81 249c-59 -60 -122 -91 -225 -91c-92 0 -173 63 -173 169c0 29 5 59 15 89l92 284h74l-93 -285c-10 -32 -15 -60 -15 -84c1 -71 46 -109 126 -109c87 0 158 39 231 123l115 355h74l-228 -700h-74zM472 -110l36 110l19 64h76l-57 -174h-74z" />
    <glyph glyph-name="uni04BA" unicode="&#x4ba;" horiz-adv-x="666" 
d="M3 0l228 700h74l-81 -249c59 59 128 91 220 91c113 0 181 -69 181 -170c0 -23 -5 -49 -14 -77l-96 -295h-74l93 285c8 25 12 47 12 66c0 77 -44 127 -127 127c-80 0 -152 -39 -223 -112l-119 -366h-74z" />
    <glyph glyph-name="uni04C0" unicode="&#x4c0;" horiz-adv-x="235" 
d="M3 0l228 700h74l-228 -700h-74z" />
    <glyph glyph-name="uni04C1" unicode="&#x4c1;" horiz-adv-x="936" 
d="M1051 700l-444 -352l232 -348h-83l-220 333l-108 -333h-74l108 331l-416 -331h-103l469 377l-225 323h83l210 -312l102 312h74l-101 -311l388 311h108zM545 859c0 15 3 29 10 42h59c-5 -11 -8 -21 -8 -31c0 -21 19 -36 47 -36c45 0 74 23 75 67h61
c0 -76 -53 -119 -144 -119c-61 0 -99 28 -100 77z" />
    <glyph glyph-name="uni04D0" unicode="&#x4d0;" horiz-adv-x="724" 
d="M563 0l-18 188h-384l-140 -188h-84l527 700h98l71 -700h-70zM208 252h331l-38 394zM438 859c0 15 3 29 10 42h59c-5 -11 -8 -21 -8 -31c0 -21 19 -36 47 -36c45 0 74 23 75 67h61c0 -76 -53 -119 -144 -119c-61 0 -99 28 -100 77z" />
    <glyph glyph-name="uni04D2" unicode="&#x4d2;" horiz-adv-x="724" 
d="M563 0l-18 188h-384l-140 -188h-84l527 700h98l71 -700h-70zM208 252h331l-38 394zM426 797l28 84h84l-28 -84h-84zM574 797l28 84h84l-28 -84h-84z" />
    <glyph glyph-name="uni04D4" unicode="&#x4d4;" horiz-adv-x="918" 
d="M978 636h-367l-79 -242h337l-20 -64h-337l-87 -266h377l-21 -64h-447l61 188h-220l-153 -188h-85l568 700h494zM416 252l126 386l-315 -386h189z" />
    <glyph glyph-name="uni04D6" unicode="&#x4d6;" horiz-adv-x="622" 
d="M231 700h472l-21 -64h-398l-79 -242h368l-20 -64h-368l-87 -266h408l-21 -64h-482zM393 859c0 15 3 29 10 42h59c-5 -11 -8 -21 -8 -31c0 -21 19 -36 47 -36c45 0 74 23 75 67h61c0 -76 -53 -119 -144 -119c-61 0 -99 28 -100 77z" />
    <glyph glyph-name="uni04D8" unicode="&#x4d8;" horiz-adv-x="741" 
d="M728 421c3 -238 -174 -435 -427 -431c-159 0 -252 103 -252 229c0 37 6 76 19 116l10 31h573c2 17 3 35 3 52c0 69 -19 124 -58 165c-38 42 -89 63 -154 63c-123 0 -220 -63 -263 -184l-63 26c26 71 69 125 130 164s129 58 204 58c165 0 278 -118 278 -289zM638 302h-508
c-8 -27 -12 -55 -12 -83c0 -94 73 -165 190 -165c83 0 154 23 211 68c58 45 98 105 119 180z" />
    <glyph glyph-name="uni04DA" unicode="&#x4da;" horiz-adv-x="741" 
d="M728 421c3 -238 -174 -435 -427 -431c-159 0 -252 103 -252 229c0 37 6 76 19 116l10 31h573c2 17 3 35 3 52c0 69 -19 124 -58 165c-38 42 -89 63 -154 63c-123 0 -220 -63 -263 -184l-63 26c26 71 69 125 130 164s129 58 204 58c165 0 278 -118 278 -289zM638 302h-508
c-8 -27 -12 -55 -12 -83c0 -94 73 -165 190 -165c83 0 154 23 211 68c58 45 98 105 119 180zM384 797l28 84h84l-28 -84h-84zM532 797l28 84h84l-28 -84h-84z" />
    <glyph glyph-name="uni04DC" unicode="&#x4dc;" horiz-adv-x="936" 
d="M1051 700l-444 -352l232 -348h-83l-220 333l-108 -333h-74l108 331l-416 -331h-103l469 377l-225 323h83l210 -312l102 312h74l-101 -311l388 311h108zM533 797l28 84h84l-28 -84h-84zM681 797l28 84h84l-28 -84h-84z" />
    <glyph glyph-name="uni04DE" unicode="&#x4de;" horiz-adv-x="585" 
d="M32 193l70 15c12 -103 62 -154 151 -154c115 0 184 62 184 157c0 72 -43 111 -112 111h-17l21 64h21c111 0 181 49 181 145c0 75 -50 115 -127 115c-87 0 -146 -44 -179 -131l-58 25c37 107 117 170 249 170c116 0 189 -73 189 -169c0 -55 -16 -99 -48 -132
s-72 -54 -119 -63c45 -20 75 -64 75 -124c0 -135 -99 -232 -268 -232c-65 0 -116 19 -152 58s-56 88 -61 145zM333 797l28 84h84l-28 -84h-84zM481 797l28 84h84l-28 -84h-84z" />
    <glyph glyph-name="uni04E2" unicode="&#x4e2;" horiz-adv-x="760" 
d="M3 0l228 700h74l-213 -655l605 655h133l-228 -700h-74l213 655l-605 -655h-133zM442 812l18 58h248l-18 -58h-248z" />
    <glyph glyph-name="uni04E4" unicode="&#x4e4;" horiz-adv-x="760" 
d="M3 0l228 700h74l-213 -655l605 655h133l-228 -700h-74l213 655l-605 -655h-133zM444 797l28 84h84l-28 -84h-84zM592 797l28 84h84l-28 -84h-84z" />
    <glyph glyph-name="uni04E6" unicode="&#x4e6;" horiz-adv-x="850" 
d="M86 291c-4 219 186 423 456 419c181 0 296 -122 296 -299c4 -219 -186 -425 -456 -421c-176 0 -296 123 -296 301zM764 407c0 151 -91 239 -239 239c-209 4 -369 -170 -365 -351c0 -152 94 -241 239 -241c207 -5 369 173 365 353zM438 797l28 84h84l-28 -84h-84zM586 797
l28 84h84l-28 -84h-84z" />
    <glyph glyph-name="uni04E8" unicode="&#x4e8;" horiz-adv-x="850" 
d="M86 291c-4 219 186 423 456 419c181 0 296 -122 296 -299c4 -219 -186 -425 -456 -421c-176 0 -296 123 -296 301zM171 379h592c1 6 1 15 1 28c0 151 -91 239 -239 239c-180 0 -316 -118 -354 -267zM753 321h-592c-1 -6 -1 -15 -1 -26c0 -152 94 -241 239 -241
c178 0 314 118 354 267z" />
    <glyph glyph-name="uni04EA" unicode="&#x4ea;" horiz-adv-x="850" 
d="M86 291c-4 219 186 423 456 419c181 0 296 -122 296 -299c4 -219 -186 -425 -456 -421c-176 0 -296 123 -296 301zM171 379h592c1 6 1 15 1 28c0 151 -91 239 -239 239c-180 0 -316 -118 -354 -267zM753 321h-592c-1 -6 -1 -15 -1 -26c0 -152 94 -241 239 -241
c178 0 314 118 354 267zM458 797l28 84h84l-28 -84h-84zM606 797l28 84h84l-28 -84h-84z" />
    <glyph glyph-name="uni04EC" unicode="&#x4ec;" horiz-adv-x="788" 
d="M777 427c4 -246 -186 -441 -435 -437c-174 -3 -292 133 -300 273l66 17c10 -125 96 -226 250 -226c167 0 295 115 333 267h-339l20 64h330c1 7 1 17 1 31c0 147 -93 230 -216 230c-135 0 -228 -64 -277 -193l-60 25c48 143 172 232 353 232c162 0 274 -115 274 -283z
M423 797l28 84h84l-28 -84h-84zM571 797l28 84h84l-28 -84h-84z" />
    <glyph glyph-name="uni04EE" unicode="&#x4ee;" horiz-adv-x="673" 
d="M711 700h93l-667 -700h-93l259 271l-134 429h78l114 -367zM384 812l18 58h248l-18 -58h-248z" />
    <glyph glyph-name="uni04F0" unicode="&#x4f0;" horiz-adv-x="673" 
d="M711 700h93l-667 -700h-93l259 271l-134 429h78l114 -367zM386 797l28 84h84l-28 -84h-84zM534 797l28 84h84l-28 -84h-84z" />
    <glyph glyph-name="uni04F2" unicode="&#x4f2;" horiz-adv-x="673" 
d="M711 700h93l-667 -700h-93l259 271l-134 429h78l114 -367zM370 781l103 133h100l-4 -12l-134 -121h-65zM532 781l103 133h100l-4 -12l-134 -121h-65z" />
    <glyph glyph-name="uni04F4" unicode="&#x4f4;" horiz-adv-x="666" 
d="M434 0l81 249c-59 -60 -122 -91 -225 -91c-92 0 -173 63 -173 169c0 29 5 59 15 89l92 284h74l-93 -285c-10 -32 -15 -60 -15 -84c1 -71 46 -109 126 -109c87 0 158 39 231 123l115 355h74l-228 -700h-74zM394 797l28 84h84l-28 -84h-84zM542 797l28 84h84l-28 -84h-84z
" />
    <glyph glyph-name="uni04F8" unicode="&#x4f8;" horiz-adv-x="917" 
d="M3 0l228 700h74l-100 -308h235c108 0 181 -62 181 -158c0 -138 -117 -234 -296 -234h-322zM98 64h247c108 0 200 63 200 160c0 71 -42 104 -114 104h-247zM685 0l228 700h74l-228 -700h-74zM515 797l28 84h84l-28 -84h-84zM663 797l28 84h84l-28 -84h-84z" />
    <glyph glyph-name="uni0401.ss01" horiz-adv-x="622" 
d="M231 700h472l-21 -64h-398l-79 -242h368l-20 -64h-368l-87 -266h408l-21 -64h-482zM371 839c0 25 20 45 45 45s45 -20 45 -45s-20 -45 -45 -45s-45 20 -45 45zM523 839c0 25 20 45 45 45s45 -20 45 -45s-20 -45 -45 -45s-45 20 -45 45z" />
    <glyph glyph-name="uni0407.ss01" horiz-adv-x="235" 
d="M3 0l228 700h74l-228 -700h-74zM172 839c0 25 20 45 45 45s45 -20 45 -45s-20 -45 -45 -45s-45 20 -45 45zM324 839c0 25 20 45 45 45s45 -20 45 -45s-20 -45 -45 -45s-45 20 -45 45z" />
    <glyph glyph-name="uni04D2.ss01" horiz-adv-x="724" 
d="M563 0l-18 188h-384l-140 -188h-84l527 700h98l71 -700h-70zM208 252h331l-38 394zM416 839c0 25 20 45 45 45s45 -20 45 -45s-20 -45 -45 -45s-45 20 -45 45zM568 839c0 25 20 45 45 45s45 -20 45 -45s-20 -45 -45 -45s-45 20 -45 45z" />
    <glyph glyph-name="uni04DA.ss01" horiz-adv-x="741" 
d="M728 421c3 -238 -174 -435 -427 -431c-159 0 -252 103 -252 229c0 37 6 76 19 116l10 31h573c2 17 3 35 3 52c0 69 -19 124 -58 165c-38 42 -89 63 -154 63c-123 0 -220 -63 -263 -184l-63 26c26 71 69 125 130 164s129 58 204 58c165 0 278 -118 278 -289zM638 302h-508
c-8 -27 -12 -55 -12 -83c0 -94 73 -165 190 -165c83 0 154 23 211 68c58 45 98 105 119 180zM374 839c0 25 20 45 45 45s45 -20 45 -45s-20 -45 -45 -45s-45 20 -45 45zM526 839c0 25 20 45 45 45s45 -20 45 -45s-20 -45 -45 -45s-45 20 -45 45z" />
    <glyph glyph-name="uni04DC.ss01" horiz-adv-x="936" 
d="M1051 700l-444 -352l232 -348h-83l-220 333l-108 -333h-74l108 331l-416 -331h-103l469 377l-225 323h83l210 -312l102 312h74l-101 -311l388 311h108zM523 839c0 25 20 45 45 45s45 -20 45 -45s-20 -45 -45 -45s-45 20 -45 45zM675 839c0 25 20 45 45 45s45 -20 45 -45
s-20 -45 -45 -45s-45 20 -45 45z" />
    <glyph glyph-name="uni04DE.ss01" horiz-adv-x="585" 
d="M32 193l70 15c12 -103 62 -154 151 -154c115 0 184 62 184 157c0 72 -43 111 -112 111h-17l21 64h21c111 0 181 49 181 145c0 75 -50 115 -127 115c-87 0 -146 -44 -179 -131l-58 25c37 107 117 170 249 170c116 0 189 -73 189 -169c0 -55 -16 -99 -48 -132
s-72 -54 -119 -63c45 -20 75 -64 75 -124c0 -135 -99 -232 -268 -232c-65 0 -116 19 -152 58s-56 88 -61 145zM323 839c0 25 20 45 45 45s45 -20 45 -45s-20 -45 -45 -45s-45 20 -45 45zM475 839c0 25 20 45 45 45s45 -20 45 -45s-20 -45 -45 -45s-45 20 -45 45z" />
    <glyph glyph-name="uni04E4.ss01" horiz-adv-x="760" 
d="M3 0l228 700h74l-213 -655l605 655h133l-228 -700h-74l213 655l-605 -655h-133zM434 839c0 25 20 45 45 45s45 -20 45 -45s-20 -45 -45 -45s-45 20 -45 45zM586 839c0 25 20 45 45 45s45 -20 45 -45s-20 -45 -45 -45s-45 20 -45 45z" />
    <glyph glyph-name="uni04E6.ss01" horiz-adv-x="850" 
d="M86 291c-4 219 186 423 456 419c181 0 296 -122 296 -299c4 -219 -186 -425 -456 -421c-176 0 -296 123 -296 301zM764 407c0 151 -91 239 -239 239c-209 4 -369 -170 -365 -351c0 -152 94 -241 239 -241c207 -5 369 173 365 353zM428 839c0 25 20 45 45 45
s45 -20 45 -45s-20 -45 -45 -45s-45 20 -45 45zM580 839c0 25 20 45 45 45s45 -20 45 -45s-20 -45 -45 -45s-45 20 -45 45z" />
    <glyph glyph-name="uni04EA.ss01" horiz-adv-x="850" 
d="M86 291c-4 219 186 423 456 419c181 0 296 -122 296 -299c4 -219 -186 -425 -456 -421c-176 0 -296 123 -296 301zM171 379h592c1 6 1 15 1 28c0 151 -91 239 -239 239c-180 0 -316 -118 -354 -267zM753 321h-592c-1 -6 -1 -15 -1 -26c0 -152 94 -241 239 -241
c178 0 314 118 354 267zM448 839c0 25 20 45 45 45s45 -20 45 -45s-20 -45 -45 -45s-45 20 -45 45zM600 839c0 25 20 45 45 45s45 -20 45 -45s-20 -45 -45 -45s-45 20 -45 45z" />
    <glyph glyph-name="uni04EC.ss01" horiz-adv-x="788" 
d="M777 427c4 -246 -186 -441 -435 -437c-174 -3 -292 133 -300 273l66 17c10 -125 96 -226 250 -226c167 0 295 115 333 267h-339l20 64h330c1 7 1 17 1 31c0 147 -93 230 -216 230c-135 0 -228 -64 -277 -193l-60 25c48 143 172 232 353 232c162 0 274 -115 274 -283z
M413 839c0 25 20 45 45 45s45 -20 45 -45s-20 -45 -45 -45s-45 20 -45 45zM565 839c0 25 20 45 45 45s45 -20 45 -45s-20 -45 -45 -45s-45 20 -45 45z" />
    <glyph glyph-name="uni04F0.ss01" horiz-adv-x="673" 
d="M711 700h93l-667 -700h-93l259 271l-134 429h78l114 -367zM376 839c0 25 20 45 45 45s45 -20 45 -45s-20 -45 -45 -45s-45 20 -45 45zM528 839c0 25 20 45 45 45s45 -20 45 -45s-20 -45 -45 -45s-45 20 -45 45z" />
    <glyph glyph-name="uni04F4.ss01" horiz-adv-x="666" 
d="M434 0l81 249c-59 -60 -122 -91 -225 -91c-92 0 -173 63 -173 169c0 29 5 59 15 89l92 284h74l-93 -285c-10 -32 -15 -60 -15 -84c1 -71 46 -109 126 -109c87 0 158 39 231 123l115 355h74l-228 -700h-74zM384 839c0 25 20 45 45 45s45 -20 45 -45s-20 -45 -45 -45
s-45 20 -45 45zM536 839c0 25 20 45 45 45s45 -20 45 -45s-20 -45 -45 -45s-45 20 -45 45z" />
    <glyph glyph-name="uni04F8.ss01" horiz-adv-x="917" 
d="M3 0l228 700h74l-100 -308h235c108 0 181 -62 181 -158c0 -138 -117 -234 -296 -234h-322zM98 64h247c108 0 200 63 200 160c0 71 -42 104 -114 104h-247zM685 0l228 700h74l-228 -700h-74zM505 839c0 25 20 45 45 45s45 -20 45 -45s-20 -45 -45 -45s-45 20 -45 45z
M657 839c0 25 20 45 45 45s45 -20 45 -45s-20 -45 -45 -45s-45 20 -45 45z" />
    <glyph glyph-name="uni0430" unicode="&#x430;" horiz-adv-x="582" 
d="M40 183c-3 174 137 304 293 301c81 0 142 -48 155 -109l33 99h68l-154 -474h-63l28 84c-36 -56 -99 -94 -186 -94c-95 0 -174 76 -174 193zM460 301c0 73 -55 125 -135 125c-118 0 -215 -98 -215 -238c0 -95 51 -140 123 -140c109 -3 231 124 227 253z" />
    <glyph glyph-name="uni0431" unicode="&#x431;" horiz-adv-x="592" 
d="M52 205c0 100 32 187 95 260c63 74 155 126 274 156c139 35 183 57 194 114h60c-14 -97 -77 -128 -224 -164c-148 -36 -246 -102 -294 -197c48 64 127 110 219 110c108 0 176 -74 176 -190c3 -184 -142 -306 -302 -304c-124 0 -198 99 -198 215zM480 292
c0 81 -47 134 -123 134c-127 3 -238 -112 -235 -231c0 -89 57 -147 141 -147c125 0 217 97 217 244z" />
    <glyph glyph-name="uni0432" unicode="&#x432;" horiz-adv-x="524" 
d="M-7 0l154 474h215c81 0 130 -46 130 -114s-52 -112 -116 -123c39 -9 65 -45 65 -90c0 -89 -73 -147 -206 -147h-242zM149 270h167c65 0 108 30 108 83c0 40 -27 63 -76 63h-152zM80 58h170c76 0 122 33 122 86c0 43 -30 68 -75 68h-167z" />
    <glyph glyph-name="uni0433" unicode="&#x433;" horiz-adv-x="394" 
d="M-7 0l154 474h302l-19 -58h-234l-135 -416h-68z" />
    <glyph glyph-name="uni0453" unicode="&#x453;" horiz-adv-x="394" 
d="M-7 0l154 474h302l-19 -58h-234l-135 -416h-68zM293 555l103 133h100l-4 -12l-134 -121h-65z" />
    <glyph glyph-name="uni0491" unicode="&#x491;" horiz-adv-x="394" 
d="M-7 0l154 474h234l35 111h68l-54 -169h-234l-135 -416h-68z" />
    <glyph glyph-name="uni0434" unicode="&#x434;" horiz-adv-x="557" 
d="M-75 -110l55 168h45c35 43 62 84 82 123c21 40 40 88 59 144l49 149h331l-135 -416h50l-55 -168h-68l36 110h-345l-36 -110h-68zM100 58h243l116 358h-195l-30 -91c-20 -61 -40 -110 -60 -149c-19 -38 -44 -77 -74 -118z" />
    <glyph glyph-name="uni0435" unicode="&#x435;" horiz-adv-x="546" 
d="M517 331c0 -24 -5 -54 -15 -89l-4 -14h-383c-1 -13 -2 -23 -2 -30c0 -95 59 -150 139 -150c81 0 137 38 170 114l59 -24c-46 -99 -127 -148 -242 -148c-105 0 -196 78 -196 207c0 153 115 287 298 287c109 0 176 -61 176 -153zM449 324c0 67 -47 102 -119 102
c-97 0 -172 -61 -203 -146h317c3 13 5 28 5 44z" />
    <glyph glyph-name="uni0450" unicode="&#x450;" horiz-adv-x="546" 
d="M517 331c0 -24 -5 -54 -15 -89l-4 -14h-383c-1 -13 -2 -23 -2 -30c0 -95 59 -150 139 -150c81 0 137 38 170 114l59 -24c-46 -99 -127 -148 -242 -148c-105 0 -196 78 -196 207c0 153 115 287 298 287c109 0 176 -61 176 -153zM449 324c0 67 -47 102 -119 102
c-97 0 -172 -61 -203 -146h317c3 13 5 28 5 44zM342 555l-78 121l4 12h91l41 -133h-58z" />
    <glyph glyph-name="uni0451" unicode="&#x451;" horiz-adv-x="546" 
d="M517 331c0 -24 -5 -54 -15 -89l-4 -14h-383c-1 -13 -2 -23 -2 -30c0 -95 59 -150 139 -150c81 0 137 38 170 114l59 -24c-46 -99 -127 -148 -242 -148c-105 0 -196 78 -196 207c0 153 115 287 298 287c109 0 176 -61 176 -153zM449 324c0 67 -47 102 -119 102
c-97 0 -172 -61 -203 -146h317c3 13 5 28 5 44zM260 571l28 84h84l-28 -84h-84zM408 571l28 84h84l-28 -84h-84z" />
    <glyph glyph-name="uni0436" unicode="&#x436;" horiz-adv-x="680" 
d="M-51 0l302 259l-140 215h74l128 -211l69 211h68l-68 -210l247 210h94l-283 -232l137 -242h-74l-131 232l-76 -232h-68l76 233l-271 -233h-84z" />
    <glyph glyph-name="uni0437" unicode="&#x437;" horiz-adv-x="453" 
d="M196 211l18 58h31c68 0 119 32 119 84c0 47 -36 73 -92 73c-59 0 -99 -27 -120 -84l-53 23c23 76 96 119 185 119c95 0 148 -52 148 -121c0 -71 -56 -119 -123 -127c36 -11 64 -46 64 -91c0 -96 -77 -155 -200 -155c-48 0 -88 14 -120 42s-49 63 -51 106l59 23
c7 -69 49 -113 120 -113c77 0 124 35 124 96c0 43 -30 67 -83 67h-26z" />
    <glyph glyph-name="uni0438" unicode="&#x438;" horiz-adv-x="554" 
d="M-7 0l154 474h68l-131 -404l372 404h105l-154 -474h-68l131 404l-372 -404h-105z" />
    <glyph glyph-name="uni0439" unicode="&#x439;" horiz-adv-x="554" 
d="M-7 0l154 474h68l-131 -404l372 404h105l-154 -474h-68l131 404l-372 -404h-105zM291 633c0 15 3 29 10 42h59c-5 -11 -8 -21 -8 -31c0 -21 19 -36 47 -36c45 0 74 23 75 67h61c0 -76 -53 -119 -144 -119c-61 0 -99 28 -100 77z" />
    <glyph glyph-name="uni045D" unicode="&#x45d;" horiz-adv-x="554" 
d="M-7 0l154 474h68l-131 -404l372 404h105l-154 -474h-68l131 404l-372 -404h-105zM349 555l-78 121l4 12h91l41 -133h-58z" />
    <glyph glyph-name="uni043A" unicode="&#x43a;" horiz-adv-x="445" 
d="M-7 0l154 474h68l-68 -210l247 210h94l-283 -232l137 -242h-74l-131 232l-76 -232h-68z" />
    <glyph glyph-name="uni045C" unicode="&#x45c;" horiz-adv-x="445" 
d="M-7 0l154 474h68l-68 -210l247 210h94l-283 -232l137 -242h-74l-131 232l-76 -232h-68zM288 555l103 133h100l-4 -12l-134 -121h-65z" />
    <glyph glyph-name="uni043B" unicode="&#x43b;" horiz-adv-x="510" 
d="M-43 0v12c34 39 64 82 89 128c26 47 52 110 78 190l47 144h346l-154 -474h-68l135 416h-210l-32 -99c-27 -83 -53 -147 -78 -193c-25 -45 -53 -87 -84 -124h-69z" />
    <glyph glyph-name="uni043C" unicode="&#x43c;" horiz-adv-x="672" 
d="M679 474l-154 -474h-68l134 413l-285 -413h-86l-25 413l-134 -413h-68l154 474h104l24 -421l290 421h114z" />
    <glyph glyph-name="uni043D" unicode="&#x43d;" horiz-adv-x="533" 
d="M215 474l-65 -201h257l65 201h68l-154 -474h-68l70 215h-257l-70 -215h-68l154 474h68z" />
    <glyph glyph-name="uni043E" unicode="&#x43e;" horiz-adv-x="580" 
d="M39 181c0 168 124 303 311 303c113 0 191 -79 191 -191c0 -168 -124 -303 -311 -303c-110 0 -191 80 -191 191zM469 286c0 83 -53 140 -134 140c-128 2 -227 -114 -224 -238c0 -83 53 -140 134 -140c128 -2 227 114 224 238z" />
    <glyph glyph-name="uni043F" unicode="&#x43f;" horiz-adv-x="532" 
d="M-7 0l154 474h392l-154 -474h-68l135 416h-256l-135 -416h-68z" />
    <glyph glyph-name="uni0440" unicode="&#x440;" horiz-adv-x="581" 
d="M-71 -198l218 672h62l-26 -79c45 59 108 89 189 89c101 0 170 -75 170 -188c3 -178 -137 -309 -293 -306c-80 0 -142 48 -155 109l-97 -297h-68zM472 292c0 89 -51 134 -123 134c-109 3 -231 -124 -227 -253c0 -73 55 -125 135 -125c118 0 215 99 215 244z" />
    <glyph glyph-name="uni0441" unicode="&#x441;" horiz-adv-x="573" 
d="M45 203c0 163 119 281 300 281c111 0 182 -76 188 -167l-59 -18c-8 79 -63 127 -140 127c-128 0 -219 -89 -219 -221c0 -96 59 -157 147 -157c93 0 163 51 192 142l61 -21c-40 -112 -135 -179 -264 -179c-114 0 -206 80 -206 213z" />
    <glyph glyph-name="uni0442" unicode="&#x442;" horiz-adv-x="392" 
d="M85 0l135 416h-146l19 58h360l-19 -58h-146l-135 -416h-68z" />
    <glyph glyph-name="uni0443" unicode="&#x443;" horiz-adv-x="455" 
d="M444 474h73l-476 -659h-75l158 218l-37 441h67l30 -358z" />
    <glyph glyph-name="uni045E" unicode="&#x45e;" horiz-adv-x="455" 
d="M444 474h73l-476 -659h-75l158 218l-37 441h67l30 -358zM227 633c0 15 3 29 10 42h59c-5 -11 -8 -21 -8 -31c0 -21 19 -36 47 -36c45 0 74 23 75 67h61c0 -76 -53 -119 -144 -119c-61 0 -99 28 -100 77z" />
    <glyph glyph-name="uni0444" unicode="&#x444;" horiz-adv-x="908" 
d="M274 -198l87 269c-37 -55 -85 -81 -162 -81c-93 0 -158 78 -158 192c-3 176 127 305 271 302c79 0 134 -45 149 -106l105 322h68l-95 -292c32 43 86 76 161 76c99 0 164 -86 164 -198c0 -181 -110 -296 -269 -296c-37 0 -70 11 -99 32s-49 46 -58 75l-96 -295h-68z
M428 301c0 75 -47 125 -124 125c-106 0 -193 -97 -193 -240c0 -88 42 -138 107 -138c111 -3 213 129 210 253zM794 281c0 85 -48 145 -120 145c-113 0 -197 -101 -197 -235c0 -75 49 -143 124 -143c119 0 193 86 193 233z" />
    <glyph glyph-name="uni0445" unicode="&#x445;" horiz-adv-x="448" 
d="M492 474l-228 -228l93 -246h-68l-73 203l-195 -203h-84l255 260l-80 214h71l60 -171l164 171h85z" />
    <glyph glyph-name="uni0447" unicode="&#x447;" horiz-adv-x="533" 
d="M322 0l60 185c-43 -44 -96 -74 -180 -74c-72 0 -127 45 -127 112c0 19 3 39 10 61l62 190h68l-64 -196c-5 -17 -8 -32 -8 -47c0 -40 32 -62 77 -62c34 0 64 6 89 18c26 13 58 35 96 66l71 221h64l-154 -474h-64z" />
    <glyph glyph-name="uni0446" unicode="&#x446;" horiz-adv-x="548" 
d="M329 -110l36 110h-372l154 474h68l-135 -416h255l135 416h68l-135 -416h49l-55 -168h-68z" />
    <glyph glyph-name="uni0448" unicode="&#x448;" horiz-adv-x="764" 
d="M-7 0l154 474h68l-135 -416h210l135 416h68l-135 -416h210l135 416h68l-154 -474h-624z" />
    <glyph glyph-name="uni0449" unicode="&#x449;" horiz-adv-x="781" 
d="M562 -110l36 110h-605l154 474h68l-135 -416h210l135 416h68l-135 -416h210l135 416h68l-135 -416h49l-55 -168h-68z" />
    <glyph glyph-name="uni045F" unicode="&#x45f;" horiz-adv-x="532" 
d="M119 -110l36 110h-162l154 474h68l-135 -416h256l135 416h68l-154 -474h-162l-36 -110h-68z" />
    <glyph glyph-name="uni044C" unicode="&#x44c;" horiz-adv-x="492" 
d="M-7 0l154 474h68l-58 -180h124c88 0 134 -52 134 -124c0 -101 -73 -170 -210 -170h-212zM80 58h142c77 0 125 46 125 107c0 44 -29 71 -76 71h-133z" />
    <glyph glyph-name="uni044A" unicode="&#x44a;" horiz-adv-x="566" 
d="M67 0l135 416h-120l19 58h188l-58 -180h124c88 0 134 -52 134 -124c0 -101 -73 -170 -210 -170h-212zM154 58h142c77 0 125 46 125 107c0 44 -29 71 -76 71h-133z" />
    <glyph glyph-name="uni044B" unicode="&#x44b;" horiz-adv-x="700" 
d="M-7 0l154 474h68l-58 -180h124c88 0 134 -52 134 -124c0 -101 -73 -170 -210 -170h-212zM80 58h142c77 0 125 46 125 107c0 44 -29 71 -76 71h-133zM639 474h68l-154 -474h-68z" />
    <glyph glyph-name="uni0459" unicode="&#x459;" horiz-adv-x="762" 
d="M-43 0v12c34 39 64 82 89 128c26 47 52 110 78 190l47 144h314l-58 -180h124c88 0 134 -52 134 -124c0 -101 -73 -170 -210 -170h-212l135 416h-178l-32 -99c-27 -83 -53 -147 -78 -193c-25 -45 -53 -87 -84 -124h-69zM350 58h142c77 0 125 46 125 107
c0 44 -29 71 -76 71h-133z" />
    <glyph glyph-name="uni045A" unicode="&#x45a;" horiz-adv-x="794" 
d="M-7 0l154 474h68l-65 -201h235l65 201h68l-65 -201h123c91 0 137 -44 137 -117c0 -96 -68 -156 -205 -156h-212l70 215h-235l-70 -215h-68zM383 58h142c77 0 120 37 120 93c0 43 -26 64 -79 64h-132z" />
    <glyph glyph-name="uni0455" unicode="&#x455;" horiz-adv-x="483" 
d="M9 145l61 15c3 -69 52 -112 131 -112c84 0 139 38 139 95c0 45 -29 64 -114 84c-84 19 -126 62 -126 128c0 80 70 129 177 129c91 0 148 -45 159 -120l-58 -11c-8 45 -46 79 -106 79c-67 0 -110 -30 -110 -78c0 -40 37 -63 112 -79c91 -19 134 -59 134 -126
c0 -92 -84 -159 -209 -159c-121 0 -185 66 -190 155z" />
    <glyph glyph-name="uni0454" unicode="&#x454;" horiz-adv-x="568" 
d="M452 192l58 -23c-47 -115 -145 -179 -269 -179c-120 0 -201 75 -201 200c-3 161 138 297 303 294c116 0 177 -66 185 -167l-57 -15c-11 80 -60 124 -133 124c-107 0 -190 -60 -218 -157h201l-18 -58h-192c-1 -4 -1 -10 -1 -18c0 -87 50 -145 138 -145
c95 0 163 48 204 144z" />
    <glyph glyph-name="uni044D" unicode="&#x44d;" horiz-adv-x="564" 
d="M520 284c0 -168 -105 -294 -299 -294c-116 0 -202 83 -204 189l60 13c7 -89 59 -144 152 -144c116 0 191 62 215 163h-205l18 58h195v12c0 89 -51 145 -139 145c-85 0 -147 -45 -176 -129l-57 22c36 105 129 165 242 165c123 0 198 -81 198 -200z" />
    <glyph glyph-name="uni0456" unicode="&#x456;" horiz-adv-x="208" 
d="M147 474h68l-154 -474h-68zM174 571l26 83h78l-26 -83h-78z" />
    <glyph glyph-name="uni0457" unicode="&#x457;" horiz-adv-x="208" 
d="M147 474h68l-154 -474h-68zM94 571l28 84h84l-28 -84h-84zM242 571l28 84h84l-28 -84h-84z" />
    <glyph glyph-name="uni0458" unicode="&#x458;" horiz-adv-x="208" 
d="M-71 -198l218 672h68l-218 -672h-68zM174 571l26 83h78l-26 -83h-78z" />
    <glyph glyph-name="uni045B" unicode="&#x45b;" horiz-adv-x="546" 
d="M-7 0l228 700h68l-102 -315c43 65 105 99 181 99c83 0 135 -58 135 -130c0 -23 -4 -47 -12 -72l-92 -282h-68l96 294c5 16 8 33 8 50c-1 49 -35 82 -92 82c-83 0 -171 -82 -205 -189l-77 -237h-68zM128 623h293l-17 -52h-293z" />
    <glyph glyph-name="uni044E" unicode="&#x44e;" horiz-adv-x="761" 
d="M722 293c0 -168 -126 -303 -311 -303c-115 0 -191 79 -191 191c0 8 1 19 2 34h-91l-70 -215h-68l154 474h68l-65 -201h83c19 63 55 113 108 152s116 59 190 59c115 0 191 -79 191 -191zM650 290c0 79 -54 136 -134 136c-130 0 -224 -111 -224 -242
c0 -79 54 -136 134 -136c130 0 224 111 224 242z" />
    <glyph glyph-name="uni044F" unicode="&#x44f;" horiz-adv-x="499" 
d="M-26 10l211 185c-61 11 -110 62 -110 129c0 93 68 150 199 150h232l-154 -474h-68l63 195h-72l-223 -195h-81zM366 253l53 163h-154c-79 0 -122 -31 -122 -88c0 -45 32 -75 79 -75h144z" />
    <glyph glyph-name="uni0452" unicode="&#x452;" horiz-adv-x="546" 
d="M503 354c0 -23 -4 -47 -12 -72l-127 -389c-22 -67 -66 -101 -133 -101c-52 0 -89 32 -92 79l61 22c4 -27 19 -41 45 -41c25 0 42 16 53 48l129 394c5 16 8 33 8 50c-1 49 -35 82 -92 82c-83 0 -171 -82 -205 -189l-77 -237h-68l186 571h-68l17 52h68l25 77h68l-25 -77
h157l-17 -52h-157l-60 -186c43 65 105 99 181 99c83 0 135 -58 135 -130z" />
    <glyph glyph-name="uni0463" unicode="&#x463;" horiz-adv-x="476" 
d="M410 211c0 -125 -99 -211 -262 -211h-157l175 536h-121l19 58h120l35 106h68l-35 -106h152l-19 -58h-151l-54 -164h68c47 0 86 -15 116 -45c31 -30 46 -69 46 -116zM342 207c0 68 -42 107 -114 107h-67l-83 -256h77c55 0 100 14 135 41s52 63 52 108z" />
    <glyph glyph-name="uni0473" unicode="&#x473;" horiz-adv-x="580" 
d="M541 293c0 -168 -126 -303 -311 -303c-115 0 -191 79 -191 191c0 168 126 303 311 303c115 0 191 -79 191 -191zM122 260c27 17 58 25 93 25c29 0 52 -7 84 -22c33 -13 50 -20 74 -20c36 0 68 11 96 32v15c0 79 -54 136 -134 136c-51 0 -96 -16 -134 -47
s-64 -70 -79 -119zM458 215c-27 -17 -58 -25 -93 -25c-29 0 -52 7 -84 22c-33 13 -50 20 -74 20c-36 0 -68 -11 -96 -32v-16c0 -79 54 -136 134 -136c51 0 96 16 134 47c39 31 65 71 79 120z" />
    <glyph glyph-name="uni0475" unicode="&#x475;" horiz-adv-x="530" 
d="M133 0l-36 474h66l29 -408l268 382c21 31 46 47 75 47c33 0 59 -17 67 -42l-47 -44c-5 11 -13 16 -22 16c-11 0 -17 -4 -28 -19l-285 -406h-87z" />
    <glyph glyph-name="uni0493" unicode="&#x493;" horiz-adv-x="406" 
d="M446 416h-234l-49 -152h117l-16 -48h-117l-70 -216h-68l70 216h-63l16 48h63l68 210h302z" />
    <glyph glyph-name="uni0497" unicode="&#x497;" horiz-adv-x="680" 
d="M-51 0l302 259l-140 215h74l128 -211l69 211h68l-68 -210l247 210h94l-283 -232l137 -242h-74l-131 232l-76 -232h-68l76 233l-271 -233h-84zM485 -110l35 110l19 64h66l-56 -174h-64z" />
    <glyph glyph-name="uni0499" unicode="&#x499;" horiz-adv-x="453" 
d="M196 211l18 58h31c68 0 119 32 119 84c0 47 -36 73 -92 73c-59 0 -99 -27 -120 -84l-53 23c23 76 96 119 185 119c95 0 148 -52 148 -121c0 -71 -56 -119 -123 -127c36 -11 64 -46 64 -91c0 -96 -77 -155 -200 -155c-48 0 -88 14 -120 42s-49 63 -51 106l59 23
c7 -69 49 -113 120 -113c77 0 124 35 124 96c0 43 -30 67 -83 67h-26zM58 -120l40 9c3 -23 21 -39 46 -39c35 0 53 20 53 49c0 21 -13 38 -36 38c-19 0 -35 -9 -47 -27l-39 18c14 19 30 48 49 88h45l-15 -24c-12 -20 -23 -36 -33 -47c16 17 34 25 55 25c33 0 61 -25 61 -65
c0 -55 -36 -93 -99 -93c-41 0 -76 28 -80 68z" />
    <glyph glyph-name="uni049B" unicode="&#x49b;" horiz-adv-x="445" 
d="M-7 0l154 474h68l-68 -210l247 210h94l-283 -232l137 -242h-74l-131 232l-76 -232h-68zM250 -110l35 110l19 64h66l-56 -174h-64z" />
    <glyph glyph-name="uni04A1" unicode="&#x4a1;" horiz-adv-x="500" 
d="M543 474l-283 -232l137 -242h-74l-131 232l-76 -232h-68l137 422h-104l16 52h173l-68 -210l247 210h94z" />
    <glyph glyph-name="uni04A3" unicode="&#x4a3;" horiz-adv-x="533" 
d="M215 474l-65 -201h257l65 201h68l-154 -474h-68l70 215h-257l-70 -215h-68l154 474h68zM351 -110l35 110l19 64h66l-56 -174h-64z" />
    <glyph glyph-name="uni04AB" unicode="&#x4ab;" horiz-adv-x="573" 
d="M45 203c0 163 119 281 300 281c111 0 182 -76 188 -167l-59 -18c-8 79 -63 127 -140 127c-128 0 -219 -89 -219 -221c0 -96 59 -157 147 -157c93 0 163 51 192 142l61 -21c-40 -112 -135 -179 -264 -179c-114 0 -206 80 -206 213zM164 -120l40 9c3 -23 21 -39 46 -39
c35 0 53 20 53 49c0 21 -13 38 -36 38c-19 0 -35 -9 -47 -27l-39 18c14 19 30 48 49 88h45l-15 -24c-12 -20 -23 -36 -33 -47c16 17 34 25 55 25c33 0 61 -25 61 -65c0 -55 -36 -93 -99 -93c-41 0 -76 28 -80 68z" />
    <glyph glyph-name="uni04AF" unicode="&#x4af;" horiz-adv-x="506" 
d="M78 -198l64 198l-45 474h66l32 -397l286 397h82l-353 -474l-64 -198h-68z" />
    <glyph glyph-name="uni04B1" unicode="&#x4b1;" horiz-adv-x="506" 
d="M563 474l-334 -449h81l-16 -50h-92l-56 -173h-68l56 173h-92l16 50h82l-43 449h66l32 -397l286 397h82z" />
    <glyph glyph-name="uni04B3" unicode="&#x4b3;" horiz-adv-x="448" 
d="M492 474l-228 -228l93 -246h-68l-73 203l-195 -203h-84l255 260l-80 214h71l60 -171l164 171h85zM278 -110l35 110l19 64h66l-56 -174h-64z" />
    <glyph glyph-name="uni04B7" unicode="&#x4b7;" horiz-adv-x="533" 
d="M322 0l60 185c-43 -44 -96 -74 -180 -74c-72 0 -127 45 -127 112c0 19 3 39 10 61l62 190h68l-64 -196c-5 -17 -8 -32 -8 -47c0 -40 32 -62 77 -62c34 0 64 6 89 18c26 13 58 35 96 66l71 221h64l-154 -474h-64zM351 -110l35 110l19 64h66l-56 -174h-64z" />
    <glyph glyph-name="uni04BB" unicode="&#x4bb;" horiz-adv-x="546" 
d="M-7 0l228 700h68l-102 -315c43 65 105 99 181 99c83 0 135 -58 135 -130c0 -23 -4 -47 -12 -72l-92 -282h-68l96 294c5 16 8 33 8 50c-1 49 -35 82 -92 82c-83 0 -171 -82 -205 -189l-77 -237h-68z" />
    <glyph glyph-name="uni0527" unicode="&#x527;" horiz-adv-x="546" 
d="M-7 0l228 700h68l-102 -315c43 65 105 99 181 99c83 0 135 -58 135 -130c0 -23 -4 -47 -12 -72l-92 -282h-68l96 294c5 16 8 33 8 50c-1 49 -35 82 -92 82c-83 0 -171 -82 -205 -189l-77 -237h-68zM362 -110l35 110l19 64h66l-56 -174h-64z" />
    <glyph glyph-name="uni04CF" unicode="&#x4cf;" horiz-adv-x="209" 
d="M-7 0l228 700h68l-228 -700h-68z" />
    <glyph glyph-name="uni04C2" unicode="&#x4c2;" horiz-adv-x="680" 
d="M-51 0l302 259l-140 215h74l128 -211l69 211h68l-68 -210l247 210h94l-283 -232l137 -242h-74l-131 232l-76 -232h-68l76 233l-271 -233h-84zM353 633c0 15 3 29 10 42h59c-5 -11 -8 -21 -8 -31c0 -21 19 -36 47 -36c45 0 74 23 75 67h61c0 -76 -53 -119 -144 -119
c-61 0 -99 28 -100 77z" />
    <glyph glyph-name="uni04D1" unicode="&#x4d1;" horiz-adv-x="582" 
d="M40 183c-3 174 137 304 293 301c81 0 142 -48 155 -109l33 99h68l-154 -474h-63l28 84c-36 -56 -99 -94 -186 -94c-95 0 -174 76 -174 193zM460 301c0 73 -55 125 -135 125c-118 0 -215 -98 -215 -238c0 -95 51 -140 123 -140c109 -3 231 124 227 253zM277 633
c0 15 3 29 10 42h59c-5 -11 -8 -21 -8 -31c0 -21 19 -36 47 -36c45 0 74 23 75 67h61c0 -76 -53 -119 -144 -119c-61 0 -99 28 -100 77z" />
    <glyph glyph-name="uni04D3" unicode="&#x4d3;" horiz-adv-x="582" 
d="M40 183c-3 174 137 304 293 301c81 0 142 -48 155 -109l33 99h68l-154 -474h-63l28 84c-36 -56 -99 -94 -186 -94c-95 0 -174 76 -174 193zM460 301c0 73 -55 125 -135 125c-118 0 -215 -98 -215 -238c0 -95 51 -140 123 -140c109 -3 231 124 227 253zM253 571l28 84h84
l-28 -84h-84zM401 571l28 84h84l-28 -84h-84z" />
    <glyph glyph-name="uni04D5" unicode="&#x4d5;" horiz-adv-x="944" 
d="M40 183c-3 174 137 304 293 301c81 0 142 -48 155 -109l33 99h68l-22 -68c41 48 106 78 173 78c108 0 175 -61 175 -153c0 -24 -5 -54 -15 -89l-4 -14h-381c-3 -13 -4 -25 -4 -36c0 -88 59 -144 139 -144c81 0 137 38 170 114l59 -24c-44 -96 -127 -148 -243 -148
c-76 0 -144 42 -167 114l-34 -104h-63l28 84c-36 -56 -99 -94 -186 -94c-95 0 -174 76 -174 193zM460 301c0 73 -55 125 -135 125c-118 0 -215 -98 -215 -238c0 -95 51 -140 123 -140c109 -3 231 124 227 253zM525 280h317c3 13 5 28 5 44c0 67 -47 102 -119 102
c-100 0 -172 -62 -203 -146z" />
    <glyph glyph-name="uni04D7" unicode="&#x4d7;" horiz-adv-x="546" 
d="M517 331c0 -24 -5 -54 -15 -89l-4 -14h-383c-1 -13 -2 -23 -2 -30c0 -95 59 -150 139 -150c81 0 137 38 170 114l59 -24c-46 -99 -127 -148 -242 -148c-105 0 -196 78 -196 207c0 153 115 287 298 287c109 0 176 -61 176 -153zM449 324c0 67 -47 102 -119 102
c-97 0 -172 -61 -203 -146h317c3 13 5 28 5 44zM284 633c0 15 3 29 10 42h59c-5 -11 -8 -21 -8 -31c0 -21 19 -36 47 -36c45 0 74 23 75 67h61c0 -76 -53 -119 -144 -119c-61 0 -99 28 -100 77z" />
    <glyph glyph-name="uni04D9" unicode="&#x4d9;" horiz-adv-x="546" 
d="M503 277c0 -153 -115 -287 -298 -287c-109 0 -176 61 -176 153c0 25 5 54 15 89l4 14h383c1 13 2 23 2 30c0 95 -59 150 -139 150c-81 0 -137 -38 -170 -114l-59 24c46 99 127 148 242 148c105 0 196 -78 196 -207zM419 194h-317c-3 -13 -5 -28 -5 -44
c0 -67 47 -102 119 -102c97 0 172 61 203 146z" />
    <glyph glyph-name="uni04DB" unicode="&#x4db;" horiz-adv-x="546" 
d="M503 277c0 -153 -115 -287 -298 -287c-109 0 -176 61 -176 153c0 25 5 54 15 89l4 14h383c1 13 2 23 2 30c0 95 -59 150 -139 150c-81 0 -137 -38 -170 -114l-59 24c46 99 127 148 242 148c105 0 196 -78 196 -207zM419 194h-317c-3 -13 -5 -28 -5 -44
c0 -67 47 -102 119 -102c97 0 172 61 203 146zM228 571l28 84h84l-28 -84h-84zM376 571l28 84h84l-28 -84h-84z" />
    <glyph glyph-name="uni04DD" unicode="&#x4dd;" horiz-adv-x="680" 
d="M-51 0l302 259l-140 215h74l128 -211l69 211h68l-68 -210l247 210h94l-283 -232l137 -242h-74l-131 232l-76 -232h-68l76 233l-271 -233h-84zM329 571l28 84h84l-28 -84h-84zM477 571l28 84h84l-28 -84h-84z" />
    <glyph glyph-name="uni04DF" unicode="&#x4df;" horiz-adv-x="453" 
d="M196 211l18 58h31c68 0 119 32 119 84c0 47 -36 73 -92 73c-59 0 -99 -27 -120 -84l-53 23c23 76 96 119 185 119c95 0 148 -52 148 -121c0 -71 -56 -119 -123 -127c36 -11 64 -46 64 -91c0 -96 -77 -155 -200 -155c-48 0 -88 14 -120 42s-49 63 -51 106l59 23
c7 -69 49 -113 120 -113c77 0 124 35 124 96c0 43 -30 67 -83 67h-26zM217 571l28 84h84l-28 -84h-84zM365 571l28 84h84l-28 -84h-84z" />
    <glyph glyph-name="uni04E3" unicode="&#x4e3;" horiz-adv-x="554" 
d="M-7 0l154 474h68l-131 -404l372 404h105l-154 -474h-68l131 404l-372 -404h-105zM266 586l18 58h248l-18 -58h-248z" />
    <glyph glyph-name="uni04E5" unicode="&#x4e5;" horiz-adv-x="554" 
d="M-7 0l154 474h68l-131 -404l372 404h105l-154 -474h-68l131 404l-372 -404h-105zM267 571l28 84h84l-28 -84h-84zM415 571l28 84h84l-28 -84h-84z" />
    <glyph glyph-name="uni04E7" unicode="&#x4e7;" horiz-adv-x="580" 
d="M39 181c0 168 124 303 311 303c113 0 191 -79 191 -191c0 -168 -124 -303 -311 -303c-110 0 -191 80 -191 191zM469 286c0 83 -53 140 -134 140c-128 2 -227 -114 -224 -238c0 -83 53 -140 134 -140c128 -2 227 114 224 238zM260 571l28 84h84l-28 -84h-84zM408 571
l28 84h84l-28 -84h-84z" />
    <glyph glyph-name="uni04E9" unicode="&#x4e9;" horiz-adv-x="580" 
d="M39 181c0 168 126 303 311 303c115 0 191 -79 191 -191c0 -168 -126 -303 -311 -303c-115 0 -191 79 -191 191zM124 266h344c1 5 1 13 1 24c0 79 -54 136 -134 136c-100 0 -182 -65 -211 -160zM456 208h-344c-1 -5 -1 -13 -1 -24c0 -79 54 -136 134 -136
c100 0 182 65 211 160z" />
    <glyph glyph-name="uni04EB" unicode="&#x4eb;" horiz-adv-x="580" 
d="M39 181c0 168 126 303 311 303c115 0 191 -79 191 -191c0 -168 -126 -303 -311 -303c-115 0 -191 79 -191 191zM124 266h344c1 5 1 13 1 24c0 79 -54 136 -134 136c-100 0 -182 -65 -211 -160zM456 208h-344c-1 -5 -1 -13 -1 -24c0 -79 54 -136 134 -136
c100 0 182 65 211 160zM260 571l28 84h84l-28 -84h-84zM408 571l28 84h84l-28 -84h-84z" />
    <glyph glyph-name="uni04ED" unicode="&#x4ed;" horiz-adv-x="564" 
d="M520 284c0 -168 -105 -294 -299 -294c-116 0 -202 83 -204 189l60 13c7 -89 59 -144 152 -144c116 0 191 62 215 163h-205l18 58h195v12c0 89 -51 145 -139 145c-85 0 -147 -45 -176 -129l-57 22c36 105 129 165 242 165c123 0 198 -81 198 -200zM259 571l28 84h84
l-28 -84h-84zM407 571l28 84h84l-28 -84h-84z" />
    <glyph glyph-name="uni04EF" unicode="&#x4ef;" horiz-adv-x="455" 
d="M444 474h73l-476 -659h-75l158 218l-37 441h67l30 -358zM202 586l18 58h248l-18 -58h-248z" />
    <glyph glyph-name="uni04F1" unicode="&#x4f1;" horiz-adv-x="455" 
d="M444 474h73l-476 -659h-75l158 218l-37 441h67l30 -358zM203 571l28 84h84l-28 -84h-84zM351 571l28 84h84l-28 -84h-84z" />
    <glyph glyph-name="uni04F3" unicode="&#x4f3;" horiz-adv-x="455" 
d="M444 474h73l-476 -659h-75l158 218l-37 441h67l30 -358zM200 555l103 133h100l-4 -12l-134 -121h-65zM362 555l103 133h100l-4 -12l-134 -121h-65z" />
    <glyph glyph-name="uni04F5" unicode="&#x4f5;" horiz-adv-x="533" 
d="M322 0l60 185c-43 -44 -96 -74 -180 -74c-72 0 -127 45 -127 112c0 19 3 39 10 61l62 190h68l-64 -196c-5 -17 -8 -32 -8 -47c0 -40 32 -62 77 -62c34 0 64 6 89 18c26 13 58 35 96 66l71 221h64l-154 -474h-64zM256 571l28 84h84l-28 -84h-84zM404 571l28 84h84l-28 -84
h-84z" />
    <glyph glyph-name="uni04F9" unicode="&#x4f9;" horiz-adv-x="700" 
d="M-7 0l154 474h68l-58 -180h124c88 0 134 -52 134 -124c0 -101 -73 -170 -210 -170h-212zM80 58h142c77 0 125 46 125 107c0 44 -29 71 -76 71h-133zM639 474h68l-154 -474h-68zM329 571l28 84h84l-28 -84h-84zM477 571l28 84h84l-28 -84h-84z" />
    <glyph glyph-name="uni0451.ss01" horiz-adv-x="546" 
d="M517 331c0 -24 -5 -54 -15 -89l-4 -14h-383c-1 -13 -2 -23 -2 -30c0 -95 59 -150 139 -150c81 0 137 38 170 114l59 -24c-46 -99 -127 -148 -242 -148c-105 0 -196 78 -196 207c0 153 115 287 298 287c109 0 176 -61 176 -153zM449 324c0 67 -47 102 -119 102
c-97 0 -172 -61 -203 -146h317c3 13 5 28 5 44zM272 613c0 25 20 45 45 45s45 -20 45 -45s-20 -45 -45 -45s-45 20 -45 45zM424 613c0 25 20 45 45 45s45 -20 45 -45s-20 -45 -45 -45s-45 20 -45 45z" />
    <glyph glyph-name="uni0456.ss01" horiz-adv-x="208" 
d="M147 474h68l-154 -474h-68zM225 658c27 0 46 -19 46 -46c0 -25 -19 -46 -46 -46c-25 0 -46 21 -46 46c0 27 21 46 46 46z" />
    <glyph glyph-name="uni0457.ss01" horiz-adv-x="208" 
d="M147 474h68l-154 -474h-68zM106 613c0 25 20 45 45 45s45 -20 45 -45s-20 -45 -45 -45s-45 20 -45 45zM258 613c0 25 20 45 45 45s45 -20 45 -45s-20 -45 -45 -45s-45 20 -45 45z" />
    <glyph glyph-name="uni0458.ss01" horiz-adv-x="208" 
d="M-71 -198l218 672h68l-218 -672h-68zM225 658c27 0 46 -19 46 -46c0 -25 -19 -46 -46 -46c-25 0 -46 21 -46 46c0 27 21 46 46 46z" />
    <glyph glyph-name="uni04D3.ss01" horiz-adv-x="582" 
d="M40 183c-3 174 137 304 293 301c81 0 142 -48 155 -109l33 99h68l-154 -474h-63l28 84c-36 -56 -99 -94 -186 -94c-95 0 -174 76 -174 193zM460 301c0 73 -55 125 -135 125c-118 0 -215 -98 -215 -238c0 -95 51 -140 123 -140c109 -3 231 124 227 253zM265 613
c0 25 20 45 45 45s45 -20 45 -45s-20 -45 -45 -45s-45 20 -45 45zM417 613c0 25 20 45 45 45s45 -20 45 -45s-20 -45 -45 -45s-45 20 -45 45z" />
    <glyph glyph-name="uni04DB.ss01" horiz-adv-x="546" 
d="M503 277c0 -153 -115 -287 -298 -287c-109 0 -176 61 -176 153c0 25 5 54 15 89l4 14h383c1 13 2 23 2 30c0 95 -59 150 -139 150c-81 0 -137 -38 -170 -114l-59 24c46 99 127 148 242 148c105 0 196 -78 196 -207zM419 194h-317c-3 -13 -5 -28 -5 -44
c0 -67 47 -102 119 -102c97 0 172 61 203 146zM240 613c0 25 20 45 45 45s45 -20 45 -45s-20 -45 -45 -45s-45 20 -45 45zM392 613c0 25 20 45 45 45s45 -20 45 -45s-20 -45 -45 -45s-45 20 -45 45z" />
    <glyph glyph-name="uni04DD.ss01" horiz-adv-x="680" 
d="M-51 0l302 259l-140 215h74l128 -211l69 211h68l-68 -210l247 210h94l-283 -232l137 -242h-74l-131 232l-76 -232h-68l76 233l-271 -233h-84zM341 613c0 25 20 45 45 45s45 -20 45 -45s-20 -45 -45 -45s-45 20 -45 45zM493 613c0 25 20 45 45 45s45 -20 45 -45
s-20 -45 -45 -45s-45 20 -45 45z" />
    <glyph glyph-name="uni04DF.ss01" horiz-adv-x="453" 
d="M196 211l18 58h31c68 0 119 32 119 84c0 47 -36 73 -92 73c-59 0 -99 -27 -120 -84l-53 23c23 76 96 119 185 119c95 0 148 -52 148 -121c0 -71 -56 -119 -123 -127c36 -11 64 -46 64 -91c0 -96 -77 -155 -200 -155c-48 0 -88 14 -120 42s-49 63 -51 106l59 23
c7 -69 49 -113 120 -113c77 0 124 35 124 96c0 43 -30 67 -83 67h-26zM229 613c0 25 20 45 45 45s45 -20 45 -45s-20 -45 -45 -45s-45 20 -45 45zM381 613c0 25 20 45 45 45s45 -20 45 -45s-20 -45 -45 -45s-45 20 -45 45z" />
    <glyph glyph-name="uni04E5.ss01" horiz-adv-x="554" 
d="M-7 0l154 474h68l-131 -404l372 404h105l-154 -474h-68l131 404l-372 -404h-105zM279 613c0 25 20 45 45 45s45 -20 45 -45s-20 -45 -45 -45s-45 20 -45 45zM431 613c0 25 20 45 45 45s45 -20 45 -45s-20 -45 -45 -45s-45 20 -45 45z" />
    <glyph glyph-name="uni04E7.ss01" horiz-adv-x="580" 
d="M39 181c0 168 124 303 311 303c113 0 191 -79 191 -191c0 -168 -124 -303 -311 -303c-110 0 -191 80 -191 191zM469 286c0 83 -53 140 -134 140c-128 2 -227 -114 -224 -238c0 -83 53 -140 134 -140c128 -2 227 114 224 238zM272 613c0 25 20 45 45 45s45 -20 45 -45
s-20 -45 -45 -45s-45 20 -45 45zM424 613c0 25 20 45 45 45s45 -20 45 -45s-20 -45 -45 -45s-45 20 -45 45z" />
    <glyph glyph-name="uni04EB.ss01" horiz-adv-x="580" 
d="M39 181c0 168 126 303 311 303c115 0 191 -79 191 -191c0 -168 -126 -303 -311 -303c-115 0 -191 79 -191 191zM124 266h344c1 5 1 13 1 24c0 79 -54 136 -134 136c-100 0 -182 -65 -211 -160zM456 208h-344c-1 -5 -1 -13 -1 -24c0 -79 54 -136 134 -136
c100 0 182 65 211 160zM272 613c0 25 20 45 45 45s45 -20 45 -45s-20 -45 -45 -45s-45 20 -45 45zM424 613c0 25 20 45 45 45s45 -20 45 -45s-20 -45 -45 -45s-45 20 -45 45z" />
    <glyph glyph-name="uni04ED.ss01" horiz-adv-x="564" 
d="M520 284c0 -168 -105 -294 -299 -294c-116 0 -202 83 -204 189l60 13c7 -89 59 -144 152 -144c116 0 191 62 215 163h-205l18 58h195v12c0 89 -51 145 -139 145c-85 0 -147 -45 -176 -129l-57 22c36 105 129 165 242 165c123 0 198 -81 198 -200zM271 613
c0 25 20 45 45 45s45 -20 45 -45s-20 -45 -45 -45s-45 20 -45 45zM423 613c0 25 20 45 45 45s45 -20 45 -45s-20 -45 -45 -45s-45 20 -45 45z" />
    <glyph glyph-name="uni04F1.ss01" horiz-adv-x="455" 
d="M444 474h73l-476 -659h-75l158 218l-37 441h67l30 -358zM215 613c0 25 20 45 45 45s45 -20 45 -45s-20 -45 -45 -45s-45 20 -45 45zM367 613c0 25 20 45 45 45s45 -20 45 -45s-20 -45 -45 -45s-45 20 -45 45z" />
    <glyph glyph-name="uni04F5.ss01" horiz-adv-x="533" 
d="M322 0l60 185c-43 -44 -96 -74 -180 -74c-72 0 -127 45 -127 112c0 19 3 39 10 61l62 190h68l-64 -196c-5 -17 -8 -32 -8 -47c0 -40 32 -62 77 -62c34 0 64 6 89 18c26 13 58 35 96 66l71 221h64l-154 -474h-64zM268 613c0 25 20 45 45 45s45 -20 45 -45s-20 -45 -45 -45
s-45 20 -45 45zM420 613c0 25 20 45 45 45s45 -20 45 -45s-20 -45 -45 -45s-45 20 -45 45z" />
    <glyph glyph-name="uni04F9.ss01" horiz-adv-x="700" 
d="M-7 0l154 474h68l-58 -180h124c88 0 134 -52 134 -124c0 -101 -73 -170 -210 -170h-212zM80 58h142c77 0 125 46 125 107c0 44 -29 71 -76 71h-133zM639 474h68l-154 -474h-68zM341 613c0 25 20 45 45 45s45 -20 45 -45s-20 -45 -45 -45s-45 20 -45 45zM493 613
c0 25 20 45 45 45s45 -20 45 -45s-20 -45 -45 -45s-45 20 -45 45z" />
    <glyph glyph-name="uni0430.ss02" horiz-adv-x="538" 
d="M33 119c0 107 84 157 215 157h165l10 32c3 9 4 18 4 26c0 55 -53 92 -122 92c-71 0 -130 -36 -149 -103l-59 17c29 92 103 144 222 144c107 0 176 -61 176 -141c0 -15 -3 -32 -9 -50l-95 -293h-68l21 64c-41 -51 -92 -74 -164 -74c-91 0 -147 57 -147 129zM380 174l16 50
h-149c-87 0 -146 -32 -146 -100c0 -48 38 -76 91 -76c91 0 163 47 188 126z" />
    <glyph glyph-name="uni04D1.ss02" horiz-adv-x="538" 
d="M33 119c0 107 84 157 215 157h165l10 32c3 9 4 18 4 26c0 55 -53 92 -122 92c-71 0 -130 -36 -149 -103l-59 17c29 92 103 144 222 144c107 0 176 -61 176 -141c0 -15 -3 -32 -9 -50l-95 -293h-68l21 64c-41 -51 -92 -74 -164 -74c-91 0 -147 57 -147 129zM380 174l16 50
h-149c-87 0 -146 -32 -146 -100c0 -48 38 -76 91 -76c91 0 163 47 188 126zM259 633c0 15 3 29 10 42h59c-5 -11 -8 -21 -8 -31c0 -21 19 -36 47 -36c45 0 74 23 75 67h61c0 -76 -53 -119 -144 -119c-61 0 -99 28 -100 77z" />
    <glyph glyph-name="uni04D3.ss02" horiz-adv-x="538" 
d="M33 119c0 107 84 157 215 157h165l10 32c3 9 4 18 4 26c0 55 -53 92 -122 92c-71 0 -130 -36 -149 -103l-59 17c29 92 103 144 222 144c107 0 176 -61 176 -141c0 -15 -3 -32 -9 -50l-95 -293h-68l21 64c-41 -51 -92 -74 -164 -74c-91 0 -147 57 -147 129zM380 174l16 50
h-149c-87 0 -146 -32 -146 -100c0 -48 38 -76 91 -76c91 0 163 47 188 126zM235 571l28 84h84l-28 -84h-84zM383 571l28 84h84l-28 -84h-84z" />
    <glyph glyph-name="uni04D5.ss02" horiz-adv-x="906" 
d="M33 119c0 107 85 161 216 161h165l9 28c3 9 4 18 4 26c0 55 -53 92 -122 92c-71 0 -130 -36 -149 -103l-59 17c29 92 103 144 222 144c81 0 146 -38 163 -101c49 65 126 101 219 101c109 0 176 -61 176 -153c0 -24 -5 -54 -15 -89l-4 -14h-383c-1 -13 -2 -23 -2 -30
c0 -95 59 -150 139 -150c81 0 137 38 170 114l59 -24c-46 -99 -127 -148 -242 -148c-77 0 -149 44 -172 121l-36 -111h-68l21 64c-41 -51 -92 -74 -164 -74c-91 0 -147 57 -147 129zM487 280h317c3 13 5 28 5 44c0 67 -47 102 -119 102c-97 0 -172 -61 -203 -146zM380 174
l17 54h-149c-85 0 -147 -36 -147 -104c0 -48 38 -76 91 -76c91 0 163 49 188 126z" />
    <glyph glyph-name="uni04D3.ss01.ss02" horiz-adv-x="538" 
d="M33 119c0 107 84 157 215 157h165l10 32c3 9 4 18 4 26c0 55 -53 92 -122 92c-71 0 -130 -36 -149 -103l-59 17c29 92 103 144 222 144c107 0 176 -61 176 -141c0 -15 -3 -32 -9 -50l-95 -293h-68l21 64c-41 -51 -92 -74 -164 -74c-91 0 -147 57 -147 129zM380 174l16 50
h-149c-87 0 -146 -32 -146 -100c0 -48 38 -76 91 -76c91 0 163 47 188 126zM247 613c0 25 20 45 45 45s45 -20 45 -45s-20 -45 -45 -45s-45 20 -45 45zM399 613c0 25 20 45 45 45s45 -20 45 -45s-20 -45 -45 -45s-45 20 -45 45z" />
    <glyph glyph-name="Alpha" unicode="&#x391;" horiz-adv-x="724" 
d="M563 0l-18 188h-384l-140 -188h-84l527 700h98l71 -700h-70zM208 252h331l-38 394z" />
    <glyph glyph-name="Beta" unicode="&#x392;" horiz-adv-x="682" 
d="M3 0l228 700h293c108 0 178 -63 178 -159c0 -93 -68 -156 -160 -184c49 -21 78 -65 78 -128c0 -132 -119 -229 -290 -229h-327zM204 390h242c53 0 97 13 131 40c35 27 52 64 52 109c0 59 -43 97 -120 97h-225zM98 64h249c109 0 198 60 198 161c0 65 -40 105 -115 105
h-245z" />
    <glyph glyph-name="Gamma" unicode="&#x393;" horiz-adv-x="606" 
d="M701 636h-417l-207 -636h-74l228 700h491z" />
    <glyph glyph-name="uni0394" unicode="&#x394;" horiz-adv-x="724" 
d="M562 700l71 -700h-696l527 700h98zM69 64h488l-56 582z" />
    <glyph glyph-name="Epsilon" unicode="&#x395;" horiz-adv-x="622" 
d="M231 700h472l-21 -64h-398l-79 -242h368l-20 -64h-368l-87 -266h408l-21 -64h-482z" />
    <glyph glyph-name="Zeta" unicode="&#x396;" horiz-adv-x="695" 
d="M-1 64l668 572h-477l21 64h575l-21 -64l-668 -572h487l-21 -64h-585z" />
    <glyph glyph-name="Eta" unicode="&#x397;" horiz-adv-x="728" 
d="M598 313h-419l-102 -313h-74l228 700h74l-105 -323h419l105 323h74l-228 -700h-74z" />
    <glyph glyph-name="Theta" unicode="&#x398;" horiz-adv-x="850" 
d="M86 291c-4 219 186 423 456 419c181 0 296 -122 296 -299c4 -219 -186 -425 -456 -421c-176 0 -296 123 -296 301zM764 407c0 151 -91 239 -239 239c-209 4 -369 -170 -365 -351c0 -152 94 -241 239 -241c207 -5 369 173 365 353zM329 321l18 58h248l-18 -58h-248z" />
    <glyph glyph-name="Iota" unicode="&#x399;" horiz-adv-x="235" 
d="M3 0l228 700h74l-228 -700h-74z" />
    <glyph glyph-name="Kappa" unicode="&#x39a;" horiz-adv-x="651" 
d="M420 427l128 -427h-75l-114 377l-219 -172l-67 -205h-70l228 700h70l-127 -392l489 392h102z" />
    <glyph glyph-name="Lambda" unicode="&#x39b;" horiz-adv-x="724" 
d="M-63 0l527 700h98l71 -700h-70l-62 646l-480 -646h-84z" />
    <glyph glyph-name="Mu" unicode="&#x39c;" horiz-adv-x="940" 
d="M782 0h-70l217 666l-485 -666h-103l-51 666l-217 -666h-70l228 700h126l47 -651l469 651h137z" />
    <glyph glyph-name="Nu" unicode="&#x39d;" horiz-adv-x="759" 
d="M290 655l-213 -655h-74l228 700h113l198 -655l213 655h74l-228 -700h-113z" />
    <glyph glyph-name="Xi" unicode="&#x39e;" horiz-adv-x="665" 
d="M730 636h-535l21 64h535zM508 323h-295l21 64h295zM4 64h545l-21 -64h-545z" />
    <glyph glyph-name="Omicron" unicode="&#x39f;" horiz-adv-x="850" 
d="M86 291c-4 219 186 423 456 419c181 0 296 -122 296 -299c4 -219 -186 -425 -456 -421c-176 0 -296 123 -296 301zM764 407c0 151 -91 239 -239 239c-209 4 -369 -170 -365 -351c0 -152 94 -241 239 -241c207 -5 369 173 365 353z" />
    <glyph glyph-name="Pi" unicode="&#x3a0;" horiz-adv-x="728" 
d="M703 636h-419l-207 -636h-74l228 700h567l-228 -700h-74z" />
    <glyph glyph-name="Rho" unicode="&#x3a1;" horiz-adv-x="667" 
d="M3 0l228 700h278c107 0 186 -72 186 -173c0 -136 -102 -229 -295 -229h-226l-97 -298h-74zM195 362h220c123 0 204 54 204 157c0 73 -48 117 -125 117h-210z" />
    <glyph glyph-name="Sigma" unicode="&#x3a3;" horiz-adv-x="644" 
d="M451 380l-20 -60l-349 -256h446l-21 -64h-529l26 80l376 283l-200 257l26 80h509l-21 -64h-440z" />
    <glyph glyph-name="Tau" unicode="&#x3a4;" horiz-adv-x="667" 
d="M783 700l-21 -64h-262l-207 -636h-74l207 636h-262l21 64h598z" />
    <glyph glyph-name="Upsilon" unicode="&#x3a5;" horiz-adv-x="646" 
d="M208 0l96 296l-138 404h72l116 -343l333 343h93l-403 -408l-95 -292h-74z" />
    <glyph glyph-name="Phi" unicode="&#x3a6;" horiz-adv-x="842" 
d="M304 0l26 80h-33c-112 0 -210 90 -210 231c-3 176 152 311 359 309h60l26 80h74l-26 -80h23c69 0 124 -22 164 -65s60 -100 60 -171c0 -170 -135 -304 -363 -304h-60l-26 -80h-74zM325 144h26l134 412h-46c-160 0 -278 -96 -278 -244c0 -105 67 -168 164 -168zM425 144
h46c174 0 282 97 282 239c0 103 -61 173 -158 173h-36z" />
    <glyph glyph-name="Chi" unicode="&#x3a7;" horiz-adv-x="652" 
d="M-57 0l390 394l-122 306h75l103 -264l269 264h91l-334 -327l140 -373h-75l-121 327l-322 -327h-94z" />
    <glyph glyph-name="Psi" unicode="&#x3a8;" horiz-adv-x="799" 
d="M801 700h74l-61 -187c-73 -224 -199 -319 -395 -327l-60 -186h-74l61 188c-59 9 -106 33 -142 72c-36 40 -54 91 -54 152c0 39 7 78 20 119l55 169h74l-56 -172c-14 -44 -21 -83 -21 -116c0 -93 56 -149 145 -161l146 449h74l-146 -450c149 13 247 101 304 278z" />
    <glyph glyph-name="uni03A9" unicode="&#x3a9;" horiz-adv-x="802" 
d="M803 437c0 -81 -26 -152 -78 -214c-52 -61 -120 -114 -204 -159h149l-20 -64h-257l19 59c89 42 164 94 225 156c61 63 92 134 92 214c0 129 -108 217 -254 217c-178 3 -303 -142 -301 -308c0 -125 53 -218 125 -279l-19 -59h-257l20 64h174c-64 65 -117 155 -117 271
c0 214 156 375 395 375c174 0 308 -117 308 -273z" />
    <glyph glyph-name="Alphatonos" unicode="&#x386;" horiz-adv-x="724" 
d="M563 0l-18 188h-384l-140 -188h-84l527 700h98l71 -700h-70zM208 252h331l-38 394zM167 567l80 133h93l-4 -12l-105 -121h-64z" />
    <glyph glyph-name="Epsilontonos" unicode="&#x388;" horiz-adv-x="622" 
d="M231 700h472l-21 -64h-398l-79 -242h368l-20 -64h-368l-87 -266h408l-21 -64h-482zM-23 567l80 133h93l-4 -12l-105 -121h-64z" />
    <glyph glyph-name="Etatonos" unicode="&#x389;" horiz-adv-x="728" 
d="M598 313h-419l-102 -313h-74l228 700h74l-105 -323h419l105 323h74l-228 -700h-74zM-23 567l80 133h93l-4 -12l-105 -121h-64z" />
    <glyph glyph-name="Iotatonos" unicode="&#x38a;" horiz-adv-x="235" 
d="M3 0l228 700h74l-228 -700h-74zM-22 567l80 133h93l-4 -12l-105 -121h-64z" />
    <glyph glyph-name="Omicrontonos" unicode="&#x38c;" horiz-adv-x="850" 
d="M86 291c-4 219 186 423 456 419c181 0 296 -122 296 -299c4 -219 -186 -425 -456 -421c-176 0 -296 123 -296 301zM764 407c0 151 -91 239 -239 239c-209 4 -369 -170 -365 -351c0 -152 94 -241 239 -241c207 -5 369 173 365 353zM21 567l80 133h93l-4 -12l-105 -121h-64
z" />
    <glyph glyph-name="Upsilontonos" unicode="&#x38e;" horiz-adv-x="646" 
d="M208 0l96 296l-138 404h72l116 -343l333 343h93l-403 -408l-95 -292h-74zM-27 567l80 133h93l-4 -12l-105 -121h-64z" />
    <glyph glyph-name="Omegatonos" unicode="&#x38f;" horiz-adv-x="802" 
d="M803 437c0 -81 -26 -152 -78 -214c-52 -61 -120 -114 -204 -159h149l-20 -64h-257l19 59c89 42 164 94 225 156c61 63 92 134 92 214c0 129 -108 217 -254 217c-178 3 -303 -142 -301 -308c0 -125 53 -218 125 -279l-19 -59h-257l20 64h174c-64 65 -117 155 -117 271
c0 214 156 375 395 375c174 0 308 -117 308 -273zM24 567l80 133h93l-4 -12l-105 -121h-64z" />
    <glyph glyph-name="Iotadieresis" unicode="&#x3aa;" horiz-adv-x="235" 
d="M3 0l228 700h74l-228 -700h-74zM182 797l28 84h84l-28 -84h-84zM330 797l28 84h84l-28 -84h-84z" />
    <glyph glyph-name="Upsilondieresis" unicode="&#x3ab;" horiz-adv-x="646" 
d="M208 0l96 296l-138 404h72l116 -343l333 343h93l-403 -408l-95 -292h-74zM374 797l28 84h84l-28 -84h-84zM522 797l28 84h84l-28 -84h-84z" />
    <glyph glyph-name="Iotadieresis.ss01" horiz-adv-x="235" 
d="M3 0l228 700h74l-228 -700h-74zM172 839c0 25 20 45 45 45s45 -20 45 -45s-20 -45 -45 -45s-45 20 -45 45zM324 839c0 25 20 45 45 45s45 -20 45 -45s-20 -45 -45 -45s-45 20 -45 45z" />
    <glyph glyph-name="Upsilondieresis.ss01" horiz-adv-x="646" 
d="M208 0l96 296l-138 404h72l116 -343l333 343h93l-403 -408l-95 -292h-74zM364 839c0 25 20 45 45 45s45 -20 45 -45s-20 -45 -45 -45s-45 20 -45 45zM516 839c0 25 20 45 45 45s45 -20 45 -45s-20 -45 -45 -45s-45 20 -45 45z" />
    <glyph glyph-name="alpha" unicode="&#x3b1;" horiz-adv-x="615" 
d="M41 182c0 167 111 302 282 302c73 0 128 -42 145 -98l28 88h68l-125 -386c-1 -3 -2 -8 -2 -14c0 -16 10 -26 26 -26c19 0 35 13 47 38l45 -22c-20 -48 -50 -74 -101 -74c-40 0 -68 28 -68 67c0 8 1 16 3 24c-41 -59 -93 -91 -180 -91c-90 0 -168 78 -168 192zM430 284
c0 87 -44 142 -112 142c-133 0 -208 -107 -208 -240c0 -87 46 -138 115 -138c111 -3 207 120 205 236z" />
    <glyph glyph-name="beta" unicode="&#x3b2;" horiz-adv-x="555" 
d="M-71 -198l240 736c37 115 108 172 211 172c91 0 145 -51 145 -135c0 -45 -15 -83 -45 -112c-29 -29 -63 -48 -101 -57c68 -28 110 -77 110 -165c0 -139 -101 -251 -259 -251c-73 0 -131 41 -142 89l-91 -277h-68zM421 238c0 41 -14 74 -43 99c-28 25 -62 38 -103 38h-32
l19 58h32c91 0 167 58 167 134c0 53 -33 85 -86 85c-71 0 -114 -40 -143 -129l-100 -308c-7 -23 -11 -44 -11 -61c0 -65 42 -106 111 -106c104 0 189 66 189 190z" />
    <glyph glyph-name="gamma" unicode="&#x3b3;" horiz-adv-x="514" 
d="M82 -198l85 263l-70 409h64l54 -346l283 346h73l-336 -409l-85 -263h-68z" />
    <glyph glyph-name="delta" unicode="&#x3b4;" horiz-adv-x="561" 
d="M39 192c0 118 80 239 220 265c-45 17 -78 51 -78 99c0 97 90 154 226 154c81 0 147 -29 186 -82l-48 -46c-32 48 -86 70 -147 70c-83 0 -147 -35 -147 -98c0 -37 37 -65 112 -78c97 -19 157 -85 157 -189c3 -163 -123 -300 -283 -297c-114 0 -198 93 -198 202zM448 272
c0 97 -44 146 -133 146c-105 3 -207 -104 -204 -225c0 -88 56 -145 141 -145c102 0 196 101 196 224z" />
    <glyph glyph-name="epsilon" unicode="&#x3b5;" horiz-adv-x="451" 
d="M11 120c0 77 62 130 143 133c-36 16 -59 48 -59 92c0 80 80 139 182 139c84 0 143 -45 154 -121l-62 -25c-5 53 -39 88 -102 88c-60 0 -106 -37 -106 -85c0 -45 35 -72 78 -72h18l-18 -58h-47c-69 0 -113 -28 -113 -84c0 -45 38 -79 99 -79c77 0 122 39 153 112l54 -22
c-35 -97 -105 -148 -222 -148c-81 0 -152 56 -152 130z" />
    <glyph glyph-name="zeta" unicode="&#x3b6;" horiz-adv-x="505" 
d="M278 -208l-29 47c51 27 71 45 71 84c0 37 -30 55 -98 67c-108 17 -178 92 -178 200c0 77 20 144 60 201c80 115 209 186 384 251h-289l19 58h406l-19 -58c-102 -42 -187 -82 -256 -120c-68 -38 -125 -84 -170 -138s-67 -117 -67 -188c0 -77 52 -130 157 -149
c79 -15 119 -52 119 -112c0 -64 -42 -112 -110 -143z" />
    <glyph glyph-name="eta" unicode="&#x3b7;" horiz-adv-x="540" 
d="M260 -198l161 492c5 17 8 34 8 49c0 48 -32 83 -85 83c-77 0 -164 -66 -199 -170l-84 -256h-68l154 474h68l-28 -87c47 65 107 97 179 97c81 0 133 -51 133 -128c0 -19 -4 -42 -13 -69l-158 -485h-68z" />
    <glyph glyph-name="theta" unicode="&#x3b8;" horiz-adv-x="587" 
d="M595 475c0 -79 -16 -156 -48 -231s-76 -136 -131 -183s-116 -71 -181 -71c-108 0 -170 94 -170 235c0 79 16 155 48 230s76 137 131 184s116 71 181 71c108 0 170 -94 170 -235zM157 379h361c6 32 9 63 9 94c0 113 -40 179 -115 179c-113 0 -211 -126 -255 -273zM503 321
h-361c-6 -32 -9 -63 -9 -94c0 -113 40 -179 115 -179c113 0 211 126 255 273z" />
    <glyph glyph-name="iota" unicode="&#x3b9;" horiz-adv-x="326" 
d="M30 87c0 18 3 35 8 51l110 336h68l-113 -346c-4 -12 -6 -24 -6 -35c0 -29 18 -45 49 -45s51 14 67 42l51 -30c-28 -48 -65 -70 -132 -70c-61 0 -101 40 -102 97z" />
    <glyph glyph-name="kappa" unicode="&#x3ba;" horiz-adv-x="445" 
d="M-7 0l154 474h68l-68 -210l247 210h94l-283 -232l137 -242h-74l-131 232l-76 -232h-68z" />
    <glyph glyph-name="lambda" unicode="&#x3bb;" horiz-adv-x="481" 
d="M389 0h-66l-46 318l-256 -318h-82l325 405l-43 295h66z" />
    <glyph glyph-name="uni03BC" unicode="&#x3bc;" horiz-adv-x="540" 
d="M-71 -198l218 672h68l-96 -294c-5 -17 -8 -34 -8 -49c0 -48 32 -83 85 -83c77 0 164 66 199 170l84 256h68l-154 -474h-68l28 87c-47 -65 -107 -97 -179 -97c-45 0 -83 16 -100 47l-77 -235h-68z" />
    <glyph glyph-name="nu" unicode="&#x3bd;" horiz-adv-x="506" 
d="M163 474l29 -408l294 408h77l-344 -474h-86l-36 474h66z" />
    <glyph glyph-name="xi" unicode="&#x3be;" horiz-adv-x="495" 
d="M279 -207l-30 48c39 20 59 43 59 79c0 37 -24 62 -97 70c-109 13 -181 80 -181 175c0 112 76 189 208 216c-44 20 -79 72 -79 129c0 63 22 112 66 147s101 53 171 53c112 0 181 -56 184 -167l-62 -18c-3 84 -49 127 -133 127c-95 0 -160 -50 -160 -139
c0 -65 47 -116 115 -116h85l-19 -58h-104c-110 0 -204 -68 -204 -164c0 -73 44 -116 132 -127c97 -12 145 -56 145 -121c0 -61 -36 -101 -96 -134z" />
    <glyph glyph-name="omicron" unicode="&#x3bf;" horiz-adv-x="580" 
d="M39 181c0 168 124 303 311 303c113 0 191 -79 191 -191c0 -168 -124 -303 -311 -303c-110 0 -191 80 -191 191zM469 286c0 83 -53 140 -134 140c-128 2 -227 -114 -224 -238c0 -83 53 -140 134 -140c128 -2 227 114 224 238z" />
    <glyph glyph-name="pi" unicode="&#x3c0;" horiz-adv-x="591" 
d="M105 474h526l-17 -52h-142l-102 -312c-3 -9 -4 -17 -4 -26c0 -24 15 -40 38 -40c25 0 47 15 66 46l41 -30c-27 -48 -65 -70 -118 -70c-56 0 -94 36 -94 88c0 15 2 30 7 45l97 299h-142l-137 -422h-69l137 422h-104z" />
    <glyph glyph-name="rho" unicode="&#x3c1;" horiz-adv-x="575" 
d="M-71 -198l158 485c40 124 144 197 272 197c112 0 181 -72 181 -185c3 -152 -131 -313 -302 -309c-71 0 -130 39 -149 94l-92 -282h-68zM470 293c0 87 -35 133 -118 133c-130 4 -231 -129 -229 -243c0 -80 51 -135 118 -135c127 -4 231 124 229 245z" />
    <glyph glyph-name="uni03C2" unicode="&#x3c2;" horiz-adv-x="527" 
d="M304 -208l-34 47c49 24 70 48 70 84c0 44 -24 53 -109 67c-115 19 -186 89 -186 212c0 164 118 282 301 282c112 0 181 -76 187 -167l-59 -18c-8 79 -63 127 -139 127c-129 0 -220 -91 -220 -223c0 -95 52 -142 133 -154c111 -17 160 -48 160 -119
c0 -65 -41 -106 -104 -138z" />
    <glyph glyph-name="sigma" unicode="&#x3c3;" horiz-adv-x="580" 
d="M40 184c0 165 118 290 305 290h271l-19 -58h-113c36 -32 58 -78 58 -133c3 -165 -124 -296 -298 -293c-122 0 -204 80 -204 194zM470 269c0 88 -53 147 -134 147c-131 0 -224 -102 -224 -228c0 -83 54 -140 141 -140c123 0 217 102 217 221z" />
    <glyph glyph-name="tau" unicode="&#x3c4;" horiz-adv-x="431" 
d="M117 87c0 18 3 35 8 51l93 284h-130l17 52h328l-17 -52h-130l-96 -294c-4 -12 -6 -24 -6 -35c0 -29 18 -45 49 -45s51 14 67 42l51 -30c-28 -48 -65 -70 -132 -70c-61 0 -102 40 -102 97z" />
    <glyph glyph-name="upsilon" unicode="&#x3c5;" horiz-adv-x="530" 
d="M46 125c0 23 4 48 12 74l89 275h68l-93 -285c-7 -21 -10 -41 -10 -60c0 -51 39 -81 99 -81c73 0 134 48 165 141l93 285h68l-93 -286c-45 -139 -123 -198 -247 -198c-91 0 -151 54 -151 135z" />
    <glyph glyph-name="phi" unicode="&#x3c6;" horiz-adv-x="712" 
d="M672 282c3 -159 -139 -284 -325 -282h-34l-64 -198h-68l64 198h-24c-105 0 -182 82 -182 194c-3 144 129 283 321 280h40l73 226h68l-73 -226h17c113 0 187 -75 187 -192zM243 58h21l117 358h-21c-152 0 -253 -103 -253 -220c0 -89 56 -138 136 -138zM604 279
c0 85 -46 137 -134 137h-21l-117 -358h21c159 0 251 93 251 221z" />
    <glyph glyph-name="chi" unicode="&#x3c7;" horiz-adv-x="452" 
d="M-127 -198l293 362l-58 310h69l40 -255l198 255h81l-261 -321l62 -351h-65l-51 289l-226 -289h-82z" />
    <glyph glyph-name="psi" unicode="&#x3c8;" horiz-adv-x="589" 
d="M118 -198l64 198c-79 4 -136 53 -136 124c0 27 5 55 15 85l86 265h72l-93 -274c-11 -31 -14 -46 -14 -70c0 -45 30 -71 89 -72l209 642h68l-209 -642c83 2 140 49 170 142l89 274h68l-92 -283c-40 -123 -118 -190 -254 -191l-64 -198h-68z" />
    <glyph glyph-name="omega" unicode="&#x3c9;" horiz-adv-x="736" 
d="M28 143c0 61 15 121 46 181c31 61 71 111 121 150h75c-107 -89 -176 -201 -176 -332c0 -60 26 -94 77 -94c59 0 115 54 144 141l59 180h68l-62 -189c-6 -19 -9 -36 -9 -52c0 -48 32 -80 81 -80c115 0 180 125 180 263c0 80 -5 120 -22 163h69c15 -39 20 -81 20 -154
c0 -184 -101 -330 -256 -330c-67 0 -116 47 -119 112c-44 -73 -92 -112 -168 -112c-80 0 -128 65 -128 153z" />
    <glyph glyph-name="iotatonos" unicode="&#x3af;" horiz-adv-x="326" 
d="M30 87c0 18 3 35 8 51l110 336h68l-113 -346c-4 -12 -6 -24 -6 -35c0 -29 18 -45 49 -45s51 14 67 42l51 -30c-28 -48 -65 -70 -132 -70c-61 0 -101 40 -102 97zM175 555l80 133h93l-4 -12l-105 -121h-64z" />
    <glyph glyph-name="iotadieresis" unicode="&#x3ca;" horiz-adv-x="326" 
d="M30 87c0 18 3 35 8 51l110 336h68l-113 -346c-4 -12 -6 -24 -6 -35c0 -29 18 -45 49 -45s51 14 67 42l51 -30c-28 -48 -65 -70 -132 -70c-61 0 -101 40 -102 97zM95 571l28 84h84l-28 -84h-84zM243 571l28 84h84l-28 -84h-84z" />
    <glyph glyph-name="iotadieresistonos" unicode="&#x390;" horiz-adv-x="326" 
d="M30 87c0 18 3 35 8 51l110 336h68l-113 -346c-4 -12 -6 -24 -6 -35c0 -29 18 -45 49 -45s51 14 67 42l51 -30c-28 -48 -65 -70 -132 -70c-61 0 -101 40 -102 97zM160 547l46 133h96l-4 -12l-80 -121h-58zM57 571l27 84h82l-27 -84h-82zM287 571l27 84h82l-27 -84h-82z
" />
    <glyph glyph-name="upsilontonos" unicode="&#x3cd;" horiz-adv-x="530" 
d="M46 125c0 23 4 48 12 74l89 275h68l-93 -285c-7 -21 -10 -41 -10 -60c0 -51 39 -81 99 -81c73 0 134 48 165 141l93 285h68l-93 -286c-45 -139 -123 -198 -247 -198c-91 0 -151 54 -151 135zM328 555l80 133h93l-4 -12l-105 -121h-64z" />
    <glyph glyph-name="upsilondieresis" unicode="&#x3cb;" horiz-adv-x="530" 
d="M46 125c0 23 4 48 12 74l89 275h68l-93 -285c-7 -21 -10 -41 -10 -60c0 -51 39 -81 99 -81c73 0 134 48 165 141l93 285h68l-93 -286c-45 -139 -123 -198 -247 -198c-91 0 -151 54 -151 135zM248 571l28 84h84l-28 -84h-84zM396 571l28 84h84l-28 -84h-84z" />
    <glyph glyph-name="upsilondieresistonos" unicode="&#x3b0;" horiz-adv-x="530" 
d="M46 125c0 23 4 48 12 74l89 275h68l-93 -285c-7 -21 -10 -41 -10 -60c0 -51 39 -81 99 -81c73 0 134 48 165 141l93 285h68l-93 -286c-45 -139 -123 -198 -247 -198c-91 0 -151 54 -151 135zM313 547l46 133h96l-4 -12l-80 -121h-58zM210 571l27 84h82l-27 -84h-82z
M440 571l27 84h82l-27 -84h-82z" />
    <glyph glyph-name="omicrontonos" unicode="&#x3cc;" horiz-adv-x="580" 
d="M39 181c0 168 124 303 311 303c113 0 191 -79 191 -191c0 -168 -124 -303 -311 -303c-110 0 -191 80 -191 191zM469 286c0 83 -53 140 -134 140c-128 2 -227 -114 -224 -238c0 -83 53 -140 134 -140c128 -2 227 114 224 238zM340 555l80 133h93l-4 -12l-105 -121h-64z
" />
    <glyph glyph-name="omegatonos" unicode="&#x3ce;" horiz-adv-x="736" 
d="M28 143c0 61 15 121 46 181c31 61 71 111 121 150h75c-107 -89 -176 -201 -176 -332c0 -60 26 -94 77 -94c59 0 115 54 144 141l59 180h68l-62 -189c-6 -19 -9 -36 -9 -52c0 -48 32 -80 81 -80c115 0 180 125 180 263c0 80 -5 120 -22 163h69c15 -39 20 -81 20 -154
c0 -184 -101 -330 -256 -330c-67 0 -116 47 -119 112c-44 -73 -92 -112 -168 -112c-80 0 -128 65 -128 153zM435 555l80 133h93l-4 -12l-105 -121h-64z" />
    <glyph glyph-name="alphatonos" unicode="&#x3ac;" horiz-adv-x="615" 
d="M41 182c0 167 111 302 282 302c73 0 128 -42 145 -98l28 88h68l-125 -386c-1 -3 -2 -8 -2 -14c0 -16 10 -26 26 -26c19 0 35 13 47 38l45 -22c-20 -48 -50 -74 -101 -74c-40 0 -68 28 -68 67c0 8 1 16 3 24c-41 -59 -93 -91 -180 -91c-90 0 -168 78 -168 192zM430 284
c0 87 -44 142 -112 142c-133 0 -208 -107 -208 -240c0 -87 46 -138 115 -138c111 -3 207 120 205 236zM334 555l80 133h93l-4 -12l-105 -121h-64z" />
    <glyph glyph-name="epsilontonos" unicode="&#x3ad;" horiz-adv-x="451" 
d="M11 120c0 77 62 130 143 133c-36 16 -59 48 -59 92c0 80 80 139 182 139c84 0 143 -45 154 -121l-62 -25c-5 53 -39 88 -102 88c-60 0 -106 -37 -106 -85c0 -45 35 -72 78 -72h18l-18 -58h-47c-69 0 -113 -28 -113 -84c0 -45 38 -79 99 -79c77 0 122 39 153 112l54 -22
c-35 -97 -105 -148 -222 -148c-81 0 -152 56 -152 130zM279 555l80 133h93l-4 -12l-105 -121h-64z" />
    <glyph glyph-name="etatonos" unicode="&#x3ae;" horiz-adv-x="540" 
d="M260 -198l161 492c5 17 8 34 8 49c0 48 -32 83 -85 83c-77 0 -164 -66 -199 -170l-84 -256h-68l154 474h68l-28 -87c47 65 107 97 179 97c81 0 133 -51 133 -128c0 -19 -4 -42 -13 -69l-158 -485h-68zM330 555l80 133h93l-4 -12l-105 -121h-64z" />
    <glyph glyph-name="iotadieresis.ss01" horiz-adv-x="326" 
d="M30 87c0 18 3 35 8 51l110 336h68l-113 -346c-4 -12 -6 -24 -6 -35c0 -29 18 -45 49 -45s51 14 67 42l51 -30c-28 -48 -65 -70 -132 -70c-61 0 -101 40 -102 97zM107 613c0 25 20 45 45 45s45 -20 45 -45s-20 -45 -45 -45s-45 20 -45 45zM259 613c0 25 20 45 45 45
s45 -20 45 -45s-20 -45 -45 -45s-45 20 -45 45z" />
    <glyph glyph-name="iotadieresistonos.ss01" horiz-adv-x="326" 
d="M30 87c0 18 3 35 8 51l110 336h68l-113 -346c-4 -12 -6 -24 -6 -35c0 -29 18 -45 49 -45s51 14 67 42l51 -30c-28 -48 -65 -70 -132 -70c-61 0 -101 40 -102 97zM160 547l46 133h96l-4 -12l-80 -121h-58zM66 613c0 25 20 45 45 45s45 -20 45 -45s-20 -45 -45 -45
s-45 20 -45 45zM296 613c0 25 20 45 45 45s45 -20 45 -45s-20 -45 -45 -45s-45 20 -45 45z" />
    <glyph glyph-name="upsilondieresis.ss01" horiz-adv-x="530" 
d="M46 125c0 23 4 48 12 74l89 275h68l-93 -285c-7 -21 -10 -41 -10 -60c0 -51 39 -81 99 -81c73 0 134 48 165 141l93 285h68l-93 -286c-45 -139 -123 -198 -247 -198c-91 0 -151 54 -151 135zM260 613c0 25 20 45 45 45s45 -20 45 -45s-20 -45 -45 -45s-45 20 -45 45z
M412 613c0 25 20 45 45 45s45 -20 45 -45s-20 -45 -45 -45s-45 20 -45 45z" />
    <glyph glyph-name="upsilondieresistonos.ss01" horiz-adv-x="530" 
d="M46 125c0 23 4 48 12 74l89 275h68l-93 -285c-7 -21 -10 -41 -10 -60c0 -51 39 -81 99 -81c73 0 134 48 165 141l93 285h68l-93 -286c-45 -139 -123 -198 -247 -198c-91 0 -151 54 -151 135zM313 547l46 133h96l-4 -12l-80 -121h-58zM219 613c0 25 20 45 45 45
s45 -20 45 -45s-20 -45 -45 -45s-45 20 -45 45zM449 613c0 25 20 45 45 45s45 -20 45 -45s-20 -45 -45 -45s-45 20 -45 45z" />
    <glyph glyph-name="zero" unicode="0" horiz-adv-x="672" 
d="M71 228c-3 247 167 488 388 482c137 0 215 -102 215 -238c3 -247 -167 -488 -388 -482c-123 0 -215 104 -215 238zM606 466c0 111 -68 186 -156 186c-179 5 -314 -209 -311 -418c0 -111 68 -186 156 -186c179 -5 314 209 311 418z" />
    <glyph glyph-name="one" unicode="1" horiz-adv-x="348" 
d="M122 0l190 584c-47 -67 -114 -102 -202 -105l12 59c92 1 175 66 235 162h61l-228 -700h-68z" />
    <glyph glyph-name="two" unicode="2" horiz-adv-x="595" 
d="M297 292c63 20 111 38 146 55c69 35 108 82 108 162c0 44 -16 79 -48 104c-31 26 -70 39 -115 39c-116 0 -188 -70 -188 -185c0 -31 9 -60 26 -88l-56 -31c-25 36 -38 76 -38 121c0 75 24 134 72 177c49 43 113 64 194 64c130 0 221 -82 221 -197
c-4 -147 -85 -208 -281 -271c-132 -43 -201 -96 -232 -184h370l-18 -58h-445c56 175 105 232 284 292z" />
    <glyph glyph-name="three" unicode="3" horiz-adv-x="560" 
d="M10 193l63 20c7 -110 62 -165 164 -165c121 0 198 76 198 205c0 89 -54 143 -143 143c-36 0 -74 -15 -99 -35l-23 52l311 229h-320l18 58h434l-14 -43l-295 -212c11 2 22 3 35 3c91 0 165 -78 165 -192c0 -156 -111 -266 -280 -266c-130 0 -208 90 -214 203z" />
    <glyph glyph-name="four" unicode="4" horiz-adv-x="563" 
d="M275 0l62 190h-314l22 68c52 35 95 71 128 110c34 39 62 80 84 125c23 45 45 99 66 162l15 45h68l-21 -63c-59 -175 -134 -300 -270 -389h241l77 236h68l-77 -236h123l-19 -58h-123l-62 -190h-68z" />
    <glyph glyph-name="five" unicode="5" horiz-adv-x="606" 
d="M33 191l63 16c3 -96 57 -159 165 -159c134 0 230 94 230 221c0 85 -53 147 -146 147c-79 0 -146 -37 -195 -105l-65 23l145 366h436l-18 -58h-374l-111 -256c53 55 113 88 206 88c111 0 190 -84 190 -194c0 -169 -118 -290 -307 -290c-140 0 -213 90 -219 201z" />
    </font>
</defs>
</svg>
